{
.formatVersion = 3;
axes = (
{
name = Weight;
tag = wght;
}
);
classes = (
{
code = "zero five seven eight a g i ordfeminine periodcentered agrave aacute acircumflex atilde adieresis aring ae amacron abreve aogonek gcircumflex gbreve gdotaccent gcommaaccent Scedilla scedilla Tcedilla tcedilla gcaron aringacute aeacute adblgrave ainvertedbreve gravecomb acutecomb circumflexcomb tildecomb macroncomb brevecomb dotaccentcomb dieresiscomb hookabovecomb ringcomb hungarumlautcomb dblgravecomb breveinvertedcomb commaturnedabovecomb strokeshortcomb tonos Decyr Kacyr Elcyr acyr becyr vecyr zhecyr zecyr icyr ishortcyr kacyr elcyr tsecyr shacyr shchacyr hardcyr softcyr yucyr gjecyr igravecyr abrevecyr adieresiscyr aiecyr adotbelow ahoi acircumflexacute acircumflexgrave acircumflexhoi acircumflextilde acircumflexdotbelow abreveacute abrevegrave abrevehoi abrevetilde abrevedotbelow zero.tnum two.ss05 five.tnum six.tnum seven.tnum eight.tnum nine.tnum periodcentered.loclCAT caroncomb.case horncomb.case pecyr.loclSRB tecyr.loclSRB gjecyr.loclMKD";
name = aalt;
},
{

glyphs = (
{
glyphname = .notdef;
layers = (
{
layerId = "B22D72D3-F565-4B82-99AC-51F8C8594089";
shapes = (
{
closed = 1;
nodes = (
(128,0,l),
(1232,0,l),
(1232,1400,l),
(128,1400,l)
);
},
{
closed = 1;
nodes = (
(452,266,l),
(452,1134,l),
(908,1134,l),
(908,266,l)
);
}
);
width = 1360;
},
{
layerId = "91BCDD27-8050-4636-87E6-61A3BEBF18FE";
shapes = (
{
closed = 1;
nodes = (
(149,0,l),
(1147,0,l),
(1147,1400,l),
(149,1400,l)
);
},
{
closed = 1;
nodes = (
(367,186,l),
(367,1215,l),
(929,1215,l),
(929,186,l)
);
}
);
width = 1296;
},
{
layerId = "37360C82-51D7-4766-8A64-F85284F8610E";
shapes = (
{
closed = 1;
nodes = (
(170,0,l),
(1062,0,l),
(1062,1400,l),
(170,1400,l)
);
},
{
closed = 1;
nodes = (
(282,106,l),
(282,1296,l),
(950,1296,l),
(950,106,l)
);
}
);
width = 1232;
}
);
},
{
glyphname = exclam;
layers = (
{
layerId = "B22D72D3-F565-4B82-99AC-51F8C8594089";
shapes = (
{
closed = 1;
nodes = (
(183,536,l),
(539,536,l),
(601,1440,l),
(119,1440,l)
);
},
{
closed = 1;
nodes = (
(444,-30,o),
(521,5,o),
(562,73,c),
(585,106,o),
(594,145,o),
(594,192,cs),
(594,264,o),
(573,318,o),
(525,357,c),
(480,397,o),
(424,416,o),
(360,416,cs),
(276,416,o),
(202,380,o),
(159,312,cs),
(138,280,o),
(126,239,o),
(126,192,cs),
(126,123,o),
(151,70,o),
(196,31,cs),
(244,-9,o),
(296,-30,o),
(360,-30,cs)
);
}
);
width = 720;
},
{
layerId = "91BCDD27-8050-4636-87E6-61A3BEBF18FE";
shapes = (
{
closed = 1;
nodes = (
(215,488,l),
(446,488,l),
(487,1440,l),
(173,1440,l)
);
},
{
closed = 1;
nodes = (
(394,-30,o),
(448,-2,o),
(479,47,cs),
(495,71,o),
(502,100,o),
(502,133,cs),
(502,184,o),
(487,224,o),
(452,253,cs),
(419,282,o),
(378,297,o),
(330,297,cs),
(266,297,o),
(213,269,o),
(182,220,cs),
(166,196,o),
(158,166,o),
(158,133,cs),
(158,82,o),
(176,44,o),
(209,15,cs),
(244,-14,o),
(283,-30,o),
(330,-30,cs)
);
}
);
width = 660;
},
{
layerId = "37360C82-51D7-4766-8A64-F85284F8610E";
shapes = (
{
closed = 1;
nodes = (
(248,440,l),
(354,440,l),
(373,1440,l),
(227,1440,l)
);
},
{
closed = 1;
nodes = (
(341,-30,o),
(377,-10,o),
(396,21,c),
(407,36,o),
(410,54,o),
(410,74,cs),
(410,105,o),
(402,130,o),
(379,149,c),
(359,169,o),
(332,178,o),
(300,178,cs),
(259,178,o),
(225,159,o),
(206,128,c),
(195,113,o),
(190,94,o),
(190,74,cs),
(190,42,o),
(202,20,o),
(222,0,c),
(245,-19,o),
(270,-30,o),
(301,-30,cs)
);
}
);
width = 600;
}
);
leftKerningGroup = b2;
rightKerningGroup = d;
unicode = 33;
},
{
glyphname = numbersign;
layers = (
{
layerId = "B22D72D3-F565-4B82-99AC-51F8C8594089";
shapes = (
{
closed = 1;
nodes = (
(136,32,l),
(408,32,l),
(480,336,l),
(664,334,l),
(592,32,l),
(864,32,l),
(938,334,l),
(1100,334,l),
(1160,592,l),
(1000,592,l),
(1048,802,l),
(1208,802,l),
(1266,1058,l),
(1108,1058,l),
(1182,1368,l),
(910,1368,l),
(836,1058,l),
(650,1058,l),
(724,1368,l),
(452,1368,l),
(378,1058,l),
(216,1058,l),
(156,802,l),
(318,802,l),
(268,592,l),
(108,592,l),
(48,336,l),
(208,336,l)
);
},
{
closed = 1;
nodes = (
(540,592,l),
(588,802,l),
(776,802,l),
(728,592,l)
);
}
);
width = 1314;
},
{
layerId = "91BCDD27-8050-4636-87E6-61A3BEBF18FE";
shapes = (
{
closed = 1;
nodes = (
(161,45,l),
(347,45,l),
(427,377,l),
(700,376,l),
(620,44,l),
(806,44,l),
(887,376,l),
(1056,376,l),
(1098,555,l),
(930,555,l),
(995,842,l),
(1164,842,l),
(1204,1020,l),
(1037,1020,l),
(1117,1356,l),
(931,1356,l),
(851,1020,l),
(577,1020,l),
(657,1355,l),
(472,1355,l),
(391,1020,l),
(222,1020,l),
(180,843,l),
(350,843,l),
(282,554,l),
(113,554,l),
(72,377,l),
(241,377,l)
);
},
{
closed = 1;
nodes = (
(468,554,l),
(533,843,l),
(809,842,l),
(744,555,l)
);
}
);
width = 1276;
},
{
layerId = "37360C82-51D7-4766-8A64-F85284F8610E";
shapes = (
{
closed = 1;
nodes = (
(186,58,l),
(286,58,l),
(374,418,l),
(736,418,l),
(648,56,l),
(748,56,l),
(836,418,l),
(1012,418,l),
(1036,518,l),
(860,518,l),
(942,882,l),
(1120,882,l),
(1142,982,l),
(966,982,l),
(1052,1344,l),
(952,1344,l),
(866,982,l),
(504,982,l),
(590,1342,l),
(492,1342,l),
(404,982,l),
(228,982,l),
(204,884,l),
(382,884,l),
(296,516,l),
(118,516,l),
(96,418,l),
(274,418,l)
);
},
{
closed = 1;
nodes = (
(396,516,l),
(478,884,l),
(842,882,l),
(760,518,l)
);
}
);
width = 1238;
}
);
unicode = 35;
},
{
glyphname = dollar;
layers = (
{
layerId = "B22D72D3-F565-4B82-99AC-51F8C8594089";
shapes = (
{
closed = 1;
nodes = (
(904,-30,o),
(1120,129,o),
(1120,418,cs),
(1120,664,o),
(960,798,o),
(757,824,cs),
(631,840,ls),
(530,853,o),
(426,892,o),
(426,1012,cs),
(426,1131,o),
(539,1156,o),
(626,1156,cs),
(741,1156,o),
(857,1111,o),
(934,1017,c),
(1082,1259,l),
(967,1384,o),
(779,1428,o),
(622,1428,cs),
(371,1428,o),
(145,1267,o),
(145,996,cs),
(145,756,o),
(312,611,o),
(511,578,cs),
(631,558,ls),
(730,542,o),
(837,497,o),
(837,382,cs),
(837,263,o),
(707,242,o),
(622,242,cs),
(485,242,o),
(355,301,o),
(262,400,c),
(120,152,l),
(250,26,o),
(451,-30,o),
(622,-30,cs)
);
},
{
closed = 1;
nodes = (
(507,-160,l),
(761,-160,l),
(761,1560,l),
(507,1560,l)
);
}
);
width = 1200;
},
{
layerId = "91BCDD27-8050-4636-87E6-61A3BEBF18FE";
shapes = (
{
closed = 1;
nodes = (
(883,-30,o),
(1081,113,o),
(1081,389,cs),
(1081,620,o),
(935,729,o),
(746,775,cs),
(603,810,ls),
(483,839,o),
(366,891,o),
(366,1031,cs),
(366,1191,o),
(493,1240,o),
(617,1240,cs),
(735,1240,o),
(846,1199,o),
(933,1110,c),
(1038,1278,l),
(929,1387,o),
(769,1429,o),
(624,1429,cs),
(381,1429,o),
(169,1284,o),
(169,1019,cs),
(169,795,o),
(330,680,o),
(511,632,cs),
(643,597,ls),
(758,567,o),
(884,518,o),
(884,367,cs),
(884,204,o),
(739,160,o),
(614,160,cs),
(482,160,o),
(352,210,o),
(253,305,c),
(151,130,l),
(273,17,o),
(458,-30,o),
(614,-30,cs)
);
},
{
closed = 1;
nodes = (
(536,-160,l),
(715,-160,l),
(715,1560,l),
(536,1560,l)
);
}
);
width = 1200;
},
{
layerId = "37360C82-51D7-4766-8A64-F85284F8610E";
shapes = (
{
closed = 1;
nodes = (
(860,-30,o),
(1043,100,o),
(1043,360,cs),
(1043,574,o),
(909,666,o),
(736,726,cs),
(577,781,ls),
(438,829,o),
(305,883,o),
(305,1050,cs),
(305,1248,o),
(447,1324,o),
(608,1324,cs),
(728,1324,o),
(838,1287,o),
(931,1203,c),
(994,1299,l),
(891,1391,o),
(757,1430,o),
(626,1430,cs),
(392,1430,o),
(193,1299,o),
(193,1042,cs),
(193,835,o),
(349,744,o),
(511,687,cs),
(657,636,ls),
(803,585,o),
(930,526,o),
(930,352,cs),
(930,157,o),
(785,78,o),
(606,78,cs),
(470,78,o),
(353,121,o),
(245,209,c),
(183,108,l),
(298,10,o),
(461,-30,o),
(606,-30,cs)
);
},
{
closed = 1;
nodes = (
(564,-160,l),
(669,-160,l),
(669,1560,l),
(564,1560,l)
);
}
);
width = 1200;
}
);
unicode = 36;
},
{
glyphname = percent;
layers = (
{
layerId = "B22D72D3-F565-4B82-99AC-51F8C8594089";
shapes = (
{
closed = 1;
nodes = (
(770,-40,l),
(1534,1326,l),
(1334,1440,l),
(570,78,l)
);
},
{
closed = 1;
nodes = (
(603,606,o),
(732,681,o),
(805,809,c),
(844,869,o),
(860,938,o),
(860,1014,cs),
(860,1090,o),
(844,1160,o),
(805,1220,c),
(769,1281,o),
(721,1330,o),
(657,1366,cs),
(593,1403,o),
(526,1420,o),
(446,1420,cs),
(366,1420,o),
(300,1403,o),
(236,1366,c),
(172,1331,o),
(125,1281,o),
(86,1220,c),
(50,1160,o),
(30,1090,o),
(30,1014,cs),
(30,938,o),
(50,871,o),
(86,807,cs),
(123,743,o),
(172,697,o),
(236,660,c),
(300,625,o),
(366,606,o),
(446,606,cs)
);
},
{
closed = 1;
nodes = (
(399,852,o),
(363,866,o),
(334,897,c),
(303,928,o),
(288,967,o),
(288,1014,cs),
(288,1078,o),
(317,1127,o),
(365,1155,cs),
(388,1168,o),
(415,1174,o),
(446,1174,cs),
(493,1174,o),
(529,1161,o),
(560,1130,c),
(589,1099,o),
(604,1061,o),
(604,1014,cs),
(604,953,o),
(576,902,o),
(528,875,cs),
(503,860,o),
(477,852,o),
(446,852,cs)
);
},
{
closed = 1;
nodes = (
(1817,-20,o),
(1946,55,o),
(2019,183,c),
(2058,243,o),
(2074,312,o),
(2074,388,cs),
(2074,464,o),
(2058,534,o),
(2019,594,c),
(1983,655,o),
(1935,704,o),
(1871,740,cs),
(1807,777,o),
(1740,794,o),
(1660,794,cs),
(1580,794,o),
(1514,777,o),
(1450,740,c),
(1386,705,o),
(1339,655,o),
(1300,594,c),
(1264,534,o),
(1244,464,o),
(1244,388,cs),
(1244,312,o),
(1264,243,o),
(1300,183,cs),
(1337,119,o),
(1386,71,o),
(1450,35,cs),
(1514,-1,o),
(1580,-20,o),
(1660,-20,cs)
);
},
{
closed = 1;
nodes = (
(1613,226,o),
(1577,243,o),
(1546,272,c),
(1518,303,o),
(1502,341,o),
(1502,388,cs),
(1502,452,o),
(1531,501,o),
(1579,529,cs),
(1602,542,o),
(1629,548,o),
(1660,548,cs),
(1707,548,o),
(1743,535,o),
(1774,504,c),
(1803,473,o),
(1818,435,o),
(1818,388,cs),
(1818,327,o),
(1790,276,o),
(1742,249,cs),
(1717,234,o),
(1691,226,o),
(1660,226,cs)
);
}
);
width = 2104;
},
{
layerId = "91BCDD27-8050-4636-87E6-61A3BEBF18FE";
shapes = (
{
closed = 1;
nodes = (
(716,-35,l),
(1493,1358,l),
(1355,1435,l),
(578,47,l)
);
},
{
closed = 1;
nodes = (
(600,658,o),
(722,731,o),
(791,848,c),
(827,905,o),
(843,968,o),
(843,1040,cs),
(843,1112,o),
(827,1175,o),
(791,1232,cs),
(756,1289,o),
(712,1336,o),
(652,1369,cs),
(592,1404,o),
(528,1420,o),
(455,1420,cs),
(382,1420,o),
(319,1404,o),
(259,1369,cs),
(199,1336,o),
(154,1289,o),
(118,1232,cs),
(83,1175,o),
(65,1112,o),
(65,1040,cs),
(65,968,o),
(83,907,o),
(118,847,cs),
(153,787,o),
(199,744,o),
(259,709,cs),
(319,676,o),
(382,658,o),
(455,658,cs)
);
},
{
closed = 1;
nodes = (
(391,829,o),
(343,848,o),
(304,888,cs),
(264,928,o),
(244,979,o),
(244,1040,cs),
(244,1124,o),
(282,1187,o),
(346,1223,cs),
(377,1240,o),
(414,1249,o),
(455,1249,cs),
(519,1249,o),
(568,1231,o),
(608,1192,c),
(645,1153,o),
(665,1104,o),
(665,1040,cs),
(665,956,o),
(629,892,o),
(565,857,c),
(533,838,o),
(496,829,o),
(455,829,cs)
);
},
{
closed = 1;
nodes = (
(1763,-20,o),
(1885,53,o),
(1954,170,c),
(1990,227,o),
(2006,290,o),
(2006,362,cs),
(2006,434,o),
(1990,497,o),
(1954,554,cs),
(1919,611,o),
(1875,658,o),
(1815,691,cs),
(1755,726,o),
(1691,742,o),
(1618,742,cs),
(1545,742,o),
(1482,726,o),
(1422,691,cs),
(1362,658,o),
(1317,611,o),
(1281,554,cs),
(1246,497,o),
(1228,434,o),
(1228,362,cs),
(1228,290,o),
(1246,227,o),
(1281,170,cs),
(1316,110,o),
(1362,65,o),
(1422,32,cs),
(1482,-3,o),
(1545,-20,o),
(1618,-20,cs)
);
},
{
closed = 1;
nodes = (
(1554,151,o),
(1506,171,o),
(1466,210,c),
(1427,250,o),
(1407,301,o),
(1407,362,cs),
(1407,446,o),
(1445,509,o),
(1509,545,cs),
(1540,562,o),
(1577,571,o),
(1618,571,cs),
(1682,571,o),
(1731,553,o),
(1771,514,c),
(1808,475,o),
(1828,426,o),
(1828,362,cs),
(1828,278,o),
(1792,214,o),
(1728,179,c),
(1696,160,o),
(1659,151,o),
(1618,151,cs)
);
}
);
width = 2071;
},
{
layerId = "37360C82-51D7-4766-8A64-F85284F8610E";
shapes = (
{
closed = 1;
nodes = (
(662,-30,l),
(1452,1390,l),
(1376,1430,l),
(586,16,l)
);
},
{
closed = 1;
nodes = (
(597,710,o),
(712,779,o),
(777,888,c),
(812,941,o),
(826,1001,o),
(826,1066,cs),
(826,1131,o),
(812,1191,o),
(777,1244,c),
(745,1297,o),
(703,1341,o),
(647,1372,c),
(591,1405,o),
(532,1420,o),
(464,1420,cs),
(396,1420,o),
(339,1405,o),
(283,1372,c),
(227,1341,o),
(185,1297,o),
(150,1244,c),
(118,1191,o),
(100,1131,o),
(100,1067,cs),
(100,1002,o),
(118,944,o),
(150,888,cs),
(182,832,o),
(227,791,o),
(283,759,cs),
(339,727,o),
(396,710,o),
(464,710,cs)
);
},
{
closed = 1;
nodes = (
(384,806,o),
(323,830,o),
(275,879,cs),
(226,928,o),
(200,990,o),
(200,1066,cs),
(200,1167,o),
(248,1248,o),
(328,1292,cs),
(367,1313,o),
(412,1324,o),
(464,1324,cs),
(544,1324,o),
(607,1302,o),
(656,1255,c),
(701,1208,o),
(726,1146,o),
(726,1066,cs),
(726,962,o),
(683,881,o),
(603,840,c),
(563,817,o),
(516,806,o),
(464,806,cs)
);
},
{
closed = 1;
nodes = (
(1709,-20,o),
(1824,49,o),
(1889,158,c),
(1924,211,o),
(1938,271,o),
(1938,336,cs),
(1938,401,o),
(1924,461,o),
(1889,514,c),
(1857,567,o),
(1815,611,o),
(1759,642,c),
(1703,675,o),
(1644,690,o),
(1576,690,cs),
(1508,690,o),
(1451,675,o),
(1395,642,c),
(1339,611,o),
(1297,567,o),
(1262,514,c),
(1230,461,o),
(1212,401,o),
(1212,336,cs),
(1212,271,o),
(1230,211,o),
(1262,158,c),
(1294,101,o),
(1339,60,o),
(1395,29,cs),
(1451,-3,o),
(1508,-20,o),
(1576,-20,cs)
);
},
{
closed = 1;
nodes = (
(1496,76,o),
(1437,101,o),
(1386,148,c),
(1338,197,o),
(1312,260,o),
(1312,336,cs),
(1312,437,o),
(1360,517,o),
(1440,562,cs),
(1479,583,o),
(1524,594,o),
(1576,594,cs),
(1656,594,o),
(1719,572,o),
(1768,525,c),
(1813,478,o),
(1838,416,o),
(1838,336,cs),
(1838,232,o),
(1795,151,o),
(1715,110,c),
(1675,87,o),
(1628,76,o),
(1576,76,cs)
);
}
);
width = 2038;
}
);
leftKerningGroup = percent;
unicode = 37;
},
{
glyphname = ampersand;
layers = (
{
layerId = "B22D72D3-F565-4B82-99AC-51F8C8594089";
shapes = (
{
closed = 1;
nodes = (
(470,-30,o),
(390,-13,o),
(318,26,cs),
(173,102,o),
(88,229,o),
(88,396,cs),
(88,452,o),
(99,499,o),
(120,547,cs),
(168,651,o),
(254,734,o),
(390,798,c),
(588,577,l),
(543,565,o),
(508,539,o),
(483,510,cs),
(458,481,o),
(444,447,o),
(444,412,cs),
(444,376,o),
(457,346,o),
(488,322,c),
(516,298,o),
(552,286,o),
(596,286,cs),
(653,286,o),
(712,311,o),
(760,346,c),
(358,782,l),
(331,813,o),
(307,843,o),
(290,875,c),
(255,935,o),
(238,990,o),
(238,1054,cs),
(238,1127,o),
(256,1186,o),
(295,1246,c),
(342,1314,o),
(401,1361,o),
(470,1390,cs),
(538,1419,o),
(615,1431,o),
(695,1430,c),
(756,1431,o),
(818,1423,o),
(878,1408,cs),
(938,1393,o),
(998,1371,o),
(1050,1346,c),
(944,1100,l),
(905,1115,o),
(861,1128,o),
(818,1139,cs),
(775,1150,o),
(734,1155,o),
(695,1152,c),
(647,1153,o),
(609,1143,o),
(586,1120,cs),
(570,1104,o),
(562,1085,o),
(562,1056,cs),
(562,1037,o),
(571,1014,o),
(586,990,cs),
(601,966,o),
(623,945,o),
(650,922,c),
(998,570,l),
(1033,613,o),
(1064,658,o),
(1092,709,cs),
(1119,757,o),
(1143,816,o),
(1168,888,c),
(1474,772,l),
(1458,728,o),
(1437,681,o),
(1406,628,cs),
(1346,520,o),
(1275,413,o),
(1202,340,c),
(1510,0,l),
(1074,0,l),
(966,114,l),
(910,70,o),
(848,37,o),
(775,10,cs),
(699,-18,o),
(631,-30,o),
(562,-30,cs)
);
}
);
width = 1558;
},
{
layerId = "91BCDD27-8050-4636-87E6-61A3BEBF18FE";
shapes = (
{
closed = 1;
nodes = (
(472,-30,o),
(394,-13,o),
(325,23,cs),
(185,95,o),
(104,217,o),
(104,377,cs),
(104,434,o),
(117,486,o),
(142,537,cs),
(198,645,o),
(301,730,o),
(453,786,c),
(588,640,l),
(508,619,o),
(450,583,o),
(407,539,cs),
(364,495,o),
(342,442,o),
(342,385,cs),
(342,324,o),
(363,275,o),
(407,238,cs),
(450,201,o),
(507,182,o),
(579,182,cs),
(684,182,o),
(779,224,o),
(863,304,c),
(420,773,ls),
(383,813,o),
(351,848,o),
(328,883,cs),
(283,951,o),
(264,1008,o),
(264,1084,cs),
(264,1149,o),
(281,1206,o),
(317,1259,cs),
(360,1323,o),
(416,1365,o),
(481,1393,cs),
(545,1420,o),
(617,1431,o),
(693,1430,cs),
(761,1430,o),
(830,1419,o),
(895,1400,c),
(959,1380,o),
(1021,1352,o),
(1072,1319,c),
(985,1149,l),
(946,1173,o),
(896,1195,o),
(844,1211,cs),
(791,1227,o),
(735,1237,o),
(683,1236,c),
(622,1237,o),
(568,1224,o),
(532,1191,cs),
(501,1163,o),
(486,1128,o),
(486,1083,cs),
(486,1048,o),
(497,1013,o),
(517,980,cs),
(537,947,o),
(571,909,o),
(618,864,c),
(1016,459,l),
(1053,506,o),
(1088,559,o),
(1120,620,cs),
(1151,680,o),
(1179,748,o),
(1207,832,c),
(1411,751,l),
(1394,700,o),
(1372,649,o),
(1344,596,cs),
(1288,488,o),
(1225,387,o),
(1153,307,c),
(1439,0,l),
(1145,0,l),
(1002,150,l),
(938,93,o),
(870,50,o),
(793,18,cs),
(713,-15,o),
(638,-30,o),
(561,-30,cs)
);
}
);
width = 1510;
},
{
layerId = "37360C82-51D7-4766-8A64-F85284F8610E";
shapes = (
{
closed = 1;
nodes = (
(472,-30,o),
(401,-13,o),
(333,20,c),
(200,89,o),
(120,205,o),
(120,358,cs),
(120,419,o),
(135,472,o),
(164,528,c),
(229,641,o),
(348,727,o),
(517,775,c),
(589,703,l),
(476,674,o),
(390,629,o),
(330,569,cs),
(270,509,o),
(240,438,o),
(240,358,cs),
(240,273,o),
(267,206,o),
(327,154,c),
(383,103,o),
(462,78,o),
(562,78,cs),
(718,78,o),
(849,137,o),
(966,262,c),
(482,764,ls),
(435,813,o),
(394,853,o),
(366,892,c),
(310,965,o),
(290,1029,o),
(290,1114,cs),
(290,1174,o),
(306,1224,o),
(339,1273,cs),
(379,1330,o),
(432,1371,o),
(492,1396,cs),
(552,1421,o),
(620,1431,o),
(692,1430,cs),
(768,1430,o),
(843,1416,o),
(912,1392,cs),
(981,1368,o),
(1046,1333,o),
(1094,1293,c),
(1027,1198,l),
(988,1231,o),
(933,1261,o),
(869,1284,cs),
(805,1307,o),
(737,1321,o),
(672,1320,c),
(596,1323,o),
(528,1307,o),
(479,1263,cs),
(432,1222,o),
(410,1174,o),
(410,1110,cs),
(410,1061,o),
(424,1013,o),
(449,970,cs),
(474,927,o),
(521,875,o),
(586,806,c),
(1034,348,l),
(1074,399,o),
(1112,459,o),
(1149,532,cs),
(1184,604,o),
(1215,683,o),
(1246,776,c),
(1348,730,l),
(1329,673,o),
(1309,618,o),
(1282,565,c),
(1233,456,o),
(1173,358,o),
(1104,274,c),
(1368,0,l),
(1216,0,l),
(1038,186,l),
(969,114,o),
(893,64,o),
(812,27,cs),
(728,-13,o),
(648,-30,o),
(560,-30,cs)
);
}
);
width = 1462;
}
);
rightKerningGroup = x;
unicode = 38;
},
{
glyphname = quotesingle;
layers = (
{
layerId = "B22D72D3-F565-4B82-99AC-51F8C8594089";
shapes = (
{
closed = 1;
nodes = (
(119,702,l),
(399,702,l),
(439,1400,l),
(79,1400,l)
);
}
);
width = 516;
},
{
layerId = "91BCDD27-8050-4636-87E6-61A3BEBF18FE";
shapes = (
{
closed = 1;
nodes = (
(142,847,l),
(327,847,l),
(352,1400,l),
(117,1400,l)
);
}
);
width = 468;
},
{
layerId = "37360C82-51D7-4766-8A64-F85284F8610E";
shapes = (
{
closed = 1;
nodes = (
(166,992,l),
(256,992,l),
(266,1400,l),
(156,1400,l)
);
}
);
width = 420;
}
);
leftKerningGroup = tonos2;
rightKerningGroup = tonos;
unicode = 39;
},
{
glyphname = parenleft;
layers = (
{
layerId = "B22D72D3-F565-4B82-99AC-51F8C8594089";
shapes = (
{
closed = 1;
nodes = (
(662,-118,l),
(590,3,o),
(538,128,o),
(505,269,c),
(469,410,o),
(450,551,o),
(450,696,cs),
(450,841,o),
(467,979,o),
(503,1119,cs),
(539,1256,o),
(590,1382,o),
(662,1498,c),
(348,1610,l),
(235,1414,o),
(164,1214,o),
(128,1006,cs),
(109,901,o),
(100,800,o),
(100,692,cs),
(100,532,o),
(121,380,o),
(162,224,cs),
(203,67,o),
(264,-81,o),
(348,-230,c)
);
}
);
width = 732;
},
{
layerId = "91BCDD27-8050-4636-87E6-61A3BEBF18FE";
shapes = (
{
closed = 1;
nodes = (
(592,-153,l),
(519,-32,o),
(465,99,o),
(429,248,cs),
(392,397,o),
(373,543,o),
(373,696,cs),
(373,849,o),
(391,996,o),
(428,1141,cs),
(465,1285,o),
(519,1416,o),
(592,1533,c),
(395,1610,l),
(282,1422,o),
(211,1223,o),
(175,1011,cs),
(156,903,o),
(147,800,o),
(147,692,cs),
(147,531,o),
(168,374,o),
(209,217,cs),
(250,57,o),
(311,-89,o),
(395,-230,c)
);
}
);
width = 699;
},
{
layerId = "37360C82-51D7-4766-8A64-F85284F8610E";
shapes = (
{
closed = 1;
nodes = (
(522,-188,l),
(446,-63,o),
(391,71,o),
(354,227,cs),
(315,383,o),
(296,536,o),
(296,696,cs),
(296,857,o),
(314,1012,o),
(353,1164,cs),
(393,1313,o),
(446,1451,o),
(522,1568,c),
(442,1610,l),
(329,1431,o),
(258,1232,o),
(222,1017,cs),
(203,908,o),
(194,804,o),
(194,692,cs),
(194,527,o),
(215,371,o),
(256,211,cs),
(297,50,o),
(358,-94,o),
(442,-230,c)
);
}
);
width = 666;
}
);
rightKerningGroup = parenleft;
unicode = 40;
},
{
glyphname = parenright;
layers = (
{
layerId = "B22D72D3-F565-4B82-99AC-51F8C8594089";
shapes = (
{
closed = 1;
nodes = (
(70,1498,l),
(142,1381,o),
(193,1255,o),
(229,1111,cs),
(265,970,o),
(282,829,o),
(282,684,cs),
(282,539,o),
(265,400,o),
(229,263,c),
(196,123,o),
(143,-1,o),
(70,-118,c),
(384,-230,l),
(497,-31,o),
(568,166,o),
(604,375,cs),
(623,479,o),
(632,583,o),
(632,688,cs),
(632,848,o),
(611,1000,o),
(570,1157,cs),
(529,1314,o),
(468,1461,o),
(384,1610,c)
);
}
);
width = 732;
},
{
layerId = "91BCDD27-8050-4636-87E6-61A3BEBF18FE";
shapes = (
{
closed = 1;
nodes = (
(107,1533,l),
(180,1412,o),
(234,1281,o),
(271,1132,cs),
(308,983,o),
(326,837,o),
(326,684,cs),
(326,531,o),
(308,384,o),
(271,240,cs),
(235,95,o),
(183,-36,o),
(107,-153,c),
(304,-230,l),
(417,-41,o),
(488,157,o),
(524,370,cs),
(543,475,o),
(552,580,o),
(552,688,cs),
(552,849,o),
(531,1006,o),
(490,1163,cs),
(449,1323,o),
(388,1469,o),
(304,1610,c)
);
}
);
width = 699;
},
{
layerId = "37360C82-51D7-4766-8A64-F85284F8610E";
shapes = (
{
closed = 1;
nodes = (
(144,1568,l),
(220,1447,o),
(274,1310,o),
(314,1153,cs),
(353,997,o),
(370,844,o),
(370,684,cs),
(370,523,o),
(352,367,o),
(313,218,cs),
(276,66,o),
(221,-68,o),
(144,-188,c),
(224,-230,l),
(337,-49,o),
(408,148,o),
(444,365,cs),
(463,473,o),
(472,580,o),
(472,688,cs),
(472,853,o),
(451,1009,o),
(410,1169,cs),
(369,1330,o),
(308,1474,o),
(224,1610,c)
);
}
);
width = 666;
}
);
leftKerningGroup = parenright;
unicode = 41;
},
{
glyphname = asterisk;
layers = (
{
layerId = "B22D72D3-F565-4B82-99AC-51F8C8594089";
shapes = (
{
closed = 1;
nodes = (
(454,398,l),
(594,642,l),
(734,398,l),
(1040,608,l),
(854,816,l),
(1126,882,l),
(1010,1234,l),
(752,1122,l),
(784,1400,l),
(408,1400,l),
(440,1122,l),
(182,1234,l),
(66,882,l),
(338,816,l),
(152,608,l)
);
}
);
width = 1192;
},
{
layerId = "91BCDD27-8050-4636-87E6-61A3BEBF18FE";
shapes = (
{
closed = 1;
nodes = (
(403,547,l),
(560,798,l),
(715,548,l),
(914,685,l),
(724,912,l),
(1010,986,l),
(934,1216,l),
(660,1107,l),
(681,1400,l),
(438,1400,l),
(460,1105,l),
(186,1215,l),
(110,985,l),
(396,910,l),
(208,685,l)
);
}
);
width = 1118;
},
{
layerId = "37360C82-51D7-4766-8A64-F85284F8610E";
shapes = (
{
closed = 1;
nodes = (
(352,696,l),
(526,954,l),
(696,698,l),
(788,762,l),
(594,1008,l),
(894,1090,l),
(858,1198,l),
(568,1092,l),
(578,1400,l),
(468,1400,l),
(480,1088,l),
(190,1196,l),
(154,1088,l),
(454,1004,l),
(264,762,l)
);
}
);
width = 1044;
}
);
leftKerningGroup = degree2;
rightKerningGroup = degree;
unicode = 42;
},
{
glyphname = plus;
layers = (
{
layerId = "B22D72D3-F565-4B82-99AC-51F8C8594089";
shapes = (
{
closed = 1;
nodes = (
(508,110,l),
(788,110,l),
(788,536,l),
(1228,536,l),
(1228,804,l),
(788,804,l),
(788,1230,l),
(508,1230,l),
(508,804,l),
(68,804,l),
(68,536,l),
(508,536,l)
);
}
);
width = 1296;
},
{
layerId = "91BCDD27-8050-4636-87E6-61A3BEBF18FE";
shapes = (
{
closed = 1;
nodes = (
(553,165,l),
(743,165,l),
(743,576,l),
(1172,576,l),
(1172,758,l),
(743,758,l),
(743,1169,l),
(553,1169,l),
(553,758,l),
(124,758,l),
(124,576,l),
(553,576,l)
);
}
);
width = 1296;
},
{
layerId = "37360C82-51D7-4766-8A64-F85284F8610E";
shapes = (
{
closed = 1;
nodes = (
(598,220,l),
(698,220,l),
(698,616,l),
(1116,616,l),
(1116,712,l),
(698,712,l),
(698,1108,l),
(598,1108,l),
(598,712,l),
(180,712,l),
(180,616,l),
(598,616,l)
);
}
);
width = 1296;
}
);
leftKerningGroup = plus2;
rightKerningGroup = plus;
unicode = 43;
},
{
glyphname = slash;
layers = (
{
layerId = "B22D72D3-F565-4B82-99AC-51F8C8594089";
shapes = (
{
closed = 1;
nodes = (
(292,-230,l),
(978,1484,l),
(656,1610,l),
(-30,-104,l)
);
}
);
width = 948;
},
{
layerId = "91BCDD27-8050-4636-87E6-61A3BEBF18FE";
shapes = (
{
closed = 1;
nodes = (
(206,-230,l),
(925,1527,l),
(714,1610,l),
(-5,-147,l)
);
}
);
width = 920;
},
{
layerId = "37360C82-51D7-4766-8A64-F85284F8610E";
shapes = (
{
closed = 1;
nodes = (
(120,-230,l),
(872,1570,l),
(772,1610,l),
(20,-190,l)
);
}
);
width = 892;
}
);
unicode = 47;
},
{
glyphname = zero.tnum;
layers = (
{
layerId = "B22D72D3-F565-4B82-99AC-51F8C8594089";
shapes = (
{
closed = 1;
nodes = (
(982,-30,o),
(1163,323,o),
(1163,700,cs),
(1163,1078,o),
(984,1430,o),
(600,1430,cs),
(218,1430,o),
(37,1077,o),
(37,700,cs),
(37,324,o),
(219,-30,o),
(600,-30,cs)
);
},
{
closed = 1;
nodes = (
(426,312,o),
(392,555,o),
(392,700,cs),
(392,960,o),
(496,1093,o),
(600,1094,cs),
(704,1095,o),
(808,965,o),
(808,700,cs),
(808,554,o),
(778,312,o),
(600,312,cs)
);
}
);
width = 1200;
},
{
layerId = "91BCDD27-8050-4636-87E6-61A3BEBF18FE";
shapes = (
{
closed = 1;
nodes = (
(969,-30,o),
(1138,344,o),
(1138,700,cs),
(1138,1057,o),
(970,1430,o),
(600,1430,cs),
(230,1430,o),
(62,1057,o),
(62,700,cs),
(62,344,o),
(231,-30,o),
(600,-30,cs)
);
},
{
closed = 1;
nodes = (
(364,197,o),
(300,495,o),
(300,700,cs),
(300,888,o),
(355,1203,o),
(600,1203,cs),
(803,1203,o),
(903,952,o),
(903,700,cs),
(903,449,o),
(801,197,o),
(600,197,cs)
);
}
);
width = 1200;
},
{
layerId = "37360C82-51D7-4766-8A64-F85284F8610E";
shapes = (
{
closed = 1;
nodes = (
(972,-30,o),
(1114,392,o),
(1114,700,cs),
(1114,1009,o),
(973,1430,o),
(600,1430,cs),
(228,1430,o),
(87,1008,o),
(87,700,cs),
(87,393,o),
(229,-30,o),
(600,-30,cs)
);
},
{
closed = 1;
nodes = (
(305,82,o),
(208,437,o),
(208,700,cs),
(208,1113,o),
(404,1322,o),
(600,1322,cs),
(796,1322,o),
(992,1116,o),
(992,700,cs),
(992,458,o),
(909,82,o),
(600,82,cs)
);
}
);
width = 1200;
}
);
leftKerningGroup = plus2;
rightKerningGroup = plus;
unicode = 48;
},
{
glyphname = one.tnum;
layers = (
{
layerId = "B22D72D3-F565-4B82-99AC-51F8C8594089";
shapes = (
{
closed = 1;
nodes = (
(124,0,l),
(1147,0,l),
(1147,358,l),
(828,358,l),
(828,1400,l),
(788,1400,l),
(122,1161,l),
(221,844,l),
(482,942,l),
(482,358,l),
(124,358,l)
);
}
);
width = 1200;
},
{
layerId = "91BCDD27-8050-4636-87E6-61A3BEBF18FE";
shapes = (
{
closed = 1;
nodes = (
(159,0,l),
(1108,0,l),
(1108,233,l),
(768,233,l),
(768,1400,l),
(725,1400,l),
(158,1184,l),
(224,976,l),
(539,1102,l),
(539,233,l),
(159,233,l)
);
}
);
width = 1200;
},
{
layerId = "37360C82-51D7-4766-8A64-F85284F8610E";
shapes = (
{
closed = 1;
nodes = (
(194,0,l),
(1069,0,l),
(1069,108,l),
(707,108,l),
(707,1400,l),
(663,1400,l),
(194,1207,l),
(228,1108,l),
(596,1262,l),
(596,108,l),
(194,108,l)
);
}
);
width = 1200;
}
);
leftKerningGroup = plus2;
rightKerningGroup = plus;
unicode = 49;
},
{
glyphname = two.tnum;
layers = (
{
layerId = "B22D72D3-F565-4B82-99AC-51F8C8594089";
shapes = (
{
closed = 1;
nodes = (
(703,1120,o),
(746,1065,o),
(746,965,cs),
(746,939,o),
(736,909,o),
(719,877,cs),
(614,679,o),
(230,384,o),
(97,289,c),
(97,0,l),
(1105,0,l),
(1105,320,l),
(650,320,l),
(805,416,o),
(998,592,o),
(1078,782,cs),
(1102,839,o),
(1116,897,o),
(1116,954,cs),
(1116,1246,o),
(917,1430,o),
(600,1430,cs),
(343,1430,o),
(113,1251,o),
(45,1003,c),
(347,846,l),
(383,946,o),
(480,1120,o),
(600,1120,cs)
);
}
);
width = 1200;
},
{
layerId = "91BCDD27-8050-4636-87E6-61A3BEBF18FE";
shapes = (
{
closed = 1;
nodes = (
(755,1226,o),
(836,1152,o),
(836,1019,cs),
(836,984,o),
(828,947,o),
(815,910,cs),
(730,671,o),
(296,323,o),
(111,191,c),
(111,0,l),
(1068,0,l),
(1068,215,l),
(488,215,l),
(675,345,o),
(963,607,o),
(1050,853,c),
(1069,904,o),
(1080,954,o),
(1080,1003,cs),
(1080,1272,o),
(903,1431,o),
(599,1431,cs),
(370,1431,o),
(156,1278,o),
(89,1057,c),
(296,958,l),
(337,1085,o),
(459,1226,o),
(599,1226,cs)
);
}
);
width = 1200;
},
{
layerId = "37360C82-51D7-4766-8A64-F85284F8610E";
shapes = (
{
closed = 1;
nodes = (
(807,1332,o),
(926,1238,o),
(926,1072,cs),
(926,1029,o),
(920,985,o),
(910,943,cs),
(845,663,o),
(362,262,o),
(125,92,c),
(125,0,l),
(1031,0,l),
(1031,110,l),
(326,110,l),
(545,273,o),
(928,621,o),
(1022,924,cs),
(1036,968,o),
(1043,1011,o),
(1043,1052,cs),
(1043,1298,o),
(888,1431,o),
(598,1431,cs),
(397,1431,o),
(198,1305,o),
(133,1110,c),
(244,1070,l),
(291,1224,o),
(438,1332,o),
(598,1332,cs)
);
}
);
width = 1200;
}
);
leftKerningGroup = two.tnum2;
rightKerningGroup = two.tnum;
unicode = 50;
},
{
glyphname = three.tnum;
layers = (
{
layerId = "B22D72D3-F565-4B82-99AC-51F8C8594089";
shapes = (
{
closed = 1;
nodes = (
(864,-30,o),
(1111,136,o),
(1111,418,cs),
(1111,609,o),
(991,826,o),
(773,828,cs),
(771,828,o),
(769,828,o),
(767,828,c),
(1051,1103,l),
(1051,1400,l),
(134,1400,l),
(134,1078,l),
(620,1078,l),
(305,825,l),
(409,579,l),
(460,594,o),
(516,600,o),
(565,600,cs),
(666,600,o),
(756,556,o),
(756,450,cs),
(756,346,o),
(642,304,o),
(550,304,cs),
(419,304,o),
(296,351,o),
(225,440,c),
(111,135,l),
(207,23,o),
(434,-30,o),
(576,-30,cs)
);
}
);
width = 1200;
},
{
layerId = "91BCDD27-8050-4636-87E6-61A3BEBF18FE";
shapes = (
{
closed = 1;
nodes = (
(826,-30,o),
(1071,120,o),
(1071,413,cs),
(1071,662,o),
(859,822,o),
(629,823,cs),
(627,823,o),
(624,823,o),
(622,823,c),
(1009,1201,l),
(1009,1400,l),
(134,1400,l),
(134,1185,l),
(720,1185,l),
(308,809,l),
(382,642,l),
(437,655,o),
(489,662,o),
(541,662,cs),
(696,662,o),
(839,597,o),
(839,429,cs),
(839,263,o),
(696,193,o),
(545,193,cs),
(414,193,o),
(281,237,o),
(200,318,c),
(120,114,l),
(226,16,o),
(419,-30,o),
(560,-30,cs)
);
}
);
width = 1200;
},
{
layerId = "37360C82-51D7-4766-8A64-F85284F8610E";
shapes = (
{
closed = 1;
nodes = (
(866,-30,o),
(1036,189,o),
(1036,405,cs),
(1036,665,o),
(797,822,o),
(548,822,cs),
(523,822,o),
(498,818,o),
(473,818,c),
(968,1299,l),
(968,1400,l),
(135,1400,l),
(135,1292,l),
(820,1292,l),
(312,793,l),
(356,707,l),
(410,719,o),
(464,724,o),
(517,724,cs),
(727,724,o),
(921,638,o),
(921,408,cs),
(921,184,o),
(745,82,o),
(539,82,cs),
(404,82,o),
(272,122,o),
(177,194,c),
(128,93,l),
(239,11,o),
(410,-30,o),
(545,-30,cs)
);
}
);
width = 1200;
}
);
leftKerningGroup = plus2;
rightKerningGroup = plus;
unicode = 51;
},
{
glyphname = four.tnum;
layers = (
{
layerId = "B22D72D3-F565-4B82-99AC-51F8C8594089";
shapes = (
{
closed = 1;
nodes = (
(673,0,l),
(984,0,l),
(984,246,l),
(1150,246,l),
(1150,564,l),
(984,564,l),
(984,812,l),
(673,812,l),
(673,564,l),
(446,564,l),
(815,1400,l),
(443,1400,l),
(56,528,l),
(56,246,l),
(673,246,l)
);
}
);
width = 1200;
},
{
layerId = "91BCDD27-8050-4636-87E6-61A3BEBF18FE";
shapes = (
{
closed = 1;
nodes = (
(735,0,l),
(943,0,l),
(943,279,l),
(1142,279,l),
(1142,492,l),
(943,492,l),
(943,790,l),
(735,790,l),
(735,492,l),
(335,492,l),
(787,1400,l),
(541,1400,l),
(79,470,l),
(79,279,l),
(735,279,l)
);
}
);
width = 1200;
},
{
layerId = "37360C82-51D7-4766-8A64-F85284F8610E";
shapes = (
{
closed = 1;
nodes = (
(799,0,l),
(903,0,l),
(903,312,l),
(1138,312,l),
(1138,420,l),
(903,420,l),
(903,768,l),
(799,768,l),
(799,420,l),
(225,420,l),
(760,1400,l),
(636,1400,l),
(102,412,l),
(102,312,l),
(799,312,l)
);
}
);
width = 1200;
}
);
leftKerningGroup = plus2;
rightKerningGroup = plus;
unicode = 52;
},
{
glyphname = five.tnum;
layers = (
{
layerId = "B22D72D3-F565-4B82-99AC-51F8C8594089";
shapes = (
{
closed = 1;
nodes = (
(833,-30,o),
(1077,119,o),
(1077,438,cs),
(1077,748,o),
(867,898,o),
(598,898,cs),
(563,898,o),
(531,896,o),
(498,891,c),
(492,891,l),
(515,1054,l),
(1046,1054,l),
(1046,1396,l),
(255,1400,l),
(184,738,l),
(340,554,l),
(404,587,o),
(468,598,o),
(525,598,cs),
(619,598,o),
(726,571,o),
(726,458,cs),
(726,334,o),
(632,304,o),
(529,304,cs),
(400,304,o),
(287,339,o),
(203,432,c),
(98,125,l),
(217,16,o),
(395,-30,o),
(550,-30,cs)
);
}
);
width = 1200;
},
{
layerId = "91BCDD27-8050-4636-87E6-61A3BEBF18FE";
shapes = (
{
closed = 1;
nodes = (
(832,-30,o),
(1061,127,o),
(1061,433,cs),
(1061,727,o),
(853,878,o),
(596,878,cs),
(540,878,o),
(482,868,o),
(423,850,c),
(416,850,l),
(453,1173,l),
(1028,1173,l),
(1028,1398,l),
(282,1398,l),
(212,738,l),
(313,622,l),
(393,660,o),
(472,676,o),
(542,676,cs),
(689,676,o),
(828,609,o),
(828,443,cs),
(828,264,o),
(697,193,o),
(542,193,cs),
(415,193,o),
(290,231,o),
(203,316,c),
(126,110,l),
(241,13,o),
(412,-30,o),
(555,-30,cs)
);
}
);
width = 1200;
},
{
layerId = "37360C82-51D7-4766-8A64-F85284F8610E";
shapes = (
{
closed = 1;
nodes = (
(830,-30,o),
(1045,133,o),
(1045,428,cs),
(1045,709,o),
(839,858,o),
(595,858,cs),
(515,858,o),
(436,843,o),
(347,808,c),
(340,808,l),
(392,1292,l),
(1010,1292,l),
(1010,1400,l),
(309,1396,l),
(240,738,l),
(287,691,l),
(382,735,o),
(474,754,o),
(558,754,cs),
(759,754,o),
(929,646,o),
(929,428,cs),
(929,195,o),
(761,82,o),
(554,82,cs),
(429,82,o),
(297,125,o),
(204,199,c),
(156,96,l),
(261,11,o),
(430,-30,o),
(560,-30,cs)
);
}
);
width = 1200;
}
);
leftKerningGroup = plus2;
rightKerningGroup = plus;
unicode = 53;
},
{
glyphname = six.tnum;
layers = (
{
layerId = "B22D72D3-F565-4B82-99AC-51F8C8594089";
shapes = (
{
closed = 1;
nodes = (
(929,-31,o),
(1133,190,o),
(1133,462,cs),
(1133,727,o),
(962,919,o),
(704,919,cs),
(615,919,o),
(545,896,o),
(486,857,c),
(555,1020,o),
(747,1112,o),
(1029,1115,c),
(961,1425,l),
(400,1425,o),
(66,1037,o),
(66,576,cs),
(66,197,o),
(293,-31,o),
(608,-31,cs)
);
},
{
closed = 1;
nodes = (
(520,286,o),
(454,356,o),
(454,452,cs),
(454,540,o),
(514,617,o),
(608,617,cs),
(697,617,o),
(763,547,o),
(763,452,cs),
(763,356,o),
(697,286,o),
(608,286,cs)
);
}
);
width = 1200;
},
{
layerId = "91BCDD27-8050-4636-87E6-61A3BEBF18FE";
shapes = (
{
closed = 1;
nodes = (
(920,-31,o),
(1123,184,o),
(1123,454,cs),
(1123,719,o),
(937,906,o),
(679,906,cs),
(547,906,o),
(436,848,o),
(365,757,c),
(417,1046,o),
(658,1221,o),
(1008,1217,c),
(964,1426,l),
(433,1426,o),
(95,1056,o),
(95,577,cs),
(95,191,o),
(312,-31,o),
(618,-31,cs)
);
},
{
closed = 1;
nodes = (
(468,185,o),
(361,292,o),
(361,441,cs),
(361,584,o),
(470,697,o),
(618,697,cs),
(764,697,o),
(876,587,o),
(876,441,cs),
(876,292,o),
(769,185,o),
(618,185,cs)
);
}
);
width = 1200;
},
{
layerId = "37360C82-51D7-4766-8A64-F85284F8610E";
shapes = (
{
closed = 1;
nodes = (
(911,-31,o),
(1113,177,o),
(1113,446,cs),
(1113,710,o),
(911,892,o),
(653,892,cs),
(478,892,o),
(326,800,o),
(243,656,c),
(278,1071,o),
(568,1330,o),
(986,1318,c),
(967,1426,l),
(466,1426,o),
(123,1075,o),
(123,577,cs),
(123,185,o),
(331,-31,o),
(628,-31,cs)
);
},
{
closed = 1;
nodes = (
(416,84,o),
(267,227,o),
(267,430,cs),
(267,627,o),
(425,777,o),
(628,777,cs),
(831,777,o),
(989,627,o),
(989,430,cs),
(989,227,o),
(840,84,o),
(628,84,cs)
);
}
);
width = 1200;
}
);
leftKerningGroup = plus2;
rightKerningGroup = plus;
unicode = 54;
},
{
glyphname = seven.tnum;
layers = (
{
layerId = "B22D72D3-F565-4B82-99AC-51F8C8594089";
shapes = (
{
closed = 1;
nodes = (
(184,0,l),
(585,0,l),
(1098,1122,l),
(1098,1400,l),
(123,1400,l),
(123,1042,l),
(673,1042,l)
);
}
);
width = 1200;
},
{
layerId = "91BCDD27-8050-4636-87E6-61A3BEBF18FE";
shapes = (
{
closed = 1;
nodes = (
(235,0,l),
(496,0,l),
(1058,1211,l),
(1058,1400,l),
(163,1400,l),
(163,1167,l),
(784,1167,l)
);
}
);
width = 1200;
},
{
layerId = "37360C82-51D7-4766-8A64-F85284F8610E";
shapes = (
{
closed = 1;
nodes = (
(286,0,l),
(408,0,l),
(1018,1300,l),
(1018,1400,l),
(204,1400,l),
(204,1292,l),
(896,1292,l)
);
}
);
width = 1200;
}
);
leftKerningGroup = plus2;
rightKerningGroup = plus;
unicode = 55;
},
{
glyphname = eight.tnum;
layers = (
{
layerId = "B22D72D3-F565-4B82-99AC-51F8C8594089";
shapes = (
{
closed = 1;
nodes = (
(845,-30,o),
(1123,108,o),
(1123,390,cs),
(1123,543,o),
(1040,678,o),
(896,740,c),
(1012,798,o),
(1077,904,o),
(1077,1040,cs),
(1077,1299,o),
(838,1430,o),
(600,1430,cs),
(359,1430,o),
(127,1292,o),
(127,1040,cs),
(127,914,o),
(192,798,o),
(308,740,c),
(165,680,o),
(77,554,o),
(77,390,cs),
(77,101,o),
(328,-30,o),
(591,-30,cs)
);
},
{
closed = 1;
nodes = (
(499,276,o),
(426,347,o),
(426,439,cs),
(426,540,o),
(506,598,o),
(600,598,cs),
(701,598,o),
(774,542,o),
(774,438,cs),
(774,344,o),
(699,276,o),
(600,276,cs)
);
},
{
closed = 1;
nodes = (
(521,892,o),
(451,948,o),
(451,1032,cs),
(451,1113,o),
(518,1168,o),
(602,1168,cs),
(683,1168,o),
(753,1119,o),
(753,1032,cs),
(753,945,o),
(683,892,o),
(602,892,cs)
);
}
);
width = 1200;
},
{
layerId = "91BCDD27-8050-4636-87E6-61A3BEBF18FE";
shapes = (
{
closed = 1;
nodes = (
(850,-30,o),
(1092,118,o),
(1092,390,cs),
(1092,557,o),
(995,679,o),
(854,738,c),
(976,791,o),
(1048,904,o),
(1048,1045,cs),
(1048,1294,o),
(833,1430,o),
(600,1430,cs),
(378,1430,o),
(156,1301,o),
(156,1045,cs),
(156,906,o),
(231,790,o),
(350,738,c),
(202,678,o),
(109,561,o),
(109,390,cs),
(109,116,o),
(339,-30,o),
(596,-30,cs)
);
},
{
closed = 1;
nodes = (
(462,179,o),
(341,260,o),
(341,409,cs),
(341,564,o),
(460,639,o),
(600,639,cs),
(742,639,o),
(859,562,o),
(859,409,cs),
(859,257,o),
(735,179,o),
(600,179,cs)
);
},
{
closed = 1;
nodes = (
(486,842,o),
(374,908,o),
(374,1038,cs),
(374,1170,o),
(484,1243,o),
(602,1243,cs),
(724,1243,o),
(830,1171,o),
(830,1038,cs),
(830,904,o),
(719,842,o),
(602,842,cs)
);
}
);
width = 1200;
},
{
layerId = "37360C82-51D7-4766-8A64-F85284F8610E";
shapes = (
{
closed = 1;
nodes = (
(852,-30,o),
(1060,129,o),
(1060,390,cs),
(1060,559,o),
(966,674,o),
(810,736,c),
(940,785,o),
(1020,904,o),
(1020,1050,cs),
(1020,1288,o),
(830,1430,o),
(601,1430,cs),
(383,1430,o),
(184,1296,o),
(184,1050,cs),
(184,904,o),
(267,785,o),
(395,736,c),
(241,678,o),
(140,567,o),
(140,390,cs),
(140,119,o),
(368,-30,o),
(600,-30,cs)
);
},
{
closed = 1;
nodes = (
(419,82,o),
(256,181,o),
(256,380,cs),
(256,576,o),
(402,680,o),
(600,680,cs),
(787,680,o),
(944,584,o),
(944,380,cs),
(944,177,o),
(777,82,o),
(600,82,cs)
);
},
{
closed = 1;
nodes = (
(450,792,o),
(296,870,o),
(296,1045,cs),
(296,1223,o),
(444,1318,o),
(602,1318,cs),
(765,1318,o),
(908,1225,o),
(908,1045,cs),
(908,875,o),
(764,792,o),
(602,792,cs)
);
}
);
width = 1200;
}
);
leftKerningGroup = plus2;
rightKerningGroup = plus;
unicode = 56;
},
{
glyphname = nine.tnum;
layers = (
{
layerId = "B22D72D3-F565-4B82-99AC-51F8C8594089";
shapes = (
{
closed = 1;
nodes = (
(236,-26,l),
(790,-26,o),
(1125,370,o),
(1125,841,cs),
(1125,1206,o),
(903,1430,o),
(593,1430,cs),
(277,1430,o),
(78,1222,o),
(78,961,cs),
(78,696,o),
(244,504,o),
(497,504,cs),
(581,504,o),
(649,527,o),
(705,566,c),
(636,387,o),
(449,287,o),
(168,284,c)
);
},
{
closed = 1;
nodes = (
(508,806,o),
(448,871,o),
(448,960,cs),
(448,1047,o),
(508,1113,o),
(592,1113,cs),
(675,1113,o),
(737,1048,o),
(737,960,cs),
(737,877,o),
(680,806,o),
(592,806,cs)
);
}
);
width = 1200;
},
{
layerId = "91BCDD27-8050-4636-87E6-61A3BEBF18FE";
shapes = (
{
closed = 1;
nodes = (
(235,-27,l),
(775,-27,o),
(1097,366,o),
(1097,840,cs),
(1097,1213,o),
(884,1430,o),
(584,1430,cs),
(287,1430,o),
(89,1227,o),
(89,968,cs),
(89,704,o),
(271,517,o),
(523,517,cs),
(651,517,o),
(759,574,o),
(827,666,c),
(778,394,o),
(566,176,o),
(191,183,c)
);
},
{
closed = 1;
nodes = (
(442,725,o),
(336,830,o),
(336,970,cs),
(336,1112,o),
(438,1214,o),
(583,1214,cs),
(727,1214,o),
(831,1112,o),
(831,970,cs),
(831,834,o),
(725,725,o),
(583,725,cs)
);
}
);
width = 1200;
},
{
layerId = "37360C82-51D7-4766-8A64-F85284F8610E";
shapes = (
{
closed = 1;
nodes = (
(234,-27,l),
(760,-27,o),
(1068,362,o),
(1068,838,cs),
(1068,1219,o),
(864,1430,o),
(574,1430,cs),
(296,1430,o),
(99,1232,o),
(99,975,cs),
(99,711,o),
(298,529,o),
(548,529,cs),
(720,529,o),
(868,621,o),
(948,765,c),
(920,400,o),
(682,65,o),
(214,81,c)
);
},
{
closed = 1;
nodes = (
(376,644,o),
(223,789,o),
(223,980,cs),
(223,1176,o),
(368,1315,o),
(573,1315,cs),
(778,1315,o),
(924,1176,o),
(924,980,cs),
(924,790,o),
(770,644,o),
(573,644,cs)
);
}
);
width = 1200;
}
);
leftKerningGroup = plus2;
rightKerningGroup = plus;
unicode = 57;
},
{
glyphname = less;
layers = (
{
layerId = "B22D72D3-F565-4B82-99AC-51F8C8594089";
shapes = (
{
closed = 1;
nodes = (
(1134,1186,l),
(68,764,l),
(68,494,l),
(1136,72,l),
(1236,328,l),
(488,630,l),
(1236,930,l)
);
}
);
width = 1296;
},
{
layerId = "91BCDD27-8050-4636-87E6-61A3BEBF18FE";
shapes = (
{
closed = 1;
nodes = (
(1110,1135,l),
(124,739,l),
(124,558,l),
(1111,160,l),
(1182,339,l),
(411,649,l),
(1182,956,l)
);
}
);
width = 1296;
},
{
layerId = "37360C82-51D7-4766-8A64-F85284F8610E";
shapes = (
{
closed = 1;
nodes = (
(1086,1084,l),
(180,714,l),
(180,622,l),
(1086,248,l),
(1128,350,l),
(334,668,l),
(1128,982,l)
);
}
);
width = 1296;
}
);
leftKerningGroup = plus2;
rightKerningGroup = plus;
unicode = 60;
},
{
glyphname = equal;
layers = (
{
layerId = "B22D72D3-F565-4B82-99AC-51F8C8594089";
shapes = (
{
closed = 1;
nodes = (
(68,782,l),
(1228,782,l),
(1228,1050,l),
(68,1050,l)
);
},
{
closed = 1;
nodes = (
(68,290,l),
(1228,290,l),
(1228,558,l),
(68,558,l)
);
}
);
width = 1296;
},
{
layerId = "91BCDD27-8050-4636-87E6-61A3BEBF18FE";
shapes = (
{
closed = 1;
nodes = (
(124,778,l),
(1172,778,l),
(1172,960,l),
(124,960,l)
);
},
{
closed = 1;
nodes = (
(124,370,l),
(1172,370,l),
(1172,552,l),
(124,552,l)
);
}
);
width = 1296;
},
{
layerId = "37360C82-51D7-4766-8A64-F85284F8610E";
shapes = (
{
closed = 1;
nodes = (
(180,774,l),
(1116,774,l),
(1116,870,l),
(180,870,l)
);
},
{
closed = 1;
nodes = (
(180,450,l),
(1116,450,l),
(1116,546,l),
(180,546,l)
);
}
);
width = 1296;
}
);
leftKerningGroup = plus2;
rightKerningGroup = plus;
unicode = 61;
},
{
glyphname = greater;
layers = (
{
layerId = "B22D72D3-F565-4B82-99AC-51F8C8594089";
shapes = (
{
closed = 1;
nodes = (
(162,72,l),
(1228,494,l),
(1228,764,l),
(160,1186,l),
(60,930,l),
(808,628,l),
(60,328,l)
);
}
);
width = 1296;
},
{
layerId = "91BCDD27-8050-4636-87E6-61A3BEBF18FE";
shapes = (
{
closed = 1;
nodes = (
(186,160,l),
(1172,556,l),
(1172,737,l),
(185,1135,l),
(114,956,l),
(885,646,l),
(114,339,l)
);
}
);
width = 1296;
},
{
layerId = "37360C82-51D7-4766-8A64-F85284F8610E";
shapes = (
{
closed = 1;
nodes = (
(210,248,l),
(1116,618,l),
(1116,710,l),
(210,1084,l),
(168,982,l),
(962,664,l),
(168,350,l)
);
}
);
width = 1296;
}
);
leftKerningGroup = plus2;
rightKerningGroup = plus;
unicode = 62;
},
{
glyphname = question;
layers = (
{
guides = (
{
position = "{0, 1400}";
}
);
layerId = "B22D72D3-F565-4B82-99AC-51F8C8594089";
shapes = (
{
closed = 1;
nodes = (
(412,495,l),
(257,576,o),
(227,629,o),
(227,699,cs),
(227,815,o),
(313,860,o),
(383,909,cs),
(461,963,ls),
(483,978,o),
(492,1003,o),
(492,1033,cs),
(492,1094,o),
(441,1104,o),
(385,1104,cs),
(286,1104,o),
(218,1073,o),
(134,1030,c),
(60,1354,l),
(133,1431,o),
(379,1470,o),
(500,1470,cs),
(704,1470,o),
(978,1360,o),
(978,1113,cs),
(978,929,o),
(821,873,o),
(712,801,cs),
(600,727,ls),
(585,717,o),
(582,696,o),
(582,673,cs),
(582,639,o),
(598,612,o),
(677,553,c)
);
},
{
closed = 1;
nodes = (
(596,-30,o),
(700,61,o),
(700,195,cs),
(700,328,o),
(598,416,o),
(465,416,cs),
(335,416,o),
(232,331,o),
(232,195,cs),
(232,58,o),
(335,-30,o),
(464,-30,cs)
);
}
);
width = 1052;
},
{
guides = (
{
position = "{0, 1400}";
}
);
layerId = "91BCDD27-8050-4636-87E6-61A3BEBF18FE";
shapes = (
{
closed = 1;
nodes = (
(414,436,l),
(312,493,o),
(242,556,o),
(242,662,cs),
(242,741,o),
(275,820,o),
(360,865,cs),
(509,944,ls),
(579,981,o),
(614,1040,o),
(614,1099,cs),
(614,1197,o),
(509,1229,o),
(401,1229,cs),
(302,1229,o),
(212,1202,o),
(130,1143,c),
(68,1356,l),
(154,1435,o),
(339,1470,o),
(461,1470,cs),
(672,1470,o),
(919,1364,o),
(919,1106,cs),
(919,922,o),
(795,834,o),
(697,789,cs),
(546,720,ls),
(492,695,o),
(469,656,o),
(469,622,cs),
(469,574,o),
(522,531,o),
(587,482,c)
);
},
{
closed = 1;
nodes = (
(537,-30,o),
(613,36,o),
(613,135,cs),
(613,233,o),
(538,297,o),
(441,297,cs),
(345,297,o),
(269,234,o),
(269,135,cs),
(269,36,o),
(346,-30,o),
(442,-30,cs)
);
}
);
width = 1001;
},
{
layerId = "37360C82-51D7-4766-8A64-F85284F8610E";
shapes = (
{
closed = 1;
nodes = (
(416,377,l),
(366,410,o),
(256,482,o),
(256,604,cs),
(256,682,o),
(310,748,o),
(461,839,cs),
(554,895,ls),
(681,971,o),
(736,1042,o),
(736,1129,cs),
(736,1300,o),
(577,1354,o),
(420,1354,cs),
(317,1354,o),
(205,1331,o),
(126,1256,c),
(76,1358,l),
(175,1439,o),
(299,1470,o),
(420,1470,cs),
(640,1470,o),
(860,1368,o),
(860,1139,cs),
(860,1016,o),
(776,912,o),
(576,787,cs),
(475,724,ls),
(390,671,o),
(358,636,o),
(358,592,cs),
(358,508,o),
(445,449,o),
(496,410,c)
);
},
{
closed = 1;
nodes = (
(477,-30,o),
(526,11,o),
(526,74,cs),
(526,137,o),
(477,178,o),
(416,178,cs),
(355,178,o),
(306,137,o),
(306,76,cs),
(306,14,o),
(357,-30,o),
(418,-30,cs)
);
}
);
width = 950;
}
);
unicode = 63;
},
{
glyphname = at;
layers = (
{
layerId = "B22D72D3-F565-4B82-99AC-51F8C8594089";
shapes = (
{
closed = 1;
nodes = (
(996,-234,o),
(1123,-208,o),
(1248,-156,cs),
(1308,-131,o),
(1365,-100,o),
(1418,-64,c),
(1338,116,l),
(1246,48,o),
(1142,2,o),
(1029,-21,cs),
(969,-34,o),
(913,-40,o),
(852,-40,cs),
(739,-40,o),
(640,-17,o),
(552,26,cs),
(464,70,o),
(399,129,o),
(351,209,c),
(302,286,o),
(278,376,o),
(278,480,cs),
(278,648,o),
(338,787,o),
(446,891,cs),
(554,996,o),
(696,1054,o),
(868,1054,cs),
(977,1054,o),
(1068,1035,o),
(1152,994,cs),
(1232,954,o),
(1295,898,o),
(1342,826,cs),
(1387,754,o),
(1410,673,o),
(1410,576,cs),
(1410,476,o),
(1388,407,o),
(1345,374,c),
(1321,354,o),
(1296,346,o),
(1264,346,cs),
(1235,346,o),
(1213,354,o),
(1197,374,cs),
(1184,391,o),
(1175,415,o),
(1178,450,c),
(1200,840,l),
(1014,840,l),
(1012,788,l),
(948,841,o),
(882,866,o),
(802,866,cs),
(730,866,o),
(671,851,o),
(615,818,cs),
(559,785,o),
(519,741,o),
(488,685,cs),
(456,629,o),
(440,564,o),
(440,492,cs),
(440,359,o),
(500,257,o),
(600,197,c),
(652,169,o),
(706,154,o),
(774,154,cs),
(875,154,o),
(946,186,o),
(1018,262,c),
(1062,193,o),
(1140,154,o),
(1244,154,cs),
(1313,154,o),
(1375,172,o),
(1432,211,c),
(1492,250,o),
(1535,300,o),
(1568,364,cs),
(1601,429,o),
(1618,499,o),
(1618,576,cs),
(1618,709,o),
(1589,823,o),
(1525,924,cs),
(1460,1024,o),
(1375,1102,o),
(1262,1159,cs),
(1149,1215,o),
(1023,1242,o),
(874,1242,cs),
(642,1242,o),
(444,1165,o),
(299,1028,cs),
(154,891,o),
(70,706,o),
(70,486,cs),
(70,345,o),
(102,220,o),
(170,112,cs),
(239,4,o),
(327,-82,o),
(447,-142,c),
(567,-206,o),
(700,-234,o),
(856,-234,cs)
);
},
{
closed = 1;
nodes = (
(732,366,o),
(688,414,o),
(688,490,cs),
(688,539,o),
(701,579,o),
(728,608,c),
(752,637,o),
(785,652,o),
(828,652,cs),
(900,652,o),
(942,609,o),
(942,528,cs),
(942,479,o),
(929,440,o),
(905,411,c),
(878,382,o),
(843,366,o),
(800,366,cs)
);
}
);
width = 1688;
},
{
layerId = "91BCDD27-8050-4636-87E6-61A3BEBF18FE";
shapes = (
{
closed = 1;
nodes = (
(1000,-234,o),
(1135,-207,o),
(1256,-158,cs),
(1316,-134,o),
(1368,-104,o),
(1415,-71,c),
(1355,59,l),
(1275,-5,o),
(1169,-51,o),
(1048,-75,cs),
(987,-88,o),
(929,-94,o),
(865,-94,cs),
(740,-94,o),
(635,-69,o),
(539,-21,cs),
(443,28,o),
(373,95,o),
(321,183,cs),
(268,271,o),
(242,368,o),
(242,485,cs),
(242,665,o),
(307,815,o),
(424,928,cs),
(541,1041,o),
(693,1105,o),
(877,1105,cs),
(994,1105,o),
(1095,1083,o),
(1184,1038,cs),
(1272,993,o),
(1340,931,o),
(1391,851,cs),
(1440,771,o),
(1465,682,o),
(1465,574,cs),
(1465,453,o),
(1431,364,o),
(1374,317,cs),
(1345,292,o),
(1312,280,o),
(1275,280,cs),
(1232,280,o),
(1204,291,o),
(1187,315,cs),
(1171,338,o),
(1163,373,o),
(1166,422,cs),
(1189,852,l),
(1046,852,l),
(1043,780,l),
(979,848,o),
(906,878,o),
(817,878,cs),
(749,878,o),
(691,862,o),
(635,827,cs),
(579,792,o),
(539,748,o),
(508,688,cs),
(476,628,o),
(460,563,o),
(460,490,cs),
(460,354,o),
(519,249,o),
(615,188,c),
(664,159,o),
(716,143,o),
(780,143,cs),
(893,143,o),
(980,188,o),
(1044,273,c),
(1073,192,o),
(1145,143,o),
(1258,143,cs),
(1326,143,o),
(1382,161,o),
(1438,200,cs),
(1494,239,o),
(1536,290,o),
(1568,355,cs),
(1600,423,o),
(1616,494,o),
(1616,575,cs),
(1616,708,o),
(1587,822,o),
(1523,923,cs),
(1459,1023,o),
(1375,1101,o),
(1263,1158,cs),
(1151,1214,o),
(1028,1242,o),
(880,1242,cs),
(652,1242,o),
(460,1164,o),
(316,1027,cs),
(172,890,o),
(91,705,o),
(91,485,cs),
(91,341,o),
(123,218,o),
(188,110,c),
(256,2,o),
(341,-83,o),
(458,-143,cs),
(575,-204,o),
(706,-234,o),
(859,-234,cs)
);
},
{
closed = 1;
nodes = (
(695,297,o),
(636,366,o),
(636,487,cs),
(636,560,o),
(654,617,o),
(690,660,cs),
(725,703,o),
(773,723,o),
(834,723,cs),
(942,723,o),
(1001,659,o),
(1001,535,cs),
(1001,459,o),
(984,404,o),
(949,361,cs),
(913,318,o),
(864,297,o),
(803,297,cs)
);
}
);
width = 1707;
},
{
layerId = "37360C82-51D7-4766-8A64-F85284F8610E";
shapes = (
{
closed = 1;
nodes = (
(1006,-234,o),
(1144,-207,o),
(1265,-159,cs),
(1325,-136,o),
(1372,-107,o),
(1412,-78,c),
(1372,2,l),
(1304,-58,o),
(1193,-104,o),
(1068,-128,c),
(1003,-143,o),
(943,-148,o),
(878,-148,cs),
(745,-148,o),
(630,-120,o),
(526,-68,c),
(425,-12,o),
(348,61,o),
(292,158,c),
(232,254,o),
(206,361,o),
(206,490,cs),
(206,682,o),
(277,844,o),
(402,965,cs),
(527,1089,o),
(690,1156,o),
(886,1156,cs),
(1014,1156,o),
(1120,1133,o),
(1217,1082,cs),
(1313,1033,o),
(1384,964,o),
(1440,876,c),
(1493,788,o),
(1520,689,o),
(1520,572,cs),
(1520,431,o),
(1476,321,o),
(1404,261,c),
(1368,229,o),
(1330,214,o),
(1286,214,cs),
(1230,214,o),
(1197,228,o),
(1177,257,c),
(1160,285,o),
(1151,330,o),
(1154,394,cs),
(1178,864,l),
(1078,864,l),
(1074,772,l),
(1010,853,o),
(933,890,o),
(832,890,cs),
(767,890,o),
(708,873,o),
(655,836,cs),
(602,800,o),
(560,752,o),
(529,691,c),
(496,631,o),
(480,564,o),
(480,488,cs),
(480,351,o),
(538,244,o),
(630,179,c),
(678,150,o),
(726,132,o),
(786,132,cs),
(914,132,o),
(1018,188,o),
(1070,284,c),
(1085,191,o),
(1151,132,o),
(1272,132,cs),
(1336,132,o),
(1392,150,o),
(1444,189,cs),
(1496,228,o),
(1539,278,o),
(1568,346,cs),
(1599,415,o),
(1614,489,o),
(1614,574,cs),
(1614,707,o),
(1583,819,o),
(1522,923,c),
(1458,1023,o),
(1373,1101,o),
(1264,1158,cs),
(1156,1214,o),
(1031,1242,o),
(886,1242,cs),
(663,1242,o),
(474,1164,o),
(333,1027,cs),
(192,890,o),
(112,704,o),
(112,484,cs),
(112,340,o),
(142,217,o),
(206,109,cs),
(271,1,o),
(356,-83,o),
(469,-143,cs),
(582,-204,o),
(713,-234,o),
(862,-234,cs)
);
},
{
closed = 1;
nodes = (
(661,228,o),
(584,317,o),
(584,484,cs),
(584,581,o),
(608,656,o),
(653,712,cs),
(697,768,o),
(760,794,o),
(840,794,cs),
(985,794,o),
(1060,709,o),
(1060,542,cs),
(1060,442,o),
(1038,368,o),
(994,312,cs),
(949,256,o),
(886,228,o),
(806,228,cs)
);
}
);
width = 1726;
}
);
rightKerningGroup = at;
unicode = 64;
},
{
glyphname = A;
layers = (
{
layerId = "B22D72D3-F565-4B82-99AC-51F8C8594089";
shapes = (
{
closed = 1;
nodes = (
(0,0,l),
(444,0,l),
(522,250,l),
(964,250,l),
(1042,0,l),
(1498,0,l),
(990,1400,l),
(510,1400,l)
);
},
{
closed = 1;
nodes = (
(608,584,l),
(744,984,l),
(876,584,l)
);
}
);
width = 1498;
},
{
layerId = "91BCDD27-8050-4636-87E6-61A3BEBF18FE";
shapes = (
{
closed = 1;
nodes = (
(18,0,l),
(303,0,l),
(418,317,l),
(981,317,l),
(1100,0,l),
(1393,0,l),
(845,1400,l),
(555,1400,l)
);
},
{
closed = 1;
nodes = (
(482,538,l),
(695,1106,l),
(915,538,l)
);
}
);
width = 1411;
},
{
layerId = "37360C82-51D7-4766-8A64-F85284F8610E";
shapes = (
{
closed = 1;
nodes = (
(36,0,l),
(162,0,l),
(314,384,l),
(998,384,l),
(1158,0,l),
(1288,0,l),
(700,1400,l),
(600,1400,l)
);
},
{
closed = 1;
nodes = (
(356,492,l),
(646,1228,l),
(954,492,l)
);
}
);
width = 1324;
}
);
leftKerningGroup = A2;
rightKerningGroup = A;
unicode = 65;
},
{
glyphname = B;
layers = (
{
layerId = "B22D72D3-F565-4B82-99AC-51F8C8594089";
shapes = (
{
closed = 1;
nodes = (
(156,0,l),
(746,0,ls),
(971,0,o),
(1131,69,o),
(1219,197,c),
(1262,262,o),
(1284,334,o),
(1284,422,cs),
(1284,506,o),
(1263,575,o),
(1220,639,c),
(1175,703,o),
(1118,747,o),
(1042,774,c),
(1079,793,o),
(1111,816,o),
(1138,843,cs),
(1165,870,o),
(1187,897,o),
(1202,932,c),
(1215,967,o),
(1224,1003,o),
(1224,1044,cs),
(1224,1164,o),
(1181,1251,o),
(1093,1311,cs),
(1005,1371,o),
(892,1400,o),
(740,1400,cs),
(156,1400,l)
);
},
{
closed = 1;
nodes = (
(560,290,l),
(560,574,l),
(712,574,ls),
(809,574,o),
(862,520,o),
(862,432,cs),
(862,340,o),
(807,290,o),
(692,290,cs)
);
},
{
closed = 1;
nodes = (
(560,842,l),
(560,1110,l),
(682,1110,ls),
(782,1110,o),
(834,1062,o),
(834,978,cs),
(834,921,o),
(811,879,o),
(767,858,c),
(746,847,o),
(719,842,o),
(688,842,cs)
);
}
);
width = 1354;
},
{
layerId = "91BCDD27-8050-4636-87E6-61A3BEBF18FE";
shapes = (
{
closed = 1;
nodes = (
(178,0,l),
(698,0,ls),
(902,0,o),
(1048,70,o),
(1128,191,cs),
(1167,252,o),
(1187,319,o),
(1187,399,cs),
(1187,488,o),
(1163,562,o),
(1114,626,cs),
(1063,690,o),
(1002,731,o),
(925,755,c),
(962,770,o),
(996,793,o),
(1028,822,cs),
(1060,851,o),
(1086,884,o),
(1106,923,cs),
(1125,962,o),
(1135,1002,o),
(1135,1046,cs),
(1135,1163,o),
(1094,1251,o),
(1010,1311,cs),
(926,1371,o),
(819,1400,o),
(679,1400,cs),
(178,1400,l)
);
},
{
closed = 1;
nodes = (
(438,199,l),
(438,622,l),
(658,622,ls),
(834,622,o),
(918,546,o),
(918,409,cs),
(918,268,o),
(834,199,o),
(657,199,cs)
);
},
{
closed = 1;
nodes = (
(438,810,l),
(438,1201,l),
(637,1201,ls),
(797,1201,o),
(882,1136,o),
(882,1012,cs),
(882,927,o),
(841,866,o),
(769,834,cs),
(733,818,o),
(690,810,o),
(641,810,cs)
);
}
);
width = 1287;
},
{
layerId = "37360C82-51D7-4766-8A64-F85284F8610E";
shapes = (
{
closed = 1;
nodes = (
(200,0,l),
(650,0,ls),
(834,0,o),
(965,72,o),
(1037,185,c),
(1072,245,o),
(1090,304,o),
(1090,376,cs),
(1090,472,o),
(1065,552,o),
(1009,613,cs),
(952,677,o),
(888,716,o),
(808,736,c),
(847,747,o),
(882,770,o),
(919,802,cs),
(956,834,o),
(986,871,o),
(1011,914,c),
(1034,958,o),
(1046,1001,o),
(1046,1048,cs),
(1046,1165,o),
(1007,1251,o),
(927,1311,cs),
(847,1371,o),
(747,1400,o),
(618,1400,cs),
(200,1400,l)
);
},
{
closed = 1;
nodes = (
(316,108,l),
(316,670,l),
(604,670,ls),
(860,670,o),
(974,573,o),
(974,386,cs),
(974,195,o),
(863,108,o),
(622,108,cs)
);
},
{
closed = 1;
nodes = (
(316,778,l),
(316,1292,l),
(592,1292,ls),
(811,1292,o),
(930,1207,o),
(930,1046,cs),
(930,933,o),
(872,853,o),
(771,810,cs),
(722,789,o),
(662,778,o),
(594,778,cs)
);
}
);
width = 1220;
}
);
leftKerningGroup = B2;
rightKerningGroup = B;
unicode = 66;
},
{
glyphname = C;
layers = (
{
layerId = "B22D72D3-F565-4B82-99AC-51F8C8594089";
shapes = (
{
closed = 1;
nodes = (
(944,-30,o),
(1051,-13,o),
(1143,18,cs),
(1236,51,o),
(1312,90,o),
(1376,138,c),
(1192,476,l),
(1084,400,o),
(965,364,o),
(848,364,cs),
(699,364,o),
(592,420,o),
(536,521,cs),
(509,570,o),
(494,628,o),
(494,700,cs),
(494,804,o),
(525,886,o),
(586,946,cs),
(646,1006,o),
(731,1036,o),
(844,1036,cs),
(973,1036,o),
(1076,999,o),
(1148,918,c),
(1346,1250,l),
(1278,1307,o),
(1205,1352,o),
(1125,1384,c),
(1045,1413,o),
(943,1430,o),
(818,1430,cs),
(599,1430,o),
(417,1359,o),
(281,1226,cs),
(145,1093,o),
(70,915,o),
(70,694,cs),
(70,545,o),
(101,418,o),
(166,310,c),
(230,198,o),
(314,119,o),
(427,58,cs),
(540,-2,o),
(667,-30,o),
(812,-30,cs)
);
}
);
width = 1406;
},
{
layerId = "91BCDD27-8050-4636-87E6-61A3BEBF18FE";
shapes = (
{
closed = 1;
nodes = (
(932,-30,o),
(1030,-15,o),
(1118,13,cs),
(1206,42,o),
(1281,82,o),
(1349,134,c),
(1229,353,l),
(1113,261,o),
(986,223,o),
(849,223,cs),
(648,223,o),
(502,299,o),
(422,444,cs),
(383,516,o),
(363,600,o),
(363,701,cs),
(363,850,o),
(408,966,o),
(492,1050,cs),
(576,1134,o),
(691,1178,o),
(840,1178,cs),
(981,1178,o),
(1095,1142,o),
(1179,1058,c),
(1312,1271,l),
(1252,1322,o),
(1182,1361,o),
(1105,1389,c),
(1025,1416,o),
(934,1430,o),
(822,1430,cs),
(607,1430,o),
(430,1358,o),
(297,1225,cs),
(164,1092,o),
(91,915,o),
(91,698,cs),
(91,549,o),
(119,423,o),
(183,314,c),
(244,202,o),
(326,121,o),
(438,60,cs),
(550,0,o),
(674,-30,o),
(819,-30,cs)
);
}
);
width = 1399;
},
{
layerId = "37360C82-51D7-4766-8A64-F85284F8610E";
shapes = (
{
closed = 1;
nodes = (
(923,-30,o),
(1009,-16,o),
(1093,8,c),
(1177,35,o),
(1250,74,o),
(1322,130,c),
(1266,230,l),
(1145,126,o),
(1010,82,o),
(850,82,cs),
(598,82,o),
(409,179,o),
(308,368,cs),
(259,460,o),
(232,569,o),
(232,702,cs),
(232,895,o),
(291,1047,o),
(399,1155,cs),
(504,1263,o),
(652,1320,o),
(836,1320,cs),
(989,1320,o),
(1114,1283,o),
(1210,1198,c),
(1278,1292,l),
(1226,1336,o),
(1162,1370,o),
(1086,1395,c),
(1009,1418,o),
(922,1430,o),
(826,1430,cs),
(617,1430,o),
(442,1358,o),
(313,1225,cs),
(184,1089,o),
(112,917,o),
(112,702,cs),
(112,554,o),
(140,431,o),
(201,319,cs),
(261,206,o),
(341,126,o),
(449,62,c),
(558,2,o),
(681,-30,o),
(826,-30,cs)
);
}
);
width = 1392;
}
);
leftKerningGroup = C2;
rightKerningGroup = C;
unicode = 67;
},
{
glyphname = D;
layers = (
{
layerId = "B22D72D3-F565-4B82-99AC-51F8C8594089";
shapes = (
{
closed = 1;
nodes = (
(156,0,l),
(664,0,ls),
(892,0,o),
(1073,69,o),
(1206,194,cs),
(1339,318,o),
(1410,488,o),
(1410,700,cs),
(1410,841,o),
(1381,962,o),
(1317,1066,cs),
(1253,1171,o),
(1170,1252,o),
(1057,1312,cs),
(941,1372,o),
(813,1400,o),
(664,1400,cs),
(156,1400,l)
);
},
{
closed = 1;
nodes = (
(560,376,l),
(560,1024,l),
(654,1024,ls),
(787,1024,o),
(888,979,o),
(945,883,c),
(972,834,o),
(986,776,o),
(986,700,cs),
(986,591,o),
(954,512,o),
(894,456,c),
(834,403,o),
(755,376,o),
(654,376,cs)
);
}
);
width = 1480;
},
{
layerId = "91BCDD27-8050-4636-87E6-61A3BEBF18FE";
shapes = (
{
closed = 1;
nodes = (
(178,0,l),
(630,0,ls),
(845,0,o),
(1019,71,o),
(1148,196,cs),
(1277,321,o),
(1347,491,o),
(1347,699,cs),
(1347,839,o),
(1317,959,o),
(1256,1064,cs),
(1195,1169,o),
(1112,1251,o),
(1004,1311,cs),
(895,1371,o),
(771,1400,o),
(630,1400,cs),
(178,1400,l)
);
},
{
closed = 1;
nodes = (
(438,242,l),
(438,1158,l),
(606,1158,ls),
(797,1158,o),
(937,1084,o),
(1017,947,cs),
(1056,878,o),
(1075,796,o),
(1075,699,cs),
(1075,554,o),
(1030,443,o),
(946,363,cs),
(862,283,o),
(750,242,o),
(606,242,cs)
);
}
);
width = 1438;
},
{
layerId = "37360C82-51D7-4766-8A64-F85284F8610E";
shapes = (
{
closed = 1;
nodes = (
(200,0,l),
(596,0,ls),
(797,0,o),
(965,74,o),
(1090,199,cs),
(1215,324,o),
(1284,494,o),
(1284,698,cs),
(1284,835,o),
(1255,957,o),
(1195,1062,cs),
(1135,1167,o),
(1056,1250,o),
(952,1310,cs),
(847,1370,o),
(729,1400,o),
(596,1400,cs),
(200,1400,l)
);
},
{
closed = 1;
nodes = (
(316,108,l),
(316,1292,l),
(558,1292,ls),
(806,1292,o),
(989,1192,o),
(1090,1012,c),
(1139,920,o),
(1164,819,o),
(1164,698,cs),
(1164,518,o),
(1106,375,o),
(998,271,cs),
(890,166,o),
(745,108,o),
(558,108,cs)
);
}
);
width = 1396;
}
);
leftKerningGroup = B2;
rightKerningGroup = D;
unicode = 68;
},
{
glyphname = E;
layers = (
{
layerId = "B22D72D3-F565-4B82-99AC-51F8C8594089";
shapes = (
{
closed = 1;
nodes = (
(156,0,l),
(1202,0,l),
(1202,352,l),
(560,352,l),
(560,552,l),
(1080,552,l),
(1080,870,l),
(560,870,l),
(560,1052,l),
(1194,1052,l),
(1194,1400,l),
(156,1400,l)
);
}
);
width = 1306;
},
{
layerId = "91BCDD27-8050-4636-87E6-61A3BEBF18FE";
shapes = (
{
closed = 1;
nodes = (
(178,0,l),
(1116,0,l),
(1116,230,l),
(438,230,l),
(438,620,l),
(1012,620,l),
(1012,833,l),
(438,833,l),
(438,1172,l),
(1109,1172,l),
(1109,1400,l),
(178,1400,l)
);
}
);
width = 1243;
},
{
layerId = "37360C82-51D7-4766-8A64-F85284F8610E";
shapes = (
{
closed = 1;
nodes = (
(200,0,l),
(1030,0,l),
(1030,108,l),
(316,108,l),
(316,688,l),
(944,688,l),
(944,796,l),
(316,796,l),
(316,1292,l),
(1024,1292,l),
(1024,1400,l),
(200,1400,l)
);
}
);
width = 1180;
}
);
leftKerningGroup = B2;
rightKerningGroup = E;
unicode = 69;
},
{
glyphname = F;
layers = (
{
layerId = "B22D72D3-F565-4B82-99AC-51F8C8594089";
shapes = (
{
closed = 1;
nodes = (
(156,0,l),
(560,0,l),
(560,466,l),
(1054,466,l),
(1054,818,l),
(560,818,l),
(560,1032,l),
(1116,1032,l),
(1116,1400,l),
(156,1400,l)
);
}
);
width = 1216;
},
{
layerId = "91BCDD27-8050-4636-87E6-61A3BEBF18FE";
shapes = (
{
closed = 1;
nodes = (
(178,0,l),
(438,0,l),
(438,567,l),
(1001,567,l),
(1001,797,l),
(438,797,l),
(438,1162,l),
(1062,1162,l),
(1062,1400,l),
(178,1400,l)
);
}
);
width = 1174;
},
{
layerId = "37360C82-51D7-4766-8A64-F85284F8610E";
shapes = (
{
closed = 1;
nodes = (
(200,0,l),
(316,0,l),
(316,668,l),
(948,668,l),
(948,776,l),
(316,776,l),
(316,1292,l),
(1008,1292,l),
(1008,1400,l),
(200,1400,l)
);
}
);
width = 1132;
}
);
leftKerningGroup = B2;
rightKerningGroup = F;
unicode = 70;
},
{
glyphname = G;
layers = (
{
layerId = "B22D72D3-F565-4B82-99AC-51F8C8594089";
shapes = (
{
closed = 1;
nodes = (
(920,-30,o),
(974,-25,o),
(1038,-16,cs),
(1099,-8,o),
(1159,7,o),
(1219,23,c),
(1279,42,o),
(1332,61,o),
(1376,84,c),
(1376,838,l),
(760,838,l),
(760,522,l),
(1026,522,l),
(1026,334,l),
(982,326,o),
(933,318,o),
(890,318,cs),
(745,318,o),
(618,371,o),
(542,484,cs),
(505,540,o),
(486,611,o),
(486,696,cs),
(486,816,o),
(522,905,o),
(590,969,cs),
(658,1034,o),
(757,1068,o),
(882,1068,cs),
(1003,1068,o),
(1100,1040,o),
(1192,980,c),
(1358,1291,l),
(1237,1368,o),
(1119,1404,o),
(1006,1419,cs),
(950,1426,o),
(901,1430,o),
(850,1430,cs),
(634,1430,o),
(446,1364,o),
(301,1235,cs),
(153,1106,o),
(70,929,o),
(70,700,cs),
(70,469,o),
(160,289,o),
(309,164,cs),
(457,36,o),
(648,-30,o),
(864,-30,cs)
);
}
);
width = 1512;
},
{
layerId = "91BCDD27-8050-4636-87E6-61A3BEBF18FE";
shapes = (
{
closed = 1;
nodes = (
(923,-30,o),
(975,-25,o),
(1035,-16,cs),
(1095,-7,o),
(1151,8,o),
(1207,25,c),
(1263,44,o),
(1311,64,o),
(1348,88,c),
(1348,762,l),
(780,762,l),
(780,550,l),
(1117,550,l),
(1117,242,l),
(1066,219,o),
(985,198,o),
(889,198,cs),
(682,198,o),
(520,276,o),
(428,425,cs),
(381,501,o),
(359,590,o),
(359,698,cs),
(359,854,o),
(408,975,o),
(496,1060,cs),
(584,1148,o),
(709,1193,o),
(866,1193,cs),
(991,1193,o),
(1106,1162,o),
(1206,1098,c),
(1317,1301,l),
(1221,1369,o),
(1117,1402,o),
(1009,1418,cs),
(956,1426,o),
(906,1430,o),
(855,1430,cs),
(635,1430,o),
(451,1360,o),
(311,1231,cs),
(170,1102,o),
(91,923,o),
(91,698,cs),
(91,473,o),
(174,295,o),
(319,167,cs),
(463,38,o),
(652,-30,o),
(875,-30,cs)
);
}
);
width = 1506;
},
{
layerId = "37360C82-51D7-4766-8A64-F85284F8610E";
shapes = (
{
closed = 1;
nodes = (
(929,-30,o),
(976,-24,o),
(1033,-15,cs),
(1089,-6,o),
(1143,10,o),
(1195,27,c),
(1247,47,o),
(1291,67,o),
(1320,92,c),
(1320,686,l),
(800,686,l),
(800,578,l),
(1208,578,l),
(1208,150,l),
(1152,114,o),
(1037,78,o),
(888,78,cs),
(621,78,o),
(423,179,o),
(314,366,cs),
(258,459,o),
(232,568,o),
(232,700,cs),
(232,893,o),
(294,1043,o),
(402,1151,cs),
(510,1260,o),
(662,1318,o),
(850,1318,cs),
(979,1318,o),
(1112,1284,o),
(1220,1216,c),
(1276,1311,l),
(1204,1368,o),
(1113,1400,o),
(1012,1417,cs),
(961,1426,o),
(912,1430,o),
(860,1430,cs),
(636,1430,o),
(455,1359,o),
(322,1227,cs),
(186,1095,o),
(112,917,o),
(112,696,cs),
(112,477,o),
(190,300,o),
(330,171,c),
(467,39,o),
(657,-30,o),
(886,-30,cs)
);
}
);
width = 1500;
}
);
leftKerningGroup = C2;
rightKerningGroup = G;
unicode = 71;
},
{
glyphname = H;
layers = (
{
layerId = "B22D72D3-F565-4B82-99AC-51F8C8594089";
shapes = (
{
closed = 1;
nodes = (
(156,0,l),
(560,0,l),
(560,538,l),
(1028,538,l),
(1028,0,l),
(1432,0,l),
(1432,1400,l),
(1028,1400,l),
(1028,906,l),
(560,906,l),
(560,1400,l),
(156,1400,l)
);
}
);
width = 1588;
},
{
layerId = "91BCDD27-8050-4636-87E6-61A3BEBF18FE";
shapes = (
{
closed = 1;
nodes = (
(178,0,l),
(438,0,l),
(438,618,l),
(1074,618,l),
(1074,0,l),
(1334,0,l),
(1334,1400,l),
(1074,1400,l),
(1074,856,l),
(438,856,l),
(438,1400,l),
(178,1400,l)
);
}
);
width = 1512;
},
{
layerId = "37360C82-51D7-4766-8A64-F85284F8610E";
shapes = (
{
closed = 1;
nodes = (
(200,0,l),
(316,0,l),
(316,698,l),
(1120,698,l),
(1120,0,l),
(1236,0,l),
(1236,1400,l),
(1120,1400,l),
(1120,806,l),
(316,806,l),
(316,1400,l),
(200,1400,l)
);
}
);
width = 1436;
}
);
leftKerningGroup = B2;
rightKerningGroup = H;
unicode = 72;
},
{
glyphname = I;
layers = (
{
layerId = "B22D72D3-F565-4B82-99AC-51F8C8594089";
shapes = (
{
closed = 1;
nodes = (
(156,0,l),
(560,0,l),
(560,1400,l),
(156,1400,l)
);
}
);
width = 716;
},
{
layerId = "91BCDD27-8050-4636-87E6-61A3BEBF18FE";
shapes = (
{
closed = 1;
nodes = (
(178,0,l),
(438,0,l),
(438,1400,l),
(178,1400,l)
);
}
);
width = 616;
},
{
layerId = "37360C82-51D7-4766-8A64-F85284F8610E";
shapes = (
{
closed = 1;
nodes = (
(200,0,l),
(316,0,l),
(316,1400,l),
(200,1400,l)
);
}
);
width = 516;
}
);
leftKerningGroup = B2;
rightKerningGroup = H;
unicode = 73;
},
{
glyphname = J;
layers = (
{
layerId = "B22D72D3-F565-4B82-99AC-51F8C8594089";
shapes = (
{
closed = 1;
nodes = (
(648,-30,o),
(802,53,o),
(886,201,cs),
(926,273,o),
(946,352,o),
(946,448,cs),
(946,1400,l),
(542,1400,l),
(542,538,ls),
(542,402,o),
(474,338,o),
(366,338,cs),
(290,338,o),
(211,366,o),
(114,418,c),
(1,94,l),
(109,18,o),
(251,-30,o),
(424,-30,cs)
);
}
);
width = 1100;
},
{
layerId = "91BCDD27-8050-4636-87E6-61A3BEBF18FE";
shapes = (
{
closed = 1;
nodes = (
(583,-30,o),
(722,44,o),
(795,177,cs),
(831,242,o),
(849,317,o),
(849,405,cs),
(849,1400,l),
(589,1400,l),
(589,452,ls),
(589,281,o),
(502,208,o),
(346,208,cs),
(266,208,o),
(191,234,o),
(107,281,c),
(26,69,l),
(126,5,o),
(243,-30,o),
(380,-30,cs)
);
}
);
width = 1025;
},
{
layerId = "37360C82-51D7-4766-8A64-F85284F8610E";
shapes = (
{
closed = 1;
nodes = (
(517,-30,o),
(641,34,o),
(705,154,cs),
(736,214,o),
(752,281,o),
(752,362,cs),
(752,1400,l),
(636,1400,l),
(636,366,ls),
(636,162,o),
(530,78,o),
(326,78,cs),
(245,78,o),
(169,103,o),
(100,144,c),
(52,44,l),
(144,-5,o),
(236,-30,o),
(336,-30,cs)
);
}
);
width = 950;
}
);
leftKerningGroup = J2;
rightKerningGroup = J;
unicode = 74;
},
{
glyphname = K;
layers = (
{
layerId = "B22D72D3-F565-4B82-99AC-51F8C8594089";
shapes = (
{
closed = 1;
nodes = (
(156,0,l),
(560,0,l),
(560,312,l),
(684,446,l),
(1014,0,l),
(1532,0,l),
(950,750,l),
(1472,1400,l),
(966,1400,l),
(560,882,l),
(560,1400,l),
(156,1400,l)
);
}
);
width = 1522;
},
{
layerId = "91BCDD27-8050-4636-87E6-61A3BEBF18FE";
shapes = (
{
closed = 1;
nodes = (
(178,0,l),
(438,0,l),
(438,353,l),
(619,565,l),
(1043,0,l),
(1378,0,l),
(790,763,l),
(1304,1400,l),
(982,1400,l),
(438,723,l),
(438,1400,l),
(178,1400,l)
);
}
);
width = 1418;
},
{
layerId = "37360C82-51D7-4766-8A64-F85284F8610E";
shapes = (
{
closed = 1;
nodes = (
(200,0,l),
(316,0,l),
(316,394,l),
(554,684,l),
(1072,0,l),
(1224,0,l),
(630,776,l),
(1136,1400,l),
(998,1400,l),
(316,564,l),
(316,1400,l),
(200,1400,l)
);
}
);
width = 1314;
}
);
leftKerningGroup = B2;
rightKerningGroup = K;
unicode = 75;
},
{
glyphname = L;
layers = (
{
layerId = "B22D72D3-F565-4B82-99AC-51F8C8594089";
shapes = (
{
closed = 1;
nodes = (
(156,0,l),
(1090,0,l),
(1090,368,l),
(560,368,l),
(560,1400,l),
(156,1400,l)
);
}
);
width = 1150;
},
{
layerId = "91BCDD27-8050-4636-87E6-61A3BEBF18FE";
shapes = (
{
closed = 1;
nodes = (
(178,0,l),
(1032,0,l),
(1032,238,l),
(438,238,l),
(438,1400,l),
(178,1400,l)
);
}
);
width = 1102;
},
{
layerId = "37360C82-51D7-4766-8A64-F85284F8610E";
shapes = (
{
closed = 1;
nodes = (
(200,0,l),
(974,0,l),
(974,108,l),
(316,108,l),
(316,1400,l),
(200,1400,l)
);
}
);
width = 1054;
}
);
leftKerningGroup = B2;
rightKerningGroup = L;
unicode = 76;
},
{
glyphname = M;
layers = (
{
layerId = "B22D72D3-F565-4B82-99AC-51F8C8594089";
shapes = (
{
closed = 1;
nodes = (
(156,0,l),
(526,0,l),
(518,892,l),
(448,866,l),
(824,238,l),
(1084,238,l),
(1440,866,l),
(1370,892,l),
(1362,0,l),
(1752,0,l),
(1752,1400,l),
(1364,1400,l),
(888,546,l),
(1050,548,l),
(544,1400,l),
(156,1400,l)
);
}
);
width = 1908;
},
{
layerId = "91BCDD27-8050-4636-87E6-61A3BEBF18FE";
shapes = (
{
closed = 1;
nodes = (
(178,0,l),
(416,0,l),
(412,1060,l),
(369,1043,l),
(832,289,l),
(1015,289,l),
(1467,1043,l),
(1419,1060,l),
(1415,0,l),
(1668,0,l),
(1668,1400,l),
(1420,1400,l),
(885,485,l),
(987,486,l),
(429,1400,l),
(178,1400,l)
);
}
);
width = 1846;
},
{
layerId = "37360C82-51D7-4766-8A64-F85284F8610E";
shapes = (
{
closed = 1;
nodes = (
(200,0,l),
(306,0,l),
(306,1228,l),
(290,1220,l),
(840,340,l),
(946,340,l),
(1494,1220,l),
(1468,1228,l),
(1468,0,l),
(1584,0,l),
(1584,1400,l),
(1476,1400,l),
(882,424,l),
(924,424,l),
(314,1400,l),
(200,1400,l)
);
}
);
width = 1784;
}
);
leftKerningGroup = B2;
rightKerningGroup = H;
unicode = 77;
},
{
glyphname = N;
layers = (
{
layerId = "B22D72D3-F565-4B82-99AC-51F8C8594089";
shapes = (
{
closed = 1;
nodes = (
(156,0,l),
(546,0,l),
(546,764,l),
(1036,0,l),
(1440,0,l),
(1440,1400,l),
(1050,1400,l),
(1050,648,l),
(560,1400,l),
(156,1400,l)
);
}
);
width = 1596;
},
{
layerId = "91BCDD27-8050-4636-87E6-61A3BEBF18FE";
shapes = (
{
closed = 1;
nodes = (
(178,0,l),
(431,0,l),
(431,976,l),
(1094,0,l),
(1346,0,l),
(1346,1400,l),
(1093,1400,l),
(1093,436,l),
(430,1400,l),
(178,1400,l)
);
}
);
width = 1524;
},
{
layerId = "37360C82-51D7-4766-8A64-F85284F8610E";
shapes = (
{
closed = 1;
nodes = (
(200,0,l),
(316,0,l),
(316,1188,l),
(1152,0,l),
(1252,0,l),
(1252,1400,l),
(1136,1400,l),
(1136,224,l),
(300,1400,l),
(200,1400,l)
);
}
);
width = 1452;
}
);
leftKerningGroup = B2;
rightKerningGroup = H;
unicode = 78;
},
{
glyphname = O;
layers = (
{
layerId = "B22D72D3-F565-4B82-99AC-51F8C8594089";
shapes = (
{
closed = 1;
nodes = (
(1046,-30,o),
(1228,47,o),
(1365,180,cs),
(1502,313,o),
(1578,491,o),
(1578,700,cs),
(1578,907,o),
(1502,1085,o),
(1365,1218,cs),
(1228,1351,o),
(1046,1430,o),
(825,1430,cs),
(602,1430,o),
(420,1354,o),
(283,1221,cs),
(146,1088,o),
(70,911,o),
(70,700,cs),
(70,491,o),
(146,313,o),
(283,180,cs),
(420,47,o),
(602,-30,o),
(825,-30,cs)
);
},
{
closed = 1;
nodes = (
(759,348,o),
(702,362,o),
(653,391,cs),
(604,420,o),
(564,460,o),
(537,513,cs),
(509,566,o),
(494,628,o),
(494,700,cs),
(494,808,o),
(526,896,o),
(587,957,c),
(647,1021,o),
(727,1052,o),
(824,1052,cs),
(889,1052,o),
(947,1038,o),
(996,1009,cs),
(1045,980,o),
(1084,940,o),
(1112,887,cs),
(1141,834,o),
(1154,772,o),
(1154,700,cs),
(1154,592,o),
(1123,504,o),
(1063,443,cs),
(1002,383,o),
(921,348,o),
(824,348,cs)
);
}
);
width = 1648;
},
{
layerId = "91BCDD27-8050-4636-87E6-61A3BEBF18FE";
shapes = (
{
closed = 1;
nodes = (
(1046,-30,o),
(1223,47,o),
(1360,180,cs),
(1496,313,o),
(1571,491,o),
(1571,700,cs),
(1571,907,o),
(1496,1085,o),
(1360,1218,cs),
(1223,1351,o),
(1046,1430,o),
(831,1430,cs),
(616,1430,o),
(438,1354,o),
(302,1221,cs),
(166,1088,o),
(91,911,o),
(91,700,cs),
(91,491,o),
(166,313,o),
(302,180,cs),
(438,47,o),
(616,-30,o),
(831,-30,cs)
);
},
{
closed = 1;
nodes = (
(742,215,o),
(665,235,o),
(593,275,cs),
(521,315,o),
(466,371,o),
(425,444,cs),
(384,517,o),
(363,600,o),
(363,700,cs),
(363,849,o),
(410,968,o),
(498,1053,cs),
(583,1138,o),
(698,1185,o),
(831,1185,cs),
(920,1185,o),
(998,1165,o),
(1070,1125,cs),
(1142,1085,o),
(1196,1029,o),
(1237,956,cs),
(1280,883,o),
(1299,800,o),
(1299,700,cs),
(1299,552,o),
(1250,432,o),
(1165,347,c),
(1077,263,o),
(964,215,o),
(831,215,cs)
);
}
);
width = 1662;
},
{
layerId = "37360C82-51D7-4766-8A64-F85284F8610E";
shapes = (
{
closed = 1;
nodes = (
(1046,-30,o),
(1219,47,o),
(1355,180,cs),
(1488,313,o),
(1564,491,o),
(1564,700,cs),
(1564,907,o),
(1488,1085,o),
(1355,1218,cs),
(1219,1351,o),
(1046,1430,o),
(838,1430,cs),
(630,1430,o),
(455,1354,o),
(322,1221,cs),
(189,1088,o),
(112,911,o),
(112,700,cs),
(112,491,o),
(189,313,o),
(322,180,cs),
(455,47,o),
(630,-30,o),
(838,-30,cs)
);
},
{
closed = 1;
nodes = (
(725,82,o),
(625,108,o),
(533,159,cs),
(441,210,o),
(370,282,o),
(314,375,cs),
(258,468,o),
(232,575,o),
(232,700,cs),
(232,889,o),
(297,1040,o),
(410,1149,cs),
(522,1258,o),
(667,1318,o),
(838,1318,cs),
(951,1318,o),
(1052,1292,o),
(1144,1241,cs),
(1236,1190,o),
(1306,1118,o),
(1362,1025,cs),
(1419,932,o),
(1444,825,o),
(1444,700,cs),
(1444,513,o),
(1380,360,o),
(1268,251,cs),
(1155,143,o),
(1009,82,o),
(838,82,cs)
);
}
);
width = 1676;
}
);
leftKerningGroup = C2;
rightKerningGroup = D;
unicode = 79;
},
{
glyphname = P;
layers = (
{
layerId = "B22D72D3-F565-4B82-99AC-51F8C8594089";
shapes = (
{
closed = 1;
nodes = (
(156,0,l),
(560,0,l),
(560,432,l),
(744,432,ls),
(987,432,o),
(1157,507,o),
(1246,655,cs),
(1291,727,o),
(1312,812,o),
(1312,916,cs),
(1312,1123,o),
(1211,1267,o),
(1042,1344,cs),
(957,1381,o),
(863,1400,o),
(754,1400,cs),
(156,1400,l)
);
},
{
closed = 1;
nodes = (
(560,766,l),
(560,1056,l),
(730,1056,ls),
(782,1056,o),
(826,1047,o),
(859,1026,c),
(892,1003,o),
(908,966,o),
(908,910,cs),
(908,802,o),
(841,766,o),
(728,766,cs)
);
}
);
width = 1352;
},
{
layerId = "91BCDD27-8050-4636-87E6-61A3BEBF18FE";
shapes = (
{
closed = 1;
nodes = (
(178,0,l),
(438,0,l),
(438,518,l),
(697,518,ls),
(922,518,o),
(1076,586,o),
(1160,719,cs),
(1201,784,o),
(1221,862,o),
(1221,958,cs),
(1221,1146,o),
(1129,1276,o),
(972,1348,c),
(892,1383,o),
(807,1400,o),
(703,1400,cs),
(178,1400,l)
);
},
{
closed = 1;
nodes = (
(438,739,l),
(438,1174,l),
(698,1174,ls),
(778,1174,o),
(842,1156,o),
(890,1119,cs),
(938,1080,o),
(961,1026,o),
(961,953,cs),
(961,806,o),
(864,739,o),
(696,739,cs)
);
}
);
width = 1286;
},
{
layerId = "37360C82-51D7-4766-8A64-F85284F8610E";
shapes = (
{
closed = 1;
nodes = (
(200,0,l),
(316,0,l),
(316,604,l),
(650,604,ls),
(858,604,o),
(999,664,o),
(1075,784,cs),
(1112,844,o),
(1130,915,o),
(1130,1000,cs),
(1130,1169,o),
(1047,1288,o),
(903,1353,c),
(830,1384,o),
(749,1400,o),
(652,1400,cs),
(200,1400,l)
);
},
{
closed = 1;
nodes = (
(316,712,l),
(316,1292,l),
(666,1292,ls),
(774,1292,o),
(858,1266,o),
(922,1213,c),
(986,1157,o),
(1014,1088,o),
(1014,996,cs),
(1014,811,o),
(888,712,o),
(664,712,cs)
);
}
);
width = 1220;
}
);
leftKerningGroup = B2;
rightKerningGroup = P;
unicode = 80;
},
{
glyphname = Q;
layers = (
{
layerId = "B22D72D3-F565-4B82-99AC-51F8C8594089";
shapes = (
{
closed = 1;
nodes = (
(1016,90,l),
(1472,-211,l),
(1648,127,l),
(1214,406,l)
);
},
{
closed = 1;
nodes = (
(1046,-30,o),
(1228,47,o),
(1365,180,cs),
(1502,313,o),
(1578,491,o),
(1578,700,cs),
(1578,907,o),
(1502,1085,o),
(1365,1218,cs),
(1228,1351,o),
(1046,1430,o),
(825,1430,cs),
(602,1430,o),
(420,1354,o),
(283,1221,cs),
(146,1088,o),
(70,911,o),
(70,700,cs),
(70,491,o),
(146,313,o),
(283,180,cs),
(420,47,o),
(602,-30,o),
(825,-30,cs)
);
},
{
closed = 1;
nodes = (
(759,348,o),
(702,362,o),
(653,391,cs),
(604,420,o),
(564,460,o),
(537,513,cs),
(509,566,o),
(494,628,o),
(494,700,cs),
(494,808,o),
(526,896,o),
(587,957,c),
(647,1021,o),
(727,1052,o),
(824,1052,cs),
(889,1052,o),
(947,1038,o),
(996,1009,cs),
(1045,980,o),
(1084,940,o),
(1112,887,cs),
(1141,834,o),
(1154,772,o),
(1154,700,cs),
(1154,592,o),
(1123,504,o),
(1063,443,cs),
(1002,383,o),
(921,348,o),
(824,348,cs)
);
}
);
width = 1648;
},
{
layerId = "91BCDD27-8050-4636-87E6-61A3BEBF18FE";
shapes = (
{
closed = 1;
nodes = (
(1049,82,l),
(1499,-206,l),
(1614,14,l),
(1186,279,l)
);
},
{
closed = 1;
nodes = (
(1046,-30,o),
(1224,47,o),
(1360,180,cs),
(1495,313,o),
(1571,491,o),
(1571,700,cs),
(1571,907,o),
(1495,1085,o),
(1360,1218,cs),
(1224,1351,o),
(1046,1430,o),
(832,1430,cs),
(616,1430,o),
(438,1354,o),
(303,1221,cs),
(168,1088,o),
(91,911,o),
(91,700,cs),
(91,491,o),
(168,313,o),
(303,180,cs),
(438,47,o),
(616,-30,o),
(832,-30,cs)
);
},
{
closed = 1;
nodes = (
(742,215,o),
(664,235,o),
(593,275,cs),
(523,315,o),
(467,371,o),
(426,444,cs),
(384,517,o),
(363,602,o),
(363,700,cs),
(363,849,o),
(412,968,o),
(499,1053,c),
(585,1140,o),
(697,1185,o),
(831,1185,cs),
(920,1185,o),
(1000,1165,o),
(1070,1125,cs),
(1141,1085,o),
(1195,1029,o),
(1237,956,cs),
(1280,883,o),
(1299,799,o),
(1299,700,cs),
(1299,553,o),
(1252,432,o),
(1166,347,cs),
(1079,263,o),
(965,215,o),
(831,215,cs)
);
}
);
width = 1662;
},
{
layerId = "37360C82-51D7-4766-8A64-F85284F8610E";
shapes = (
{
closed = 1;
nodes = (
(1081,73,l),
(1526,-200,l),
(1580,-100,l),
(1157,151,l)
);
},
{
closed = 1;
nodes = (
(1046,-30,o),
(1219,47,o),
(1355,180,cs),
(1488,313,o),
(1564,491,o),
(1564,700,cs),
(1564,907,o),
(1488,1085,o),
(1355,1218,cs),
(1219,1351,o),
(1046,1430,o),
(838,1430,cs),
(630,1430,o),
(455,1354,o),
(322,1221,cs),
(189,1088,o),
(112,911,o),
(112,700,cs),
(112,491,o),
(189,313,o),
(322,180,cs),
(455,47,o),
(630,-30,o),
(838,-30,cs)
);
},
{
closed = 1;
nodes = (
(725,82,o),
(625,108,o),
(533,159,cs),
(441,210,o),
(370,282,o),
(314,375,cs),
(258,468,o),
(232,575,o),
(232,700,cs),
(232,889,o),
(297,1040,o),
(410,1149,cs),
(522,1258,o),
(667,1318,o),
(838,1318,cs),
(951,1318,o),
(1052,1292,o),
(1144,1241,cs),
(1236,1190,o),
(1306,1118,o),
(1362,1025,cs),
(1419,932,o),
(1444,825,o),
(1444,700,cs),
(1444,513,o),
(1380,360,o),
(1268,251,cs),
(1155,143,o),
(1009,82,o),
(838,82,cs)
);
}
);
width = 1676;
}
);
leftKerningGroup = C2;
unicode = 81;
},
{
glyphname = R;
layers = (
{
layerId = "B22D72D3-F565-4B82-99AC-51F8C8594089";
shapes = (
{
closed = 1;
nodes = (
(156,0,l),
(560,0,l),
(560,482,l),
(638,482,l),
(900,0,l),
(1376,0,l),
(1030,572,l),
(1127,612,o),
(1211,681,o),
(1259,785,cs),
(1282,837,o),
(1294,896,o),
(1294,964,cs),
(1294,1153,o),
(1202,1282,o),
(1038,1350,c),
(954,1383,o),
(862,1400,o),
(750,1400,cs),
(156,1400,l)
);
},
{
closed = 1;
nodes = (
(560,800,l),
(560,1072,l),
(710,1072,ls),
(766,1072,o),
(808,1063,o),
(840,1043,c),
(869,1023,o),
(886,987,o),
(886,936,cs),
(886,885,o),
(869,851,o),
(840,831,c),
(807,810,o),
(764,800,o),
(708,800,cs)
);
}
);
width = 1410;
},
{
layerId = "91BCDD27-8050-4636-87E6-61A3BEBF18FE";
shapes = (
{
closed = 1;
nodes = (
(178,0,l),
(438,0,l),
(438,548,l),
(606,548,l),
(968,0,l),
(1280,0,l),
(873,594,l),
(1006,622,o),
(1110,690,o),
(1167,798,cs),
(1195,851,o),
(1209,912,o),
(1209,981,cs),
(1209,1157,o),
(1128,1282,o),
(980,1350,c),
(904,1383,o),
(820,1400,o),
(720,1400,cs),
(178,1400,l)
);
},
{
closed = 1;
nodes = (
(438,761,l),
(438,1182,l),
(695,1182,ls),
(779,1182,o),
(841,1164,o),
(884,1127,cs),
(925,1090,o),
(947,1036,o),
(947,967,cs),
(947,899,o),
(923,849,o),
(878,814,cs),
(830,778,o),
(766,761,o),
(682,761,cs)
);
}
);
width = 1347;
},
{
layerId = "37360C82-51D7-4766-8A64-F85284F8610E";
shapes = (
{
closed = 1;
nodes = (
(200,0,l),
(316,0,l),
(316,614,l),
(574,614,l),
(1036,0,l),
(1184,0,l),
(716,616,l),
(888,632,o),
(1008,702,o),
(1076,811,c),
(1108,867,o),
(1124,926,o),
(1124,998,cs),
(1124,1162,o),
(1052,1283,o),
(923,1351,c),
(855,1383,o),
(782,1400,o),
(690,1400,cs),
(200,1400,l)
);
},
{
closed = 1;
nodes = (
(316,722,l),
(316,1292,l),
(680,1292,ls),
(793,1292,o),
(876,1267,o),
(929,1211,cs),
(981,1155,o),
(1008,1086,o),
(1008,998,cs),
(1008,913,o),
(977,847,o),
(917,798,cs),
(853,746,o),
(769,722,o),
(656,722,cs)
);
}
);
width = 1284;
}
);
leftKerningGroup = B2;
rightKerningGroup = R;
unicode = 82;
},
{
glyphname = S;
layers = (
{
layerId = "B22D72D3-F565-4B82-99AC-51F8C8594089";
shapes = (
{
closed = 1;
nodes = (
(904,-30,o),
(1079,55,o),
(1175,196,cs),
(1223,268,o),
(1246,347,o),
(1246,440,cs),
(1246,545,o),
(1215,626,o),
(1146,694,c),
(1078,758,o),
(974,813,o),
(818,858,cs),
(716,888,ls),
(621,917,o),
(569,934,o),
(544,955,c),
(533,967,o),
(526,979,o),
(526,996,cs),
(526,1033,o),
(556,1062,o),
(609,1081,c),
(636,1089,o),
(665,1092,o),
(700,1092,cs),
(789,1092,o),
(879,1068,o),
(955,1025,cs),
(991,1005,o),
(1023,980,o),
(1044,952,c),
(1239,1243,l),
(1179,1300,o),
(1102,1345,o),
(1006,1380,c),
(906,1412,o),
(801,1428,o),
(688,1428,cs),
(531,1428,o),
(395,1383,o),
(295,1299,c),
(195,1218,o),
(136,1107,o),
(136,978,cs),
(136,878,o),
(169,793,o),
(234,717,c),
(299,644,o),
(407,585,o),
(560,544,cs),
(664,516,l),
(736,499,o),
(786,479,o),
(813,463,c),
(840,444,o),
(852,421,o),
(852,394,cs),
(852,367,o),
(836,345,o),
(801,330,cs),
(766,315,o),
(721,306,o),
(668,306,cs),
(572,306,o),
(463,335,o),
(370,383,cs),
(325,407,o),
(287,434,o),
(260,466,c),
(74,168,l),
(147,104,o),
(237,55,o),
(342,22,cs),
(447,-13,o),
(555,-30,o),
(668,-30,cs)
);
}
);
width = 1298;
},
{
layerId = "91BCDD27-8050-4636-87E6-61A3BEBF18FE";
shapes = (
{
closed = 1;
nodes = (
(870,-30,o),
(1030,47,o),
(1115,176,cs),
(1158,241,o),
(1178,315,o),
(1178,400,cs),
(1178,500,o),
(1150,577,o),
(1086,641,cs),
(1025,702,o),
(930,752,o),
(793,792,cs),
(651,834,ls),
(522,873,o),
(453,905,o),
(422,948,cs),
(407,969,o),
(399,994,o),
(399,1023,cs),
(399,1103,o),
(445,1156,o),
(525,1187,cs),
(565,1202,o),
(610,1208,o),
(662,1208,cs),
(754,1208,o),
(842,1187,o),
(919,1148,cs),
(956,1129,o),
(990,1107,o),
(1017,1080,c),
(1147,1271,l),
(1091,1319,o),
(1025,1358,o),
(941,1387,cs),
(856,1415,o),
(767,1429,o),
(667,1429,cs),
(518,1429,o),
(390,1389,o),
(297,1313,cs),
(204,1237,o),
(150,1135,o),
(150,1010,cs),
(150,914,o),
(181,836,o),
(242,771,cs),
(303,706,o),
(401,654,o),
(538,615,cs),
(674,576,ls),
(771,549,o),
(838,520,o),
(874,489,cs),
(910,457,o),
(927,418,o),
(927,373,cs),
(927,313,o),
(902,270,o),
(850,239,cs),
(798,208,o),
(730,192,o),
(646,192,cs),
(546,192,o),
(445,216,o),
(353,259,cs),
(309,280,o),
(270,306,o),
(238,335,c),
(113,138,l),
(178,82,o),
(257,42,o),
(353,14,cs),
(449,-15,o),
(545,-30,o),
(645,-30,cs)
);
}
);
width = 1266;
},
{
layerId = "37360C82-51D7-4766-8A64-F85284F8610E";
shapes = (
{
closed = 1;
nodes = (
(838,-30,o),
(980,40,o),
(1056,157,c),
(1093,217,o),
(1110,283,o),
(1110,360,cs),
(1110,456,o),
(1083,529,o),
(1026,589,cs),
(970,646,o),
(888,691,o),
(768,726,cs),
(586,780,ls),
(423,829,o),
(337,877,o),
(300,941,c),
(283,973,o),
(272,1009,o),
(272,1050,cs),
(272,1171,o),
(334,1250,o),
(442,1294,cs),
(495,1315,o),
(555,1324,o),
(624,1324,cs),
(716,1324,o),
(803,1306,o),
(884,1271,cs),
(921,1255,o),
(959,1235,o),
(990,1208,c),
(1056,1300,l),
(1005,1337,o),
(949,1370,o),
(877,1395,c),
(805,1418,o),
(730,1430,o),
(646,1430,cs),
(505,1430,o),
(388,1396,o),
(300,1327,cs),
(212,1259,o),
(164,1166,o),
(164,1042,cs),
(164,954,o),
(193,882,o),
(250,825,cs),
(307,769,o),
(395,722,o),
(516,686,cs),
(684,636,ls),
(808,601,o),
(891,560,o),
(936,516,cs),
(981,471,o),
(1002,416,o),
(1002,352,cs),
(1002,263,o),
(969,196,o),
(900,149,cs),
(831,102,o),
(740,78,o),
(624,78,cs),
(520,78,o),
(425,99,o),
(336,136,c),
(295,155,o),
(253,177,o),
(216,204,c),
(153,108,l),
(210,63,o),
(280,28,o),
(364,7,c),
(448,-17,o),
(534,-30,o),
(622,-30,cs)
);
}
);
width = 1234;
}
);
leftKerningGroup = S2;
rightKerningGroup = S;
unicode = 83;
},
{
glyphname = T;
layers = (
{
layerId = "B22D72D3-F565-4B82-99AC-51F8C8594089";
shapes = (
{
closed = 1;
nodes = (
(390,0,l),
(796,0,l),
(796,1032,l),
(1156,1032,l),
(1156,1400,l),
(30,1400,l),
(30,1032,l),
(390,1032,l)
);
}
);
width = 1186;
},
{
layerId = "91BCDD27-8050-4636-87E6-61A3BEBF18FE";
shapes = (
{
closed = 1;
nodes = (
(437,0,l),
(698,0,l),
(698,1162,l),
(1085,1162,l),
(1085,1400,l),
(50,1400,l),
(50,1162,l),
(437,1162,l)
);
}
);
width = 1135;
},
{
layerId = "37360C82-51D7-4766-8A64-F85284F8610E";
shapes = (
{
closed = 1;
nodes = (
(484,0,l),
(600,0,l),
(600,1292,l),
(1014,1292,l),
(1014,1400,l),
(70,1400,l),
(70,1292,l),
(484,1292,l)
);
}
);
width = 1084;
}
);
leftKerningGroup = T2;
rightKerningGroup = T;
unicode = 84;
},
{
glyphname = U;
layers = (
{
layerId = "B22D72D3-F565-4B82-99AC-51F8C8594089";
shapes = (
{
closed = 1;
nodes = (
(909,-30,o),
(1021,-5,o),
(1114,51,c),
(1206,103,o),
(1276,175,o),
(1323,271,cs),
(1370,367,o),
(1394,471,o),
(1394,596,cs),
(1394,1400,l),
(988,1400,l),
(988,574,ls),
(988,497,o),
(970,443,o),
(931,404,cs),
(895,368,o),
(840,348,o),
(772,348,cs),
(700,348,o),
(649,368,o),
(610,404,c),
(571,443,o),
(554,498,o),
(554,574,cs),
(554,1400,l),
(150,1400,l),
(150,596,ls),
(150,471,o),
(174,365,o),
(221,269,cs),
(268,173,o),
(337,105,o),
(430,49,c),
(523,-4,o),
(635,-30,o),
(772,-30,cs)
);
}
);
width = 1542;
},
{
layerId = "91BCDD27-8050-4636-87E6-61A3BEBF18FE";
shapes = (
{
closed = 1;
nodes = (
(876,-30,o),
(978,-5,o),
(1066,48,cs),
(1151,99,o),
(1216,168,o),
(1259,257,cs),
(1302,346,o),
(1324,443,o),
(1324,556,cs),
(1324,1400,l),
(1063,1400,l),
(1063,553,ls),
(1063,437,o),
(1035,356,o),
(978,299,cs),
(922,243,o),
(844,215,o),
(747,215,cs),
(647,215,o),
(572,243,o),
(515,299,cs),
(458,356,o),
(430,437,o),
(430,553,cs),
(430,1400,l),
(170,1400,l),
(170,556,ls),
(170,443,o),
(192,345,o),
(235,256,cs),
(278,167,o),
(340,99,o),
(428,47,cs),
(516,-5,o),
(618,-30,o),
(747,-30,cs)
);
}
);
width = 1493;
},
{
layerId = "37360C82-51D7-4766-8A64-F85284F8610E";
shapes = (
{
closed = 1;
nodes = (
(844,-30,o),
(939,-6,o),
(1019,46,c),
(1099,94,o),
(1157,160,o),
(1196,244,cs),
(1235,328,o),
(1255,416,o),
(1255,516,cs),
(1255,1400,l),
(1139,1400,l),
(1139,532,ls),
(1139,379,o),
(1102,271,o),
(1025,194,cs),
(949,118,o),
(848,82,o),
(723,82,cs),
(595,82,o),
(497,118,o),
(420,194,cs),
(344,271,o),
(307,379,o),
(307,532,cs),
(307,1400,l),
(191,1400,l),
(191,516,ls),
(191,416,o),
(211,327,o),
(250,243,cs),
(289,159,o),
(346,96,o),
(426,45,cs),
(507,-6,o),
(602,-30,o),
(723,-30,cs)
);
}
);
width = 1444;
}
);
leftKerningGroup = U;
rightKerningGroup = J;
unicode = 85;
},
{
glyphname = V;
layers = (
{
layerId = "B22D72D3-F565-4B82-99AC-51F8C8594089";
shapes = (
{
closed = 1;
nodes = (
(484,0,l),
(954,0,l),
(1458,1400,l),
(1010,1400,l),
(724,504,l),
(438,1400,l),
(-18,1400,l)
);
}
);
width = 1440;
},
{
layerId = "91BCDD27-8050-4636-87E6-61A3BEBF18FE";
shapes = (
{
closed = 1;
nodes = (
(537,0,l),
(822,0,l),
(1342,1400,l),
(1055,1400,l),
(683,340,l),
(299,1400,l),
(6,1400,l)
);
}
);
width = 1348;
},
{
layerId = "37360C82-51D7-4766-8A64-F85284F8610E";
shapes = (
{
closed = 1;
nodes = (
(590,0,l),
(690,0,l),
(1226,1400,l),
(1100,1400,l),
(642,176,l),
(160,1400,l),
(30,1400,l)
);
}
);
width = 1256;
}
);
leftKerningGroup = V2;
rightKerningGroup = V;
unicode = 86;
},
{
glyphname = W;
layers = (
{
layerId = "B22D72D3-F565-4B82-99AC-51F8C8594089";
shapes = (
{
closed = 1;
nodes = (
(448,0,l),
(830,0,l),
(1050,806,l),
(1270,0,l),
(1656,0,l),
(2084,1400,l),
(1678,1400,l),
(1478,618,l),
(1256,1400,l),
(858,1400,l),
(636,618,l),
(436,1400,l),
(20,1400,l)
);
}
);
width = 2104;
},
{
layerId = "91BCDD27-8050-4636-87E6-61A3BEBF18FE";
shapes = (
{
closed = 1;
nodes = (
(465,0,l),
(730,0,l),
(1027,1012,l),
(1321,0,l),
(1588,0,l),
(2010,1400,l),
(1746,1400,l),
(1462,373,l),
(1163,1400,l),
(897,1400,l),
(597,372,l),
(313,1400,l),
(42,1400,l)
);
}
);
width = 2052;
},
{
layerId = "37360C82-51D7-4766-8A64-F85284F8610E";
shapes = (
{
closed = 1;
nodes = (
(482,0,l),
(630,0,l),
(1004,1218,l),
(1372,0,l),
(1520,0,l),
(1936,1400,l),
(1814,1400,l),
(1446,128,l),
(1070,1400,l),
(936,1400,l),
(558,126,l),
(190,1400,l),
(64,1400,l)
);
}
);
width = 2000;
}
);
leftKerningGroup = V2;
rightKerningGroup = V;
unicode = 87;
},
{
glyphname = X;
layers = (
{
layerId = "B22D72D3-F565-4B82-99AC-51F8C8594089";
shapes = (
{
closed = 1;
nodes = (
(14,0,l),
(494,0,l),
(706,402,l),
(918,0,l),
(1410,0,l),
(998,704,l),
(1404,1400,l),
(928,1400,l),
(722,1020,l),
(516,1400,l),
(28,1400,l),
(434,710,l)
);
}
);
width = 1424;
},
{
layerId = "91BCDD27-8050-4636-87E6-61A3BEBF18FE";
shapes = (
{
closed = 1;
nodes = (
(46,0,l),
(351,0,l),
(669,521,l),
(998,0,l),
(1312,0,l),
(857,710,l),
(1300,1400,l),
(997,1400,l),
(680,910,l),
(380,1400,l),
(68,1400,l),
(493,716,l)
);
}
);
width = 1358;
},
{
layerId = "37360C82-51D7-4766-8A64-F85284F8610E";
shapes = (
{
closed = 1;
nodes = (
(78,0,l),
(208,0,l),
(632,640,l),
(1078,0,l),
(1214,0,l),
(716,716,l),
(1196,1400,l),
(1066,1400,l),
(638,800,l),
(244,1400,l),
(108,1400,l),
(552,722,l)
);
}
);
width = 1292;
}
);
leftKerningGroup = X2;
rightKerningGroup = X;
unicode = 88;
},
{
glyphname = Y;
layers = (
{
layerId = "B22D72D3-F565-4B82-99AC-51F8C8594089";
shapes = (
{
closed = 1;
nodes = (
(468,0,l),
(874,0,l),
(874,568,l),
(1362,1400,l),
(924,1400,l),
(678,958,l),
(430,1400,l),
(-20,1400,l),
(468,572,l)
);
}
);
width = 1342;
},
{
layerId = "91BCDD27-8050-4636-87E6-61A3BEBF18FE";
shapes = (
{
closed = 1;
nodes = (
(500,0,l),
(761,0,l),
(761,596,l),
(1254,1400,l),
(967,1400,l),
(636,848,l),
(302,1400,l),
(7,1400,l),
(500,598,l)
);
}
);
width = 1261;
},
{
layerId = "37360C82-51D7-4766-8A64-F85284F8610E";
shapes = (
{
closed = 1;
nodes = (
(532,0,l),
(648,0,l),
(648,624,l),
(1146,1400,l),
(1010,1400,l),
(594,738,l),
(174,1400,l),
(34,1400,l),
(532,624,l)
);
}
);
width = 1180;
}
);
leftKerningGroup = Y2;
rightKerningGroup = Y;
unicode = 89;
},
{
glyphname = Z;
layers = (
{
layerId = "B22D72D3-F565-4B82-99AC-51F8C8594089";
shapes = (
{
closed = 1;
nodes = (
(70,0,l),
(1124,0,l),
(1124,368,l),
(564,368,l),
(1120,1066,l),
(1120,1400,l),
(94,1400,l),
(94,1032,l),
(630,1032,l),
(70,336,l)
);
}
);
width = 1190;
},
{
layerId = "91BCDD27-8050-4636-87E6-61A3BEBF18FE";
shapes = (
{
closed = 1;
nodes = (
(88,0,l),
(1093,0,l),
(1093,238,l),
(405,238,l),
(1087,1184,l),
(1087,1400,l),
(111,1400,l),
(111,1162,l),
(773,1162,l),
(88,217,l)
);
}
);
width = 1173;
},
{
layerId = "37360C82-51D7-4766-8A64-F85284F8610E";
shapes = (
{
closed = 1;
nodes = (
(106,0,l),
(1062,0,l),
(1062,108,l),
(246,108,l),
(1054,1302,l),
(1054,1400,l),
(128,1400,l),
(128,1292,l),
(916,1292,l),
(106,98,l)
);
}
);
width = 1156;
}
);
leftKerningGroup = Z2;
rightKerningGroup = Z;
unicode = 90;
},
{
glyphname = bracketleft;
layers = (
{
layerId = "B22D72D3-F565-4B82-99AC-51F8C8594089";
shapes = (
{
closed = 1;
nodes = (
(150,-220,l),
(666,-220,l),
(666,46,l),
(466,46,l),
(466,1334,l),
(666,1334,l),
(666,1600,l),
(150,1600,l)
);
}
);
width = 732;
},
{
layerId = "91BCDD27-8050-4636-87E6-61A3BEBF18FE";
shapes = (
{
closed = 1;
nodes = (
(187,-220,l),
(599,-220,l),
(599,-39,l),
(395,-39,l),
(395,1419,l),
(599,1419,l),
(599,1600,l),
(187,1600,l)
);
}
);
width = 699;
},
{
layerId = "37360C82-51D7-4766-8A64-F85284F8610E";
shapes = (
{
closed = 1;
nodes = (
(224,-220,l),
(532,-220,l),
(532,-124,l),
(324,-124,l),
(324,1504,l),
(532,1504,l),
(532,1600,l),
(224,1600,l)
);
}
);
width = 666;
}
);
leftKerningGroup = bar2;
rightKerningGroup = parenleft;
unicode = 91;
},
{
glyphname = backslash;
layers = (
{
layerId = "B22D72D3-F565-4B82-99AC-51F8C8594089";
shapes = (
{
closed = 1;
nodes = (
(656,-230,l),
(978,-104,l),
(292,1610,l),
(-30,1484,l)
);
}
);
width = 948;
},
{
layerId = "91BCDD27-8050-4636-87E6-61A3BEBF18FE";
shapes = (
{
closed = 1;
nodes = (
(714,-230,l),
(925,-147,l),
(206,1610,l),
(-5,1527,l)
);
}
);
width = 920;
},
{
layerId = "37360C82-51D7-4766-8A64-F85284F8610E";
shapes = (
{
closed = 1;
nodes = (
(772,-230,l),
(872,-190,l),
(120,1610,l),
(20,1570,l)
);
}
);
width = 892;
}
);
unicode = 92;
},
{
glyphname = bracketright;
layers = (
{
layerId = "B22D72D3-F565-4B82-99AC-51F8C8594089";
shapes = (
{
closed = 1;
nodes = (
(582,-220,l),
(582,1600,l),
(66,1600,l),
(66,1334,l),
(266,1334,l),
(266,46,l),
(66,46,l),
(66,-220,l)
);
}
);
width = 732;
},
{
layerId = "91BCDD27-8050-4636-87E6-61A3BEBF18FE";
shapes = (
{
closed = 1;
nodes = (
(512,-220,l),
(512,1600,l),
(100,1600,l),
(100,1419,l),
(304,1419,l),
(304,-39,l),
(100,-39,l),
(100,-220,l)
);
}
);
width = 699;
},
{
layerId = "37360C82-51D7-4766-8A64-F85284F8610E";
shapes = (
{
closed = 1;
nodes = (
(442,-220,l),
(442,1600,l),
(134,1600,l),
(134,1504,l),
(342,1504,l),
(342,-124,l),
(134,-124,l),
(134,-220,l)
);
}
);
width = 666;
}
);
leftKerningGroup = parenright;
rightKerningGroup = bar;
unicode = 93;
},
{
glyphname = asciicircum;
layers = (
{
layerId = "B22D72D3-F565-4B82-99AC-51F8C8594089";
shapes = (
{
closed = 1;
nodes = (
(130,782,l),
(464,782,l),
(648,1134,l),
(832,782,l),
(1166,782,l),
(830,1400,l),
(466,1400,l)
);
}
);
width = 1296;
},
{
layerId = "91BCDD27-8050-4636-87E6-61A3BEBF18FE";
shapes = (
{
closed = 1;
nodes = (
(175,816,l),
(405,816,l),
(648,1222,l),
(891,816,l),
(1121,816,l),
(771,1400,l),
(525,1400,l)
);
}
);
width = 1296;
},
{
layerId = "37360C82-51D7-4766-8A64-F85284F8610E";
shapes = (
{
closed = 1;
nodes = (
(220,850,l),
(346,850,l),
(648,1310,l),
(950,850,l),
(1076,850,l),
(712,1400,l),
(584,1400,l)
);
}
);
width = 1296;
}
);
leftKerningGroup = plus2;
rightKerningGroup = plus;
unicode = 94;
},
{
glyphname = underscore;
layers = (
{
layerId = "B22D72D3-F565-4B82-99AC-51F8C8594089";
shapes = (
{
closed = 1;
nodes = (
(20,-408,l),
(1120,-408,l),
(1120,-92,l),
(20,-92,l)
);
}
);
width = 1140;
},
{
layerId = "91BCDD27-8050-4636-87E6-61A3BEBF18FE";
shapes = (
{
closed = 1;
nodes = (
(25,-345,l),
(1075,-345,l),
(1075,-141,l),
(25,-141,l)
);
}
);
width = 1100;
},
{
layerId = "37360C82-51D7-4766-8A64-F85284F8610E";
shapes = (
{
closed = 1;
nodes = (
(30,-282,l),
(1030,-282,l),
(1030,-190,l),
(30,-190,l)
);
}
);
width = 1060;
}
);
unicode = 95;
},
{
glyphname = a;
layers = (
{
layerId = "B22D72D3-F565-4B82-99AC-51F8C8594089";
shapes = (
{
closed = 1;
nodes = (
(572,-30,o),
(685,18,o),
(749,102,c),
(749,0,l),
(1089,0,l),
(1089,620,ls),
(1089,837,o),
(992,970,o),
(836,1033,cs),
(756,1065,o),
(671,1080,o),
(571,1080,cs),
(412,1080,o),
(245,1039,o),
(106,954,c),
(205,688,l),
(285,749,o),
(392,780,o),
(501,780,cs),
(609,780,o),
(665,752,o),
(689,701,c),
(704,674,o),
(709,646,o),
(709,614,cs),
(709,402,ls),
(709,330,o),
(676,289,o),
(624,266,c),
(597,255,o),
(569,250,o),
(537,250,cs),
(465,250,o),
(419,275,o),
(419,332,cs),
(419,381,o),
(458,411,o),
(522,423,cs),
(587,435,o),
(671,431,o),
(763,410,c),
(761,648,l),
(530,668,o),
(356,646,o),
(237,587,cs),
(116,526,o),
(57,436,o),
(57,308,cs),
(57,164,o),
(127,63,o),
(239,10,cs),
(295,-17,o),
(355,-30,o),
(423,-30,cs)
);
}
);
width = 1204;
},
{
layerId = "91BCDD27-8050-4636-87E6-61A3BEBF18FE";
shapes = (
{
closed = 1;
nodes = (
(577,-30,o),
(696,22,o),
(764,114,c),
(764,0,l),
(990,0,l),
(990,632,ls),
(990,817,o),
(912,937,o),
(776,996,cs),
(707,1025,o),
(627,1040,o),
(534,1040,cs),
(402,1040,o),
(257,1007,o),
(130,923,c),
(200,740,l),
(289,808,o),
(393,836,o),
(498,836,cs),
(611,836,o),
(682,803,o),
(717,739,c),
(736,707,o),
(744,670,o),
(744,629,cs),
(744,376,ls),
(744,288,o),
(697,225,o),
(621,190,cs),
(582,173,o),
(541,164,o),
(493,164,cs),
(381,164,o),
(315,212,o),
(315,301,cs),
(315,361,o),
(353,405,o),
(433,430,cs),
(513,455,o),
(633,459,o),
(797,434,c),
(793,603,l),
(544,628,o),
(365,606,o),
(249,549,cs),
(132,489,o),
(78,402,o),
(78,289,cs),
(78,156,o),
(141,61,o),
(246,9,cs),
(299,-18,o),
(359,-30,o),
(428,-30,cs)
);
}
);
width = 1126;
},
{
layerId = "37360C82-51D7-4766-8A64-F85284F8610E";
shapes = (
{
closed = 1;
nodes = (
(583,-30,o),
(711,26,o),
(780,126,c),
(780,0,l),
(892,0,l),
(892,644,ls),
(892,799,o),
(832,906,o),
(716,959,cs),
(656,987,o),
(586,1000,o),
(498,1000,cs),
(391,1000,o),
(269,976,o),
(154,892,c),
(196,792,l),
(296,865,o),
(392,892,o),
(496,892,cs),
(616,892,o),
(701,854,o),
(745,778,c),
(769,739,o),
(780,695,o),
(780,644,cs),
(780,350,ls),
(780,246,o),
(719,162,o),
(618,114,cs),
(567,90,o),
(513,78,o),
(449,78,cs),
(300,78,o),
(212,147,o),
(212,271,cs),
(212,339,o),
(248,398,o),
(344,437,cs),
(440,476,o),
(595,489,o),
(832,458,c),
(826,558,l),
(557,590,o),
(375,568,o),
(262,512,cs),
(146,455,o),
(100,371,o),
(100,270,cs),
(100,149,o),
(153,59,o),
(253,8,cs),
(304,-19,o),
(362,-30,o),
(434,-30,cs)
);
}
);
width = 1049;
}
);
leftKerningGroup = a2;
rightKerningGroup = a;
unicode = 97;
},
{
glyphname = b;
layers = (
{
layerId = "B22D72D3-F565-4B82-99AC-51F8C8594089";
shapes = (
{
closed = 1;
nodes = (
(949,-30,o),
(1072,22,o),
(1168,119,cs),
(1260,215,o),
(1314,349,o),
(1314,520,cs),
(1314,628,o),
(1294,718,o),
(1247,803,c),
(1203,887,o),
(1143,950,o),
(1063,999,c),
(982,1046,o),
(896,1070,o),
(792,1070,cs),
(720,1070,o),
(658,1058,o),
(597,1030,cs),
(536,1003,o),
(482,961,o),
(434,900,c),
(526,808,l),
(526,1440,l),
(128,1440,l),
(128,0,l),
(468,0,l),
(468,282,l),
(414,192,l),
(449,103,o),
(525,35,o),
(630,-2,c),
(681,-22,o),
(736,-30,o),
(800,-30,cs)
);
},
{
closed = 1;
nodes = (
(650,310,o),
(589,344,o),
(554,409,c),
(534,440,o),
(526,477,o),
(526,520,cs),
(526,608,o),
(563,672,o),
(624,705,cs),
(656,722,o),
(687,730,o),
(726,730,cs),
(803,730,o),
(866,697,o),
(901,632,c),
(918,603,o),
(926,563,o),
(926,520,cs),
(926,432,o),
(889,371,o),
(828,336,cs),
(799,319,o),
(765,310,o),
(726,310,cs)
);
}
);
width = 1364;
},
{
layerId = "91BCDD27-8050-4636-87E6-61A3BEBF18FE";
shapes = (
{
closed = 1;
nodes = (
(892,-30,o),
(1012,24,o),
(1104,120,cs),
(1193,216,o),
(1244,344,o),
(1244,500,cs),
(1244,600,o),
(1224,688,o),
(1180,769,cs),
(1137,849,o),
(1079,912,o),
(1003,960,cs),
(926,1007,o),
(840,1030,o),
(740,1030,cs),
(652,1030,o),
(579,1013,o),
(514,977,cs),
(449,941,o),
(394,893,o),
(349,829,c),
(404,771,l),
(404,1440,l),
(149,1440,l),
(149,0,l),
(375,0,l),
(375,254,l),
(339,197,l),
(384,108,o),
(460,38,o),
(568,-1,c),
(620,-21,o),
(679,-30,o),
(744,-30,cs)
);
},
{
closed = 1;
nodes = (
(584,194,o),
(494,245,o),
(443,338,c),
(416,383,o),
(404,436,o),
(404,500,cs),
(404,628,o),
(457,720,o),
(546,769,cs),
(591,794,o),
(640,806,o),
(697,806,cs),
(813,806,o),
(902,756,o),
(953,663,cs),
(978,618,o),
(990,564,o),
(990,500,cs),
(990,372,o),
(937,283,o),
(848,232,cs),
(804,207,o),
(754,194,o),
(697,194,cs)
);
}
);
width = 1309;
},
{
layerId = "37360C82-51D7-4766-8A64-F85284F8610E";
shapes = (
{
closed = 1;
nodes = (
(833,-30,o),
(953,26,o),
(1041,122,cs),
(1129,215,o),
(1174,340,o),
(1174,480,cs),
(1174,576,o),
(1156,656,o),
(1113,736,cs),
(1073,812,o),
(1016,874,o),
(944,922,c),
(868,967,o),
(788,990,o),
(688,990,cs),
(584,990,o),
(503,969,o),
(431,924,c),
(362,879,o),
(307,826,o),
(264,758,c),
(282,734,l),
(282,1440,l),
(170,1440,l),
(170,0,l),
(282,0,l),
(282,226,l),
(264,202,l),
(321,113,o),
(399,41,o),
(507,1,c),
(559,-20,o),
(620,-30,o),
(688,-30,cs)
);
},
{
closed = 1;
nodes = (
(516,78,o),
(401,144,o),
(333,268,c),
(298,328,o),
(282,396,o),
(282,480,cs),
(282,647,o),
(351,769,o),
(468,833,cs),
(528,866,o),
(592,882,o),
(668,882,cs),
(821,882,o),
(938,818,o),
(1006,694,cs),
(1039,634,o),
(1054,564,o),
(1054,480,cs),
(1054,313,o),
(988,196,o),
(868,128,cs),
(811,95,o),
(745,78,o),
(668,78,cs)
);
}
);
width = 1254;
}
);
leftKerningGroup = b2;
rightKerningGroup = b;
unicode = 98;
},
{
glyphname = c;
layers = (
{
layerId = "B22D72D3-F565-4B82-99AC-51F8C8594089";
shapes = (
{
closed = 1;
nodes = (
(712,-30,o),
(790,-18,o),
(870,10,c),
(950,34,o),
(1018,69,o),
(1078,114,c),
(926,416,l),
(887,381,o),
(849,355,o),
(806,336,c),
(763,320,o),
(721,310,o),
(674,310,cs),
(602,310,o),
(546,329,o),
(506,366,c),
(463,403,o),
(444,455,o),
(444,520,cs),
(444,609,o),
(481,672,o),
(549,707,c),
(585,722,o),
(624,730,o),
(672,730,cs),
(756,730,o),
(832,702,o),
(900,638,c),
(1070,932,l),
(957,1025,o),
(815,1070,o),
(644,1070,cs),
(473,1070,o),
(330,1013,o),
(222,913,cs),
(113,813,o),
(50,677,o),
(50,520,cs),
(50,416,o),
(76,324,o),
(128,240,cs),
(179,155,o),
(247,90,o),
(335,43,cs),
(423,-5,o),
(519,-30,o),
(632,-30,cs)
);
}
);
width = 1106;
},
{
layerId = "91BCDD27-8050-4636-87E6-61A3BEBF18FE";
shapes = (
{
closed = 1;
nodes = (
(685,-30,o),
(752,-19,o),
(820,6,c),
(888,29,o),
(946,60,o),
(1002,101,c),
(888,295,l),
(856,264,o),
(820,240,o),
(776,221,c),
(732,204,o),
(686,194,o),
(637,194,cs),
(540,194,o),
(463,220,o),
(407,276,cs),
(350,332,o),
(322,405,o),
(322,501,cs),
(322,630,o),
(373,722,o),
(469,771,c),
(517,794,o),
(572,806,o),
(637,806,cs),
(725,806,o),
(804,779,o),
(868,723,c),
(987,916,l),
(887,996,o),
(771,1030,o),
(627,1030,cs),
(466,1030,o),
(327,976,o),
(226,880,cs),
(122,784,o),
(65,653,o),
(65,500,cs),
(65,399,o),
(89,309,o),
(137,229,cs),
(184,148,o),
(247,85,o),
(331,40,cs),
(415,-7,o),
(505,-30,o),
(613,-30,cs)
);
}
);
width = 1048;
},
{
layerId = "37360C82-51D7-4766-8A64-F85284F8610E";
shapes = (
{
closed = 1;
nodes = (
(658,-30,o),
(715,-21,o),
(771,3,c),
(827,23,o),
(877,51,o),
(926,88,c),
(850,174,l),
(825,149,o),
(793,126,o),
(746,106,c),
(701,89,o),
(652,78,o),
(600,78,cs),
(476,78,o),
(381,114,o),
(309,186,cs),
(236,258,o),
(200,357,o),
(200,482,cs),
(200,653,o),
(268,771,o),
(389,836,c),
(450,865,o),
(518,882,o),
(602,882,cs),
(694,882,o),
(779,856,o),
(836,808,c),
(904,900,l),
(820,965,o),
(727,990,o),
(610,990,cs),
(457,990,o),
(327,940,o),
(231,848,cs),
(134,756,o),
(80,629,o),
(80,480,cs),
(80,383,o),
(102,295,o),
(147,219,c),
(190,139,o),
(250,81,o),
(327,38,c),
(404,-7,o),
(493,-30,o),
(594,-30,cs)
);
}
);
width = 991;
}
);
leftKerningGroup = c2;
rightKerningGroup = c;
unicode = 99;
},
{
glyphname = d;
layers = (
{
layerId = "B22D72D3-F565-4B82-99AC-51F8C8594089";
shapes = (
{
closed = 1;
nodes = (
(657,-30,o),
(738,-9,o),
(810,31,c),
(878,72,o),
(926,124,o),
(950,192,c),
(896,282,l),
(896,0,l),
(1236,0,l),
(1236,1440,l),
(836,1440,l),
(836,808,l),
(930,900,l),
(882,961,o),
(829,1003,o),
(769,1030,cs),
(708,1058,o),
(644,1070,o),
(572,1070,cs),
(419,1070,o),
(293,1014,o),
(197,914,c),
(105,814,o),
(50,680,o),
(50,520,cs),
(50,407,o),
(72,311,o),
(119,227,c),
(163,143,o),
(222,82,o),
(302,38,c),
(382,-9,o),
(467,-30,o),
(564,-30,cs)
);
},
{
closed = 1;
nodes = (
(562,310,o),
(501,344,o),
(466,409,c),
(446,440,o),
(438,477,o),
(438,520,cs),
(438,608,o),
(475,672,o),
(536,705,cs),
(568,722,o),
(599,730,o),
(638,730,cs),
(715,730,o),
(778,697,o),
(813,632,c),
(830,603,o),
(838,563,o),
(838,520,cs),
(838,432,o),
(801,371,o),
(740,336,cs),
(711,319,o),
(677,310,o),
(638,310,cs)
);
}
);
width = 1364;
},
{
layerId = "91BCDD27-8050-4636-87E6-61A3BEBF18FE";
shapes = (
{
closed = 1;
nodes = (
(666,-30,o),
(751,-9,o),
(819,32,cs),
(887,73,o),
(937,125,o),
(970,189,c),
(934,247,l),
(934,0,l),
(1160,0,l),
(1160,1440,l),
(904,1440,l),
(904,775,l),
(960,833,l),
(915,897,o),
(860,944,o),
(796,979,cs),
(731,1014,o),
(657,1030,o),
(569,1030,cs),
(420,1030,o),
(298,974,o),
(206,877,cs),
(117,780,o),
(65,649,o),
(65,500,cs),
(65,396,o),
(86,306,o),
(130,226,cs),
(173,146,o),
(231,84,o),
(307,39,cs),
(383,-8,o),
(468,-30,o),
(565,-30,cs)
);
},
{
closed = 1;
nodes = (
(499,194,o),
(409,245,o),
(358,338,c),
(331,383,o),
(319,436,o),
(319,500,cs),
(319,628,o),
(372,720,o),
(461,769,cs),
(506,794,o),
(555,806,o),
(612,806,cs),
(728,806,o),
(817,756,o),
(868,663,cs),
(893,618,o),
(905,564,o),
(905,500,cs),
(905,372,o),
(852,283,o),
(763,232,cs),
(719,207,o),
(669,194,o),
(612,194,cs)
);
}
);
width = 1309;
},
{
layerId = "37360C82-51D7-4766-8A64-F85284F8610E";
shapes = (
{
closed = 1;
nodes = (
(675,-30,o),
(764,-8,o),
(829,33,cs),
(893,74,o),
(949,126,o),
(990,186,c),
(972,212,l),
(972,0,l),
(1084,0,l),
(1084,1440,l),
(972,1440,l),
(972,742,l),
(990,766,l),
(947,834,o),
(892,885,o),
(824,928,cs),
(755,971,o),
(670,990,o),
(566,990,cs),
(421,990,o),
(303,937,o),
(215,841,cs),
(130,745,o),
(80,621,o),
(80,480,cs),
(80,388,o),
(99,302,o),
(142,225,c),
(182,149,o),
(239,88,o),
(312,41,cs),
(388,-7,o),
(469,-30,o),
(566,-30,cs)
);
},
{
closed = 1;
nodes = (
(434,78,o),
(319,144,o),
(251,268,c),
(216,328,o),
(200,396,o),
(200,480,cs),
(200,647,o),
(269,769,o),
(386,833,cs),
(446,866,o),
(510,882,o),
(586,882,cs),
(739,882,o),
(856,818,o),
(924,694,cs),
(957,634,o),
(972,564,o),
(972,480,cs),
(972,313,o),
(906,196,o),
(786,128,cs),
(729,95,o),
(663,78,o),
(586,78,cs)
);
}
);
width = 1254;
}
);
leftKerningGroup = c2;
rightKerningGroup = d;
unicode = 100;
},
{
glyphname = e;
layers = (
{
layerId = "B22D72D3-F565-4B82-99AC-51F8C8594089";
shapes = (
{
closed = 1;
nodes = (
(740,-30,o),
(866,-5,o),
(971,34,c),
(1027,53,o),
(1066,77,o),
(1097,98,c),
(980,362,l),
(927,331,o),
(874,308,o),
(818,293,cs),
(762,278,o),
(704,270,o),
(640,270,cs),
(552,270,o),
(483,296,o),
(443,336,cs),
(423,357,o),
(412,383,o),
(408,408,c),
(1158,408,l),
(1197,601,o),
(1160,758,o),
(1063,882,cs),
(967,1003,o),
(821,1070,o),
(628,1070,cs),
(456,1070,o),
(318,1015,o),
(213,918,c),
(109,818,o),
(50,683,o),
(50,522,cs),
(50,299,o),
(148,132,o),
(327,40,c),
(415,-8,o),
(515,-30,o),
(632,-30,cs)
);
},
{
closed = 1;
nodes = (
(434,668,l),
(437,705,o),
(455,733,o),
(491,757,cs),
(524,780,o),
(565,790,o),
(616,790,cs),
(667,790,o),
(707,780,o),
(736,757,cs),
(768,733,o),
(783,705,o),
(782,668,c)
);
}
);
width = 1223;
},
{
layerId = "91BCDD27-8050-4636-87E6-61A3BEBF18FE";
shapes = (
{
closed = 1;
nodes = (
(707,-30,o),
(814,-9,o),
(907,28,cs),
(955,47,o),
(993,70,o),
(1025,94,c),
(934,273,l),
(889,240,o),
(841,216,o),
(788,199,cs),
(735,182,o),
(681,174,o),
(622,174,cs),
(493,174,o),
(396,220,o),
(344,300,cs),
(319,340,o),
(306,386,o),
(306,438,c),
(1088,438,l),
(1115,610,o),
(1078,752,o),
(990,861,cs),
(902,969,o),
(772,1030,o),
(600,1030,cs),
(443,1030,o),
(314,977,o),
(217,881,cs),
(121,785,o),
(65,655,o),
(65,499,cs),
(65,286,o),
(159,125,o),
(326,37,cs),
(410,-8,o),
(503,-30,o),
(611,-30,cs)
);
},
{
closed = 1;
nodes = (
(321,620,l),
(328,688,o),
(356,739,o),
(407,779,cs),
(456,818,o),
(518,836,o),
(594,836,cs),
(671,836,o),
(730,818,o),
(773,779,cs),
(817,739,o),
(839,688,o),
(840,620,c)
);
}
);
width = 1162;
},
{
layerId = "37360C82-51D7-4766-8A64-F85284F8610E";
shapes = (
{
closed = 1;
nodes = (
(674,-30,o),
(762,-14,o),
(843,22,cs),
(886,41,o),
(921,65,o),
(954,90,c),
(888,184,l),
(853,151,o),
(810,125,o),
(759,106,cs),
(708,87,o),
(656,78,o),
(604,78,cs),
(432,78,o),
(309,147,o),
(245,264,c),
(216,324,o),
(201,391,o),
(204,468,c),
(1018,468,l),
(1033,620,o),
(997,744,o),
(917,841,cs),
(840,937,o),
(724,990,o),
(572,990,cs),
(431,990,o),
(313,937,o),
(221,845,c),
(133,749,o),
(80,625,o),
(80,476,cs),
(80,273,o),
(170,119,o),
(326,35,c),
(403,-9,o),
(490,-30,o),
(590,-30,cs)
);
},
{
closed = 1;
nodes = (
(208,572,l),
(219,672,o),
(256,745,o),
(324,802,cs),
(389,858,o),
(471,882,o),
(572,882,cs),
(677,882,o),
(754,858,o),
(810,802,cs),
(867,745,o),
(895,672,o),
(898,572,c)
);
}
);
width = 1101;
}
);
leftKerningGroup = c2;
rightKerningGroup = b;
unicode = 101;
},
{
glyphname = f;
layers = (
{
layerId = "B22D72D3-F565-4B82-99AC-51F8C8594089";
shapes = (
{
closed = 1;
nodes = (
(204,0,l),
(604,0,l),
(604,728,l),
(846,728,l),
(846,1040,l),
(604,1040,l),
(604,1064,ls),
(604,1089,o),
(612,1108,o),
(632,1123,c),
(649,1138,o),
(673,1144,o),
(706,1144,cs),
(738,1144,o),
(773,1139,o),
(810,1116,c),
(864,1416,l),
(780,1457,o),
(700,1470,o),
(616,1470,cs),
(480,1470,o),
(382,1437,o),
(310,1365,cs),
(238,1293,o),
(204,1203,o),
(204,1086,cs)
);
},
{
closed = 1;
nodes = (
(40,728,l),
(236,728,l),
(236,1040,l),
(40,1040,l)
);
}
);
width = 884;
},
{
layerId = "91BCDD27-8050-4636-87E6-61A3BEBF18FE";
shapes = (
{
closed = 1;
nodes = (
(242,0,l),
(497,0,l),
(497,792,l),
(753,792,l),
(753,1000,l),
(497,1000,l),
(497,1127,ls),
(497,1172,o),
(509,1204,o),
(534,1224,cs),
(558,1244,o),
(588,1253,o),
(628,1253,cs),
(661,1253,o),
(697,1246,o),
(736,1225,c),
(779,1424,l),
(722,1455,o),
(658,1470,o),
(582,1470,cs),
(474,1470,o),
(392,1441,o),
(332,1381,cs),
(272,1321,o),
(242,1243,o),
(242,1139,cs)
);
},
{
closed = 1;
nodes = (
(50,792,l),
(271,792,l),
(271,1000,l),
(50,1000,l)
);
}
);
width = 799;
},
{
layerId = "37360C82-51D7-4766-8A64-F85284F8610E";
shapes = (
{
closed = 1;
nodes = (
(280,0,l),
(390,0,l),
(390,856,l),
(660,856,l),
(660,960,l),
(390,960,l),
(390,1190,ls),
(390,1255,o),
(405,1300,o),
(437,1325,cs),
(468,1350,o),
(503,1362,o),
(550,1362,cs),
(585,1362,o),
(622,1354,o),
(662,1334,c),
(694,1432,l),
(663,1453,o),
(616,1470,o),
(548,1470,cs),
(467,1470,o),
(403,1446,o),
(354,1397,cs),
(306,1348,o),
(280,1280,o),
(280,1192,cs)
);
},
{
closed = 1;
nodes = (
(60,856,l),
(306,856,l),
(306,960,l),
(60,960,l)
);
}
);
width = 714;
}
);
leftKerningGroup = f2;
rightKerningGroup = f;
unicode = 102;
},
{
glyphname = g;
layers = (
{
layerId = "B22D72D3-F565-4B82-99AC-51F8C8594089";
shapes = (
{
closed = 1;
nodes = (
(726,-450,o),
(881,-412,o),
(994,-344,cs),
(1107,-275,o),
(1168,-180,o),
(1168,-72,cs),
(1168,57,o),
(1094,134,o),
(965,175,c),
(901,198,o),
(830,211,o),
(742,218,cs),
(564,234,ls),
(517,238,o),
(489,245,o),
(474,253,c),
(459,264,o),
(452,273,o),
(452,282,cs),
(452,302,o),
(469,316,o),
(509,325,c),
(530,326,o),
(557,331,o),
(592,328,c),
(526,470,l),
(417,475,o),
(323,446,o),
(250,398,cs),
(178,350,o),
(136,289,o),
(136,220,cs),
(136,148,o),
(170,91,o),
(246,44,c),
(154,24,o),
(85,-19,o),
(48,-79,cs),
(29,-110,o),
(20,-139,o),
(20,-172,cs),
(20,-257,o),
(71,-326,o),
(159,-375,c),
(251,-424,o),
(373,-450,o),
(530,-450,cs)
);
},
{
closed = 1;
nodes = (
(498,-208,o),
(426,-193,o),
(387,-168,cs),
(368,-155,o),
(358,-139,o),
(358,-122,cs),
(358,-97,o),
(376,-76,o),
(413,-61,cs),
(430,-54,o),
(451,-49,o),
(476,-46,c),
(678,-62,ls),
(775,-70,o),
(810,-85,o),
(810,-126,cs),
(810,-153,o),
(787,-174,o),
(744,-189,cs),
(707,-201,o),
(658,-208,o),
(594,-208,cs)
);
},
{
closed = 1;
nodes = (
(767,320,o),
(909,392,o),
(989,508,cs),
(1029,564,o),
(1048,627,o),
(1048,696,cs),
(1048,837,o),
(965,953,o),
(820,1021,cs),
(748,1054,o),
(670,1070,o),
(574,1070,cs),
(386,1070,o),
(240,999,o),
(160,886,cs),
(117,826,o),
(98,765,o),
(98,696,cs),
(98,551,o),
(179,438,o),
(324,370,cs),
(397,337,o),
(478,320,o),
(574,320,cs)
);
},
{
closed = 1;
nodes = (
(531,580,o),
(497,592,o),
(469,613,cs),
(440,634,o),
(424,661,o),
(424,696,cs),
(424,743,o),
(454,778,o),
(499,797,c),
(520,808,o),
(546,812,o),
(574,812,cs),
(617,812,o),
(652,801,o),
(680,780,c),
(711,759,o),
(724,731,o),
(724,696,cs),
(724,652,o),
(694,615,o),
(649,595,c),
(628,584,o),
(602,580,o),
(574,580,cs)
);
},
{
closed = 1;
nodes = (
(1228,1040,l),
(574,1040,l),
(677,828,l),
(801,793,o),
(902,768,o),
(986,752,cs),
(1069,736,o),
(1135,728,o),
(1188,728,c)
);
}
);
width = 1250;
},
{
layerId = "91BCDD27-8050-4636-87E6-61A3BEBF18FE";
shapes = (
{
closed = 1;
nodes = (
(714,-450,o),
(854,-414,o),
(955,-351,cs),
(1056,-287,o),
(1112,-200,o),
(1112,-101,cs),
(1112,19,o),
(1046,92,o),
(925,132,c),
(865,155,o),
(796,166,o),
(709,173,cs),
(538,187,ls),
(490,191,o),
(456,200,o),
(432,208,c),
(408,220,o),
(396,234,o),
(396,253,cs),
(396,286,o),
(425,307,o),
(480,322,c),
(509,326,o),
(541,332,o),
(581,329,c),
(529,434,l),
(428,431,o),
(344,406,o),
(279,363,cs),
(216,322,o),
(180,271,o),
(180,210,cs),
(180,143,o),
(218,94,o),
(295,51,c),
(192,30,o),
(122,-14,o),
(83,-74,c),
(64,-105,o),
(55,-135,o),
(55,-170,cs),
(55,-255,o),
(102,-325,o),
(186,-374,cs),
(273,-425,o),
(390,-450,o),
(541,-450,cs)
);
},
{
closed = 1;
nodes = (
(453,-280,o),
(368,-256,o),
(321,-213,cs),
(298,-192,o),
(286,-167,o),
(286,-139,cs),
(286,-92,o),
(315,-56,o),
(374,-33,cs),
(402,-22,o),
(434,-14,o),
(474,-11,c),
(660,-25,ls),
(807,-36,o),
(871,-68,o),
(871,-136,cs),
(871,-180,o),
(844,-215,o),
(788,-242,cs),
(736,-267,o),
(664,-280,o),
(572,-280,cs)
);
},
{
closed = 1;
nodes = (
(737,315,o),
(870,383,o),
(947,494,c),
(987,546,o),
(1004,606,o),
(1004,673,cs),
(1004,809,o),
(924,919,o),
(788,983,cs),
(721,1015,o),
(649,1030,o),
(562,1030,cs),
(391,1030,o),
(256,963,o),
(179,855,cs),
(138,799,o),
(119,741,o),
(119,673,cs),
(119,536,o),
(199,428,o),
(334,363,cs),
(403,331,o),
(477,315,o),
(562,315,cs)
);
},
{
closed = 1;
nodes = (
(498,499,o),
(447,517,o),
(408,548,cs),
(367,580,o),
(345,621,o),
(345,673,cs),
(345,744,o),
(386,796,o),
(451,825,c),
(482,840,o),
(519,847,o),
(562,847,cs),
(627,847,o),
(679,831,o),
(718,799,c),
(761,768,o),
(779,725,o),
(779,673,cs),
(779,605,o),
(739,552,o),
(674,521,cs),
(643,506,o),
(606,499,o),
(562,499,cs)
);
},
{
closed = 1;
nodes = (
(1144,792,l),
(1175,1000,l),
(620,1000,l),
(682,867,l),
(782,842,o),
(864,822,o),
(934,810,cs),
(1004,798,o),
(1061,792,o),
(1114,792,cs)
);
}
);
width = 1209;
},
{
layerId = "37360C82-51D7-4766-8A64-F85284F8610E";
shapes = (
{
closed = 1;
nodes = (
(701,-450,o),
(827,-415,o),
(916,-358,c),
(1005,-298,o),
(1056,-218,o),
(1056,-130,cs),
(1056,-22,o),
(998,49,o),
(885,89,c),
(829,110,o),
(761,123,o),
(676,128,cs),
(512,140,ls),
(463,144,o),
(423,154,o),
(390,163,c),
(357,175,o),
(340,195,o),
(340,224,cs),
(340,269,o),
(383,299,o),
(451,318,c),
(487,326,o),
(525,331,o),
(570,330,c),
(532,398,l),
(439,387,o),
(364,363,o),
(308,328,c),
(255,293,o),
(224,252,o),
(224,200,cs),
(224,139,o),
(264,94,o),
(344,58,c),
(231,35,o),
(157,-8,o),
(118,-68,c),
(99,-100,o),
(90,-131,o),
(90,-168,cs),
(90,-253,o),
(133,-323,o),
(213,-372,cs),
(294,-423,o),
(407,-450,o),
(552,-450,cs)
);
},
{
closed = 1;
nodes = (
(409,-352,o),
(311,-318,o),
(255,-258,cs),
(228,-229,o),
(214,-195,o),
(214,-156,cs),
(214,-87,o),
(254,-35,o),
(334,-4,cs),
(373,11,o),
(416,21,o),
(472,24,c),
(642,12,ls),
(838,-1,o),
(932,-53,o),
(932,-146,cs),
(932,-206,o),
(900,-255,o),
(832,-294,cs),
(764,-333,o),
(671,-352,o),
(550,-352,cs)
);
},
{
closed = 1;
nodes = (
(703,310,o),
(829,375,o),
(905,479,c),
(944,528,o),
(960,586,o),
(960,650,cs),
(960,779,o),
(881,884,o),
(756,945,cs),
(695,976,o),
(627,990,o),
(550,990,cs),
(398,990,o),
(273,927,o),
(197,823,cs),
(158,771,o),
(140,714,o),
(140,650,cs),
(140,521,o),
(219,417,o),
(344,356,cs),
(408,325,o),
(474,310,o),
(550,310,cs)
);
},
{
closed = 1;
nodes = (
(465,418,o),
(397,442,o),
(346,483,cs),
(293,526,o),
(266,581,o),
(266,650,cs),
(266,743,o),
(317,814,o),
(402,853,cs),
(443,872,o),
(493,882,o),
(550,882,cs),
(638,882,o),
(705,861,o),
(756,818,c),
(809,777,o),
(834,719,o),
(834,650,cs),
(834,558,o),
(784,486,o),
(699,447,cs),
(658,428,o),
(610,418,o),
(550,418,cs)
);
},
{
closed = 1;
nodes = (
(1100,856,l),
(1122,960,l),
(666,960,l),
(686,906,l),
(762,889,o),
(824,876,o),
(880,868,cs),
(936,860,o),
(987,856,o),
(1040,856,cs)
);
}
);
width = 1168;
}
);
leftKerningGroup = g2;
rightKerningGroup = g;
unicode = 103;
},
{
glyphname = h;
layers = (
{
layerId = "B22D72D3-F565-4B82-99AC-51F8C8594089";
shapes = (
{
closed = 1;
nodes = (
(128,0,l),
(528,0,l),
(528,534,ls),
(528,610,o),
(552,663,o),
(597,690,cs),
(621,705,o),
(650,713,o),
(686,710,c),
(739,710,o),
(778,693,o),
(807,661,c),
(834,629,o),
(848,586,o),
(848,534,cs),
(848,0,l),
(1248,0,l),
(1248,646,ls),
(1248,722,o),
(1233,793,o),
(1200,857,cs),
(1165,921,o),
(1117,975,o),
(1052,1012,cs),
(984,1052,o),
(904,1070,o),
(804,1070,cs),
(728,1070,o),
(661,1056,o),
(601,1021,c),
(540,989,o),
(488,948,o),
(444,896,c),
(528,794,l),
(528,1440,l),
(128,1440,l)
);
}
);
width = 1366;
},
{
layerId = "91BCDD27-8050-4636-87E6-61A3BEBF18FE";
shapes = (
{
closed = 1;
nodes = (
(149,0,l),
(405,0,l),
(405,552,ls),
(405,652,o),
(445,727,o),
(517,766,c),
(552,787,o),
(592,797,o),
(639,796,c),
(711,796,o),
(764,775,o),
(805,734,cs),
(845,693,o),
(865,641,o),
(865,573,cs),
(865,0,l),
(1121,0,l),
(1121,646,ls),
(1121,711,o),
(1107,772,o),
(1076,832,cs),
(1044,892,o),
(999,939,o),
(938,975,cs),
(877,1012,o),
(800,1030,o),
(708,1030,cs),
(636,1030,o),
(572,1016,o),
(511,984,c),
(447,953,o),
(396,909,o),
(352,849,c),
(405,789,l),
(405,1440,l),
(149,1440,l)
);
}
);
width = 1260;
},
{
layerId = "37360C82-51D7-4766-8A64-F85284F8610E";
shapes = (
{
closed = 1;
nodes = (
(170,0,l),
(282,0,l),
(282,570,ls),
(282,698,o),
(341,793,o),
(437,842,c),
(484,870,o),
(535,883,o),
(592,882,c),
(681,883,o),
(748,858,o),
(804,807,cs),
(856,758,o),
(882,693,o),
(882,612,cs),
(882,0,l),
(994,0,l),
(994,646,ls),
(994,702,o),
(981,755,o),
(953,807,c),
(922,860,o),
(881,905,o),
(824,938,c),
(768,974,o),
(696,990,o),
(612,990,cs),
(547,990,o),
(486,978,o),
(422,947,c),
(357,919,o),
(304,871,o),
(260,802,c),
(282,784,l),
(282,1440,l),
(170,1440,l)
);
}
);
width = 1154;
}
);
leftKerningGroup = b2;
rightKerningGroup = a;
unicode = 104;
},
{
glyphname = k;
layers = (
{
layerId = "B22D72D3-F565-4B82-99AC-51F8C8594089";
shapes = (
{
closed = 1;
nodes = (
(128,0,l),
(528,0,l),
(528,276,l),
(588,344,l),
(788,0,l),
(1258,0,l),
(878,606,l),
(1240,1040,l),
(780,1040,l),
(528,744,l),
(528,1440,l),
(128,1440,l)
);
}
);
width = 1272;
},
{
layerId = "91BCDD27-8050-4636-87E6-61A3BEBF18FE";
shapes = (
{
closed = 1;
nodes = (
(149,0,l),
(405,0,l),
(405,316,l),
(529,443,l),
(807,0,l),
(1112,0,l),
(715,610,l),
(1067,1000,l),
(767,1000,l),
(405,619,l),
(405,1440,l),
(149,1440,l)
);
}
);
width = 1149;
},
{
layerId = "37360C82-51D7-4766-8A64-F85284F8610E";
shapes = (
{
closed = 1;
nodes = (
(170,0,l),
(282,0,l),
(282,356,l),
(470,542,l),
(826,0,l),
(966,0,l),
(552,614,l),
(894,960,l),
(754,960,l),
(282,494,l),
(282,1440,l),
(170,1440,l)
);
}
);
width = 1026;
}
);
leftKerningGroup = b2;
rightKerningGroup = k;
unicode = 107;
},
{
glyphname = l;
layers = (
{
layerId = "B22D72D3-F565-4B82-99AC-51F8C8594089";
shapes = (
{
closed = 1;
nodes = (
(584,-28,o),
(664,-15,o),
(748,8,c),
(700,322,l),
(671,314,o),
(643,306,o),
(618,306,cs),
(591,306,o),
(569,314,o),
(552,333,c),
(537,353,o),
(528,383,o),
(528,426,cs),
(528,1440,l),
(128,1440,l),
(128,384,ls),
(128,191,o),
(191,76,o),
(311,16,c),
(367,-15,o),
(436,-28,o),
(512,-28,cs)
);
}
);
width = 770;
},
{
layerId = "91BCDD27-8050-4636-87E6-61A3BEBF18FE";
shapes = (
{
closed = 1;
nodes = (
(508,-28,o),
(574,-14,o),
(642,7,c),
(602,214,l),
(569,202,o),
(537,193,o),
(509,193,cs),
(473,193,o),
(447,203,o),
(430,226,cs),
(414,249,o),
(405,285,o),
(405,341,cs),
(405,1440,l),
(149,1440,l),
(149,282,ls),
(149,137,o),
(201,49,o),
(293,5,c),
(337,-18,o),
(388,-28,o),
(448,-28,cs)
);
}
);
width = 678;
},
{
layerId = "37360C82-51D7-4766-8A64-F85284F8610E";
shapes = (
{
closed = 1;
nodes = (
(432,-28,o),
(488,-13,o),
(536,6,c),
(504,106,l),
(467,91,o),
(432,80,o),
(400,80,cs),
(356,80,o),
(327,92,o),
(308,119,c),
(292,146,o),
(282,191,o),
(282,256,cs),
(282,1440,l),
(170,1440,l),
(170,180,ls),
(170,84,o),
(208,23,o),
(276,-6,c),
(307,-21,o),
(344,-28,o),
(384,-28,cs)
);
}
);
width = 587;
}
);
leftKerningGroup = b2;
rightKerningGroup = d;
unicode = 108;
},
{
glyphname = m;
layers = (
{
layerId = "B22D72D3-F565-4B82-99AC-51F8C8594089";
shapes = (
{
closed = 1;
nodes = (
(128,0,l),
(528,0,l),
(528,586,ls),
(528,631,o),
(552,670,o),
(596,693,c),
(619,704,o),
(644,710,o),
(672,710,cs),
(720,710,o),
(754,696,o),
(781,667,c),
(805,638,o),
(818,599,o),
(818,548,cs),
(818,0,l),
(1218,0,l),
(1218,586,ls),
(1218,631,o),
(1242,670,o),
(1286,693,c),
(1309,704,o),
(1334,710,o),
(1362,710,cs),
(1410,710,o),
(1444,696,o),
(1471,667,c),
(1495,638,o),
(1508,599,o),
(1508,548,cs),
(1508,0,l),
(1908,0,l),
(1908,662,ls),
(1908,735,o),
(1895,800,o),
(1874,861,c),
(1849,925,o),
(1810,975,o),
(1750,1012,c),
(1690,1052,o),
(1612,1070,o),
(1508,1070,cs),
(1427,1070,o),
(1351,1053,o),
(1282,1024,c),
(1213,991,o),
(1163,947,o),
(1128,886,c),
(1109,946,o),
(1075,990,o),
(1019,1022,cs),
(963,1054,o),
(902,1070,o),
(830,1070,cs),
(754,1070,o),
(676,1046,o),
(612,1003,c),
(579,979,o),
(552,952,o),
(528,920,c),
(528,1040,l),
(128,1040,l)
);
}
);
width = 2026;
},
{
layerId = "91BCDD27-8050-4636-87E6-61A3BEBF18FE";
shapes = (
{
closed = 1;
nodes = (
(149,0,l),
(405,0,l),
(405,578,ls),
(405,663,o),
(447,731,o),
(516,768,cs),
(551,787,o),
(589,796,o),
(632,796,cs),
(700,796,o),
(750,777,o),
(786,737,cs),
(821,697,o),
(838,645,o),
(838,580,cs),
(838,0,l),
(1094,0,l),
(1094,578,ls),
(1094,663,o),
(1136,731,o),
(1205,768,cs),
(1240,787,o),
(1278,796,o),
(1321,796,cs),
(1389,796,o),
(1439,777,o),
(1475,737,cs),
(1510,697,o),
(1527,645,o),
(1527,580,cs),
(1527,0,l),
(1783,0,l),
(1783,654,ls),
(1783,718,o),
(1771,777,o),
(1748,834,cs),
(1723,894,o),
(1684,939,o),
(1628,975,cs),
(1572,1012,o),
(1500,1030,o),
(1404,1030,cs),
(1335,1030,o),
(1269,1016,o),
(1201,989,c),
(1133,960,o),
(1080,914,o),
(1033,842,c),
(1012,898,o),
(977,943,o),
(921,978,cs),
(865,1013,o),
(801,1030,o),
(721,1030,cs),
(641,1030,o),
(564,1007,o),
(496,960,cs),
(461,935,o),
(432,904,o),
(405,867,c),
(405,1000,l),
(149,1000,l)
);
}
);
width = 1922;
},
{
layerId = "37360C82-51D7-4766-8A64-F85284F8610E";
shapes = (
{
closed = 1;
nodes = (
(170,0,l),
(282,0,l),
(282,570,ls),
(282,698,o),
(340,792,o),
(436,843,c),
(484,870,o),
(536,882,o),
(592,882,cs),
(681,882,o),
(745,859,o),
(792,808,c),
(836,757,o),
(858,693,o),
(858,612,cs),
(858,0,l),
(970,0,l),
(970,570,ls),
(970,698,o),
(1028,792,o),
(1124,843,c),
(1172,870,o),
(1224,882,o),
(1280,882,cs),
(1369,882,o),
(1433,859,o),
(1480,808,c),
(1524,757,o),
(1546,693,o),
(1546,612,cs),
(1546,0,l),
(1658,0,l),
(1658,646,ls),
(1658,702,o),
(1646,755,o),
(1623,807,c),
(1596,863,o),
(1559,905,o),
(1506,938,c),
(1453,974,o),
(1385,990,o),
(1300,990,cs),
(1244,990,o),
(1184,978,o),
(1120,955,c),
(1056,928,o),
(998,879,o),
(938,798,c),
(914,851,o),
(877,898,o),
(824,934,cs),
(771,971,o),
(701,990,o),
(612,990,cs),
(531,990,o),
(453,967,o),
(381,918,c),
(345,890,o),
(313,857,o),
(282,814,c),
(282,960,l),
(170,960,l)
);
}
);
width = 1818;
}
);
leftKerningGroup = m;
rightKerningGroup = a;
unicode = 109;
},
{
glyphname = n;
layers = (
{
layerId = "B22D72D3-F565-4B82-99AC-51F8C8594089";
shapes = (
{
closed = 1;
nodes = (
(128,0,l),
(528,0,l),
(528,536,ls),
(528,605,o),
(555,658,o),
(602,689,c),
(627,702,o),
(657,710,o),
(690,710,cs),
(746,710,o),
(784,697,o),
(811,665,cs),
(835,636,o),
(848,592,o),
(848,536,cs),
(848,0,l),
(1248,0,l),
(1248,662,ls),
(1248,735,o),
(1235,800,o),
(1204,861,cs),
(1172,925,o),
(1127,975,o),
(1062,1012,c),
(998,1052,o),
(917,1070,o),
(816,1070,cs),
(760,1070,o),
(708,1060,o),
(657,1040,cs),
(606,1019,o),
(564,987,o),
(528,944,c),
(528,1040,l),
(128,1040,l)
);
}
);
width = 1366;
},
{
layerId = "91BCDD27-8050-4636-87E6-61A3BEBF18FE";
shapes = (
{
closed = 1;
nodes = (
(149,0,l),
(405,0,l),
(405,553,ls),
(405,650,o),
(447,725,o),
(519,766,cs),
(555,786,o),
(596,796,o),
(641,796,cs),
(713,796,o),
(767,777,o),
(807,736,cs),
(846,696,o),
(865,642,o),
(865,574,cs),
(865,0,l),
(1121,0,l),
(1121,654,ls),
(1121,718,o),
(1107,777,o),
(1078,834,cs),
(1047,894,o),
(1004,939,o),
(943,975,c),
(883,1012,o),
(807,1030,o),
(714,1030,cs),
(655,1030,o),
(601,1018,o),
(546,995,cs),
(491,971,o),
(445,933,o),
(405,880,c),
(405,1000,l),
(149,1000,l)
);
}
);
width = 1260;
},
{
layerId = "37360C82-51D7-4766-8A64-F85284F8610E";
shapes = (
{
closed = 1;
nodes = (
(170,0,l),
(282,0,l),
(282,570,ls),
(282,698,o),
(343,791,o),
(436,844,c),
(484,869,o),
(536,882,o),
(592,882,cs),
(681,882,o),
(751,859,o),
(804,807,cs),
(856,758,o),
(882,692,o),
(882,612,cs),
(882,0,l),
(994,0,l),
(994,646,ls),
(994,702,o),
(981,755,o),
(953,807,cs),
(922,863,o),
(884,905,o),
(824,938,c),
(768,974,o),
(700,990,o),
(612,990,cs),
(552,990,o),
(495,977,o),
(436,950,cs),
(376,923,o),
(326,879,o),
(282,816,c),
(282,960,l),
(170,960,l)
);
}
);
width = 1154;
}
);
leftKerningGroup = m;
rightKerningGroup = a;
unicode = 110;
},
{
glyphname = o;
layers = (
{
layerId = "B22D72D3-F565-4B82-99AC-51F8C8594089";
shapes = (
{
closed = 1;
nodes = (
(817,-30,o),
(959,33,o),
(1064,137,cs),
(1168,242,o),
(1226,375,o),
(1226,520,cs),
(1226,621,o),
(1201,711,o),
(1152,795,cs),
(1103,880,o),
(1034,946,o),
(946,995,cs),
(854,1047,o),
(758,1070,o),
(638,1070,cs),
(462,1070,o),
(319,1008,o),
(215,904,cs),
(110,799,o),
(50,665,o),
(50,520,cs),
(50,420,o),
(74,330,o),
(126,245,c),
(175,161,o),
(241,95,o),
(333,46,c),
(421,-6,o),
(521,-30,o),
(638,-30,cs)
);
},
{
closed = 1;
nodes = (
(562,310,o),
(501,344,o),
(466,409,c),
(446,440,o),
(438,477,o),
(438,520,cs),
(438,608,o),
(475,672,o),
(536,705,cs),
(568,722,o),
(599,730,o),
(638,730,cs),
(715,730,o),
(778,697,o),
(813,632,c),
(830,603,o),
(838,563,o),
(838,520,cs),
(838,432,o),
(801,371,o),
(740,336,cs),
(711,319,o),
(677,310,o),
(638,310,cs)
);
}
);
width = 1276;
},
{
layerId = "91BCDD27-8050-4636-87E6-61A3BEBF18FE";
shapes = (
{
closed = 1;
nodes = (
(773,-30,o),
(906,29,o),
(1006,129,cs),
(1103,229,o),
(1159,356,o),
(1159,500,cs),
(1159,597,o),
(1136,685,o),
(1089,765,cs),
(1042,846,o),
(977,910,o),
(896,958,cs),
(812,1007,o),
(720,1030,o),
(612,1030,cs),
(451,1030,o),
(317,972,o),
(220,872,cs),
(120,772,o),
(65,644,o),
(65,500,cs),
(65,404,o),
(88,316,o),
(136,235,cs),
(183,155,o),
(246,91,o),
(330,43,c),
(411,-6,o),
(504,-30,o),
(612,-30,cs)
);
},
{
closed = 1;
nodes = (
(499,194,o),
(409,245,o),
(358,338,c),
(331,383,o),
(319,436,o),
(319,500,cs),
(319,628,o),
(372,720,o),
(461,769,cs),
(506,794,o),
(555,806,o),
(612,806,cs),
(728,806,o),
(817,756,o),
(868,663,cs),
(893,618,o),
(905,564,o),
(905,500,cs),
(905,372,o),
(852,283,o),
(763,232,cs),
(719,207,o),
(669,194,o),
(612,194,cs)
);
}
);
width = 1224;
},
{
layerId = "37360C82-51D7-4766-8A64-F85284F8610E";
shapes = (
{
closed = 1;
nodes = (
(734,-30,o),
(857,28,o),
(949,121,cs),
(1041,217,o),
(1092,339,o),
(1092,480,cs),
(1092,576,o),
(1070,659,o),
(1026,735,c),
(983,815,o),
(923,876,o),
(847,921,cs),
(767,969,o),
(686,990,o),
(586,990,cs),
(441,990,o),
(318,934,o),
(226,841,cs),
(134,745,o),
(80,621,o),
(80,480,cs),
(80,388,o),
(102,305,o),
(147,225,cs),
(191,149,o),
(248,86,o),
(328,41,c),
(404,-7,o),
(490,-30,o),
(586,-30,cs)
);
},
{
closed = 1;
nodes = (
(434,78,o),
(319,144,o),
(251,268,c),
(216,328,o),
(200,396,o),
(200,480,cs),
(200,647,o),
(269,769,o),
(386,833,cs),
(446,866,o),
(510,882,o),
(586,882,cs),
(739,882,o),
(856,818,o),
(924,694,cs),
(957,634,o),
(972,564,o),
(972,480,cs),
(972,313,o),
(906,196,o),
(786,128,cs),
(729,95,o),
(663,78,o),
(586,78,cs)
);
}
);
width = 1172;
}
);
leftKerningGroup = c2;
rightKerningGroup = b;
unicode = 111;
},
{
glyphname = p;
layers = (
{
layerId = "B22D72D3-F565-4B82-99AC-51F8C8594089";
shapes = (
{
closed = 1;
nodes = (
(128,-420,l),
(526,-420,l),
(526,52,l),
(566,25,o),
(608,4,o),
(653,-9,cs),
(697,-22,o),
(745,-30,o),
(792,-30,cs),
(945,-30,o),
(1072,29,o),
(1168,129,c),
(1260,229,o),
(1314,363,o),
(1314,520,cs),
(1314,636,o),
(1294,730,o),
(1247,815,c),
(1203,899,o),
(1143,958,o),
(1063,1005,c),
(983,1049,o),
(897,1070,o),
(800,1070,cs),
(728,1070,o),
(666,1059,o),
(610,1036,cs),
(550,1012,o),
(505,981,o),
(468,938,c),
(468,1040,l),
(128,1040,l)
);
},
{
closed = 1;
nodes = (
(650,310,o),
(587,344,o),
(552,409,cs),
(535,440,o),
(526,477,o),
(526,520,cs),
(526,608,o),
(565,672,o),
(626,705,c),
(655,722,o),
(690,730,o),
(726,730,cs),
(803,730,o),
(864,697,o),
(901,632,cs),
(918,603,o),
(926,563,o),
(926,520,cs),
(926,432,o),
(890,371,o),
(830,336,c),
(798,319,o),
(765,310,o),
(726,310,cs)
);
}
);
width = 1364;
},
{
layerId = "91BCDD27-8050-4636-87E6-61A3BEBF18FE";
shapes = (
{
closed = 1;
nodes = (
(149,-420,l),
(404,-420,l),
(404,110,l),
(445,67,o),
(493,32,o),
(549,8,cs),
(605,-16,o),
(668,-30,o),
(740,-30,cs),
(889,-30,o),
(1012,28,o),
(1104,125,cs),
(1193,222,o),
(1244,351,o),
(1244,500,cs),
(1244,604,o),
(1224,694,o),
(1180,775,cs),
(1137,855,o),
(1079,916,o),
(1003,963,cs),
(927,1008,o),
(841,1030,o),
(744,1030,cs),
(656,1030,o),
(585,1015,o),
(525,986,cs),
(464,955,o),
(415,917,o),
(375,868,c),
(375,1000,l),
(149,1000,l)
);
},
{
closed = 1;
nodes = (
(584,194,o),
(493,245,o),
(442,338,cs),
(417,383,o),
(404,436,o),
(404,500,cs),
(404,628,o),
(458,720,o),
(547,769,cs),
(591,794,o),
(641,806,o),
(697,806,cs),
(813,806,o),
(901,756,o),
(953,663,cs),
(978,618,o),
(990,564,o),
(990,500,cs),
(990,372,o),
(937,283,o),
(849,232,cs),
(804,207,o),
(754,194,o),
(697,194,cs)
);
}
);
width = 1309;
},
{
layerId = "37360C82-51D7-4766-8A64-F85284F8610E";
shapes = (
{
closed = 1;
nodes = (
(170,-420,l),
(282,-420,l),
(282,168,l),
(325,111,o),
(378,61,o),
(446,26,cs),
(514,-9,o),
(595,-30,o),
(688,-30,cs),
(833,-30,o),
(952,26,o),
(1040,122,cs),
(1128,218,o),
(1174,340,o),
(1174,480,cs),
(1174,576,o),
(1156,656,o),
(1113,736,cs),
(1073,813,o),
(1017,874,o),
(944,922,c),
(868,969,o),
(785,990,o),
(688,990,cs),
(584,990,o),
(505,973,o),
(441,937,c),
(377,898,o),
(326,855,o),
(282,798,c),
(282,960,l),
(170,960,l)
);
},
{
closed = 1;
nodes = (
(516,78,o),
(400,144,o),
(332,268,cs),
(299,328,o),
(282,396,o),
(282,480,cs),
(282,647,o),
(352,769,o),
(469,833,c),
(526,866,o),
(592,882,o),
(668,882,cs),
(821,882,o),
(938,818,o),
(1006,694,cs),
(1039,634,o),
(1054,564,o),
(1054,480,cs),
(1054,313,o),
(986,196,o),
(869,128,c),
(809,95,o),
(744,78,o),
(668,78,cs)
);
}
);
width = 1254;
}
);
leftKerningGroup = m;
rightKerningGroup = b;
unicode = 112;
},
{
glyphname = q;
layers = (
{
layerId = "B22D72D3-F565-4B82-99AC-51F8C8594089";
shapes = (
{
closed = 1;
nodes = (
(838,-420,l),
(1236,-420,l),
(1236,1040,l),
(896,1040,l),
(896,758,l),
(950,848,l),
(917,937,o),
(841,1005,o),
(736,1044,cs),
(683,1063,o),
(628,1070,o),
(564,1070,cs),
(419,1070,o),
(291,1020,o),
(199,924,cs),
(103,827,o),
(50,693,o),
(50,520,cs),
(50,416,o),
(73,324,o),
(117,239,c),
(164,155,o),
(222,91,o),
(302,42,c),
(383,-5,o),
(472,-30,o),
(572,-30,cs),
(644,-30,o),
(708,-16,o),
(769,11,c),
(829,39,o),
(882,80,o),
(930,140,c),
(838,232,l)
);
},
{
closed = 1;
nodes = (
(562,310,o),
(499,344,o),
(464,409,cs),
(447,440,o),
(438,477,o),
(438,520,cs),
(438,608,o),
(477,672,o),
(538,705,c),
(567,722,o),
(602,730,o),
(638,730,cs),
(715,730,o),
(776,697,o),
(813,632,cs),
(830,603,o),
(838,563,o),
(838,520,cs),
(838,432,o),
(802,371,o),
(742,336,c),
(710,319,o),
(677,310,o),
(638,310,cs)
);
}
);
width = 1364;
},
{
layerId = "91BCDD27-8050-4636-87E6-61A3BEBF18FE";
shapes = (
{
closed = 1;
nodes = (
(905,-420,l),
(1160,-420,l),
(1160,1000,l),
(934,1000,l),
(934,753,l),
(970,811,l),
(925,896,o),
(850,964,o),
(745,1003,cs),
(692,1022,o),
(633,1030,o),
(565,1030,cs),
(420,1030,o),
(296,978,o),
(207,882,cs),
(115,786,o),
(65,657,o),
(65,500,cs),
(65,400,o),
(86,313,o),
(129,232,cs),
(173,152,o),
(231,89,o),
(307,41,cs),
(384,-6,o),
(469,-30,o),
(569,-30,cs),
(657,-30,o),
(731,-13,o),
(796,22,cs),
(860,57,o),
(915,103,o),
(960,167,c),
(905,225,l)
);
},
{
closed = 1;
nodes = (
(499,194,o),
(408,245,o),
(357,338,cs),
(332,383,o),
(319,436,o),
(319,500,cs),
(319,628,o),
(373,720,o),
(462,769,cs),
(506,794,o),
(556,806,o),
(612,806,cs),
(728,806,o),
(816,756,o),
(868,663,cs),
(893,618,o),
(905,564,o),
(905,500,cs),
(905,372,o),
(852,283,o),
(764,232,cs),
(719,207,o),
(669,194,o),
(612,194,cs)
);
}
);
width = 1309;
},
{
layerId = "37360C82-51D7-4766-8A64-F85284F8610E";
shapes = (
{
closed = 1;
nodes = (
(972,-420,l),
(1084,-420,l),
(1084,960,l),
(972,960,l),
(972,748,l),
(990,774,l),
(933,855,o),
(862,923,o),
(754,963,cs),
(701,982,o),
(639,990,o),
(566,990,cs),
(421,990,o),
(304,934,o),
(216,841,cs),
(128,745,o),
(80,621,o),
(80,480,cs),
(80,388,o),
(101,305,o),
(141,225,c),
(184,149,o),
(240,88,o),
(312,40,c),
(388,-5,o),
(470,-30,o),
(566,-30,cs),
(670,-30,o),
(755,-10,o),
(824,33,cs),
(892,76,o),
(947,129,o),
(990,194,c),
(972,218,l)
);
},
{
closed = 1;
nodes = (
(434,78,o),
(318,144,o),
(250,268,cs),
(217,328,o),
(200,396,o),
(200,480,cs),
(200,647,o),
(270,769,o),
(387,833,c),
(444,866,o),
(510,882,o),
(586,882,cs),
(739,882,o),
(856,818,o),
(924,694,cs),
(957,634,o),
(972,564,o),
(972,480,cs),
(972,313,o),
(904,196,o),
(787,128,c),
(727,95,o),
(662,78,o),
(586,78,cs)
);
}
);
width = 1254;
}
);
leftKerningGroup = c2;
unicode = 113;
},
{
glyphname = r;
layers = (
{
layerId = "B22D72D3-F565-4B82-99AC-51F8C8594089";
shapes = (
{
closed = 1;
nodes = (
(128,0,l),
(528,0,l),
(528,506,ls),
(528,566,o),
(546,611,o),
(579,638,cs),
(615,666,o),
(656,680,o),
(708,680,cs),
(764,680,o),
(823,669,o),
(872,648,c),
(918,1058,l),
(882,1066,o),
(850,1072,o),
(802,1072,cs),
(741,1072,o),
(691,1060,o),
(640,1039,c),
(592,1015,o),
(556,979,o),
(528,932,c),
(528,1040,l),
(128,1040,l)
);
}
);
width = 936;
},
{
layerId = "91BCDD27-8050-4636-87E6-61A3BEBF18FE";
shapes = (
{
closed = 1;
nodes = (
(149,0,l),
(405,0,l),
(405,532,ls),
(405,609,o),
(428,669,o),
(475,712,cs),
(523,756,o),
(581,777,o),
(653,777,cs),
(697,777,o),
(743,770,o),
(784,755,c),
(817,1019,l),
(782,1027,o),
(747,1031,o),
(706,1031,cs),
(642,1031,o),
(589,1019,o),
(536,995,c),
(484,970,o),
(441,929,o),
(405,869,c),
(405,1000,l),
(149,1000,l)
);
}
);
width = 846;
},
{
layerId = "37360C82-51D7-4766-8A64-F85284F8610E";
shapes = (
{
closed = 1;
nodes = (
(170,0,l),
(282,0,l),
(282,558,ls),
(282,654,o),
(311,729,o),
(371,786,cs),
(432,846,o),
(506,874,o),
(598,874,cs),
(630,874,o),
(663,871,o),
(696,862,c),
(717,980,l),
(682,989,o),
(644,990,o),
(611,990,cs),
(546,990,o),
(489,977,o),
(432,952,c),
(376,924,o),
(327,878,o),
(282,806,c),
(282,960,l),
(170,960,l)
);
}
);
width = 756;
}
);
leftKerningGroup = m;
rightKerningGroup = r;
unicode = 114;
},
{
glyphname = s;
layers = (
{
layerId = "B22D72D3-F565-4B82-99AC-51F8C8594089";
shapes = (
{
closed = 1;
nodes = (
(736,-28,o),
(880,36,o),
(961,145,cs),
(1000,198,o),
(1020,262,o),
(1020,334,cs),
(1020,430,o),
(989,502,o),
(924,553,c),
(856,604,o),
(749,647,o),
(592,676,c),
(527,691,o),
(484,700,o),
(468,707,c),
(449,714,o),
(440,725,o),
(440,740,cs),
(440,755,o),
(453,768,o),
(474,776,cs),
(498,784,o),
(525,788,o),
(564,788,cs),
(637,788,o),
(716,771,o),
(792,739,cs),
(829,724,o),
(863,707,o),
(892,684,c),
(1004,952,l),
(948,991,o),
(882,1024,o),
(801,1047,cs),
(721,1068,o),
(638,1080,o),
(550,1080,cs),
(367,1080,o),
(228,1019,o),
(148,914,cs),
(108,861,o),
(88,800,o),
(88,728,cs),
(88,628,o),
(120,549,o),
(192,493,c),
(260,433,o),
(367,395,o),
(512,374,c),
(577,366,o),
(617,358,o),
(640,351,c),
(661,346,o),
(670,333,o),
(670,318,cs),
(670,283,o),
(629,264,o),
(540,264,cs),
(484,264,o),
(424,274,o),
(356,295,c),
(288,318,o),
(223,343,o),
(162,378,c),
(46,110,l),
(110,65,o),
(181,32,o),
(265,9,cs),
(350,-15,o),
(440,-28,o),
(544,-28,cs)
);
}
);
width = 1088;
},
{
layerId = "91BCDD27-8050-4636-87E6-61A3BEBF18FE";
shapes = (
{
closed = 1;
nodes = (
(670,-29,o),
(795,28,o),
(867,125,cs),
(902,173,o),
(919,230,o),
(919,295,cs),
(919,380,o),
(891,447,o),
(834,494,c),
(774,541,o),
(683,580,o),
(547,608,c),
(467,627,o),
(414,643,o),
(385,659,cs),
(354,675,o),
(339,700,o),
(339,735,cs),
(339,768,o),
(356,795,o),
(388,814,cs),
(421,833,o),
(462,842,o),
(515,842,cs),
(588,842,o),
(663,824,o),
(731,792,cs),
(764,776,o),
(794,758,o),
(819,735,c),
(904,918,l),
(855,957,o),
(797,988,o),
(728,1009,cs),
(660,1029,o),
(587,1040,o),
(510,1040,cs),
(353,1040,o),
(229,986,o),
(160,890,cs),
(125,842,o),
(108,790,o),
(108,726,cs),
(108,638,o),
(137,570,o),
(197,521,cs),
(257,470,o),
(349,433,o),
(478,408,cs),
(562,391,o),
(614,374,o),
(645,358,cs),
(674,342,o),
(688,316,o),
(688,283,cs),
(688,211,o),
(622,169,o),
(498,169,cs),
(442,169,o),
(385,179,o),
(325,200,cs),
(265,221,o),
(210,248,o),
(161,284,c),
(72,102,l),
(124,61,o),
(184,30,o),
(260,7,cs),
(336,-17,o),
(411,-29,o),
(499,-29,cs)
);
}
);
width = 1010;
},
{
layerId = "37360C82-51D7-4766-8A64-F85284F8610E";
shapes = (
{
closed = 1;
nodes = (
(603,-30,o),
(714,21,o),
(774,106,cs),
(803,147,o),
(818,199,o),
(818,256,cs),
(818,332,o),
(794,394,o),
(745,435,cs),
(693,478,o),
(615,515,o),
(502,540,c),
(410,564,o),
(344,586,o),
(303,611,cs),
(260,636,o),
(238,674,o),
(238,730,cs),
(238,782,o),
(261,824,o),
(302,852,cs),
(346,881,o),
(398,896,o),
(466,896,cs),
(542,896,o),
(611,878,o),
(671,845,cs),
(700,829,o),
(726,810,o),
(746,786,c),
(804,884,l),
(761,923,o),
(715,952,o),
(655,972,c),
(599,989,o),
(538,1000,o),
(470,1000,cs),
(337,1000,o),
(233,950,o),
(173,866,cs),
(142,823,o),
(128,777,o),
(128,724,cs),
(128,648,o),
(152,591,o),
(203,550,c),
(252,506,o),
(331,471,o),
(444,442,cs),
(545,417,o),
(611,390,o),
(651,365,c),
(688,340,o),
(706,300,o),
(706,248,cs),
(706,140,o),
(613,74,o),
(456,74,cs),
(400,74,o),
(347,84,o),
(295,105,cs),
(243,126,o),
(197,153,o),
(160,190,c),
(98,94,l),
(138,57,o),
(190,29,o),
(255,6,cs),
(320,-18,o),
(385,-30,o),
(454,-30,cs)
);
}
);
width = 932;
}
);
leftKerningGroup = s2;
rightKerningGroup = s;
unicode = 115;
},
{
glyphname = t;
layers = (
{
layerId = "B22D72D3-F565-4B82-99AC-51F8C8594089";
shapes = (
{
closed = 1;
nodes = (
(711,-30,o),
(813,4,o),
(878,40,c),
(834,350,l),
(799,331,o),
(756,320,o),
(719,320,cs),
(688,320,o),
(662,329,o),
(639,348,cs),
(615,367,o),
(604,397,o),
(604,440,cs),
(604,728,l),
(820,728,l),
(820,1040,l),
(604,1040,l),
(604,1334,l),
(204,1334,l),
(204,378,ls),
(204,245,o),
(240,143,o),
(309,74,cs),
(378,5,o),
(473,-30,o),
(598,-30,cs)
);
},
{
closed = 1;
nodes = (
(20,728,l),
(236,728,l),
(236,1040,l),
(20,1040,l)
);
}
);
width = 930;
},
{
layerId = "91BCDD27-8050-4636-87E6-61A3BEBF18FE";
shapes = (
{
closed = 1;
nodes = (
(664,-30,o),
(742,-6,o),
(802,25,c),
(762,229,l),
(729,212,o),
(686,200,o),
(642,200,cs),
(597,200,o),
(562,213,o),
(537,240,c),
(510,267,o),
(498,311,o),
(498,375,cs),
(498,792,l),
(761,792,l),
(761,1000,l),
(498,1000,l),
(498,1290,l),
(242,1290,l),
(242,324,ls),
(242,204,o),
(273,118,o),
(333,58,cs),
(393,-2,o),
(472,-30,o),
(576,-30,cs)
);
},
{
closed = 1;
nodes = (
(31,792,l),
(271,792,l),
(271,1000,l),
(31,1000,l)
);
}
);
width = 875;
},
{
layerId = "37360C82-51D7-4766-8A64-F85284F8610E";
shapes = (
{
closed = 1;
nodes = (
(614,-30,o),
(674,-14,o),
(726,10,c),
(690,108,l),
(659,93,o),
(615,80,o),
(566,80,cs),
(506,80,o),
(464,98,o),
(436,133,c),
(405,168,o),
(392,226,o),
(392,310,cs),
(392,856,l),
(702,856,l),
(702,960,l),
(392,960,l),
(392,1246,l),
(280,1246,l),
(280,270,ls),
(280,166,o),
(307,90,o),
(358,42,cs),
(409,-6,o),
(474,-30,o),
(554,-30,cs)
);
},
{
closed = 1;
nodes = (
(42,856,l),
(306,856,l),
(306,960,l),
(42,960,l)
);
}
);
width = 820;
}
);
leftKerningGroup = t2;
rightKerningGroup = t;
unicode = 116;
},
{
glyphname = u;
layers = (
{
layerId = "B22D72D3-F565-4B82-99AC-51F8C8594089";
shapes = (
{
closed = 1;
nodes = (
(629,-30,o),
(696,-15,o),
(743,14,cs),
(791,43,o),
(829,73,o),
(858,102,c),
(858,0,l),
(1198,0,l),
(1198,1040,l),
(798,1040,l),
(798,482,ls),
(798,422,o),
(775,376,o),
(734,351,cs),
(711,338,o),
(688,330,o),
(656,330,cs),
(611,330,o),
(576,344,o),
(552,371,c),
(531,398,o),
(518,434,o),
(518,482,cs),
(518,1040,l),
(118,1040,l),
(118,428,ls),
(118,332,o),
(133,252,o),
(165,184,c),
(194,115,o),
(239,62,o),
(303,25,cs),
(367,-11,o),
(444,-30,o),
(540,-30,cs)
);
}
);
width = 1326;
},
{
layerId = "91BCDD27-8050-4636-87E6-61A3BEBF18FE";
shapes = (
{
closed = 1;
nodes = (
(613,-30,o),
(674,-17,o),
(726,10,cs),
(778,37,o),
(822,71,o),
(859,114,c),
(859,0,l),
(1085,0,l),
(1085,1000,l),
(829,1000,l),
(829,436,ls),
(829,344,o),
(789,273,o),
(721,234,cs),
(686,214,o),
(649,204,o),
(605,204,cs),
(537,204,o),
(487,223,o),
(450,262,cs),
(414,301,o),
(395,351,o),
(395,415,cs),
(395,1000,l),
(139,1000,l),
(139,371,ls),
(139,295,o),
(154,229,o),
(183,169,c),
(211,108,o),
(254,60,o),
(314,24,cs),
(374,-12,o),
(448,-30,o),
(537,-30,cs)
);
}
);
width = 1234;
},
{
layerId = "37360C82-51D7-4766-8A64-F85284F8610E";
shapes = (
{
closed = 1;
nodes = (
(595,-30,o),
(653,-17,o),
(709,7,cs),
(765,31,o),
(815,70,o),
(860,126,c),
(860,0,l),
(972,0,l),
(972,960,l),
(860,960,l),
(860,390,ls),
(860,265,o),
(801,169,o),
(709,118,cs),
(661,91,o),
(611,78,o),
(554,78,cs),
(466,78,o),
(400,103,o),
(348,154,c),
(299,205,o),
(272,268,o),
(272,348,cs),
(272,960,l),
(160,960,l),
(160,314,ls),
(160,261,o),
(174,207,o),
(202,155,c),
(227,102,o),
(269,58,o),
(325,23,cs),
(382,-12,o),
(450,-30,o),
(534,-30,cs)
);
}
);
width = 1142;
}
);
leftKerningGroup = u2;
rightKerningGroup = u;
unicode = 117;
},
{
glyphname = v;
layers = (
{
layerId = "B22D72D3-F565-4B82-99AC-51F8C8594089";
shapes = (
{
closed = 1;
nodes = (
(364,0,l),
(832,0,l),
(1168,1040,l),
(752,1040,l),
(578,346,l),
(616,346,l),
(436,1040,l),
(10,1040,l)
);
}
);
width = 1178;
},
{
layerId = "91BCDD27-8050-4636-87E6-61A3BEBF18FE";
shapes = (
{
closed = 1;
nodes = (
(393,0,l),
(688,0,l),
(1046,1000,l),
(775,1000,l),
(525,220,l),
(559,220,l),
(304,1000,l),
(26,1000,l)
);
}
);
width = 1072;
},
{
layerId = "37360C82-51D7-4766-8A64-F85284F8610E";
shapes = (
{
closed = 1;
nodes = (
(422,0,l),
(544,0,l),
(924,960,l),
(798,960,l),
(472,94,l),
(502,94,l),
(172,960,l),
(42,960,l)
);
}
);
width = 966;
}
);
leftKerningGroup = v2;
rightKerningGroup = v;
unicode = 118;
},
{
glyphname = w;
layers = (
{
layerId = "B22D72D3-F565-4B82-99AC-51F8C8594089";
shapes = (
{
closed = 1;
nodes = (
(312,0,l),
(704,0,l),
(862,558,l),
(1012,0,l),
(1404,0,l),
(1706,1040,l),
(1336,1040,l),
(1208,458,l),
(1048,1040,l),
(688,1040,l),
(526,458,l),
(392,1040,l),
(10,1040,l)
);
}
);
width = 1716;
},
{
layerId = "91BCDD27-8050-4636-87E6-61A3BEBF18FE";
shapes = (
{
closed = 1;
nodes = (
(335,0,l),
(595,0,l),
(808,680,l),
(1012,0,l),
(1272,0,l),
(1581,1000,l),
(1340,1000,l),
(1142,295,l),
(936,1000,l),
(692,1000,l),
(474,295,l),
(278,1000,l),
(26,1000,l)
);
}
);
width = 1607;
},
{
layerId = "37360C82-51D7-4766-8A64-F85284F8610E";
shapes = (
{
closed = 1;
nodes = (
(358,0,l),
(486,0,l),
(754,802,l),
(1012,0,l),
(1140,0,l),
(1456,960,l),
(1344,960,l),
(1076,132,l),
(824,960,l),
(696,960,l),
(422,132,l),
(164,960,l),
(42,960,l)
);
}
);
width = 1498;
}
);
leftKerningGroup = v2;
rightKerningGroup = v;
unicode = 119;
},
{
glyphname = x;
layers = (
{
layerId = "B22D72D3-F565-4B82-99AC-51F8C8594089";
shapes = (
{
closed = 1;
nodes = (
(20,-4,l),
(512,4,l),
(660,248,l),
(808,0,l),
(1320,0,l),
(952,512,l),
(1298,1040,l),
(802,1040,l),
(674,776,l),
(542,1040,l),
(38,1040,l),
(392,506,l)
);
}
);
width = 1340;
},
{
layerId = "91BCDD27-8050-4636-87E6-61A3BEBF18FE";
shapes = (
{
closed = 1;
nodes = (
(29,-2,l),
(343,2,l),
(558,328,l),
(770,0,l),
(1098,0,l),
(740,505,l),
(1071,1000,l),
(756,1000,l),
(567,679,l),
(372,1000,l),
(49,1000,l),
(390,499,l)
);
}
);
width = 1127;
},
{
layerId = "37360C82-51D7-4766-8A64-F85284F8610E";
shapes = (
{
closed = 1;
nodes = (
(38,0,l),
(174,0,l),
(456,408,l),
(732,0,l),
(876,0,l),
(528,498,l),
(844,960,l),
(710,960,l),
(460,582,l),
(202,960,l),
(60,960,l),
(388,492,l)
);
}
);
width = 914;
}
);
leftKerningGroup = x2;
rightKerningGroup = x;
unicode = 120;
},
{
glyphname = y;
layers = (
{
layerId = "B22D72D3-F565-4B82-99AC-51F8C8594089";
shapes = (
{
closed = 1;
nodes = (
(457,-446,o),
(582,-400,o),
(686,-292,c),
(735,-236,o),
(779,-166,o),
(816,-74,c),
(1236,1040,l),
(814,1040,l),
(626,386,l),
(432,1040,l),
(0,1040,l),
(400,4,l),
(396,-12,ls),
(389,-40,o),
(373,-61,o),
(348,-72,c),
(323,-81,o),
(296,-88,o),
(264,-88,cs),
(215,-88,o),
(157,-73,o),
(112,-52,c),
(30,-384,l),
(111,-424,o),
(216,-446,o),
(324,-446,cs)
);
}
);
width = 1236;
},
{
layerId = "91BCDD27-8050-4636-87E6-61A3BEBF18FE";
shapes = (
{
closed = 1;
nodes = (
(369,-448,o),
(466,-413,o),
(550,-321,c),
(590,-274,o),
(626,-210,o),
(658,-129,cs),
(1084,1000,l),
(813,1000,l),
(562,255,l),
(304,1000,l),
(25,1000,l),
(417,-12,l),
(390,-92,l),
(377,-135,o),
(357,-166,o),
(330,-186,cs),
(303,-205,o),
(269,-215,o),
(225,-215,cs),
(184,-215,o),
(130,-201,o),
(87,-176,c),
(31,-393,l),
(103,-432,o),
(176,-448,o),
(256,-448,cs)
);
}
);
width = 1100;
},
{
layerId = "37360C82-51D7-4766-8A64-F85284F8610E";
shapes = (
{
closed = 1;
nodes = (
(281,-450,o),
(351,-425,o),
(415,-349,c),
(444,-312,o),
(473,-256,o),
(500,-184,cs),
(932,960,l),
(812,960,l),
(498,124,l),
(176,960,l),
(50,960,l),
(434,-28,l),
(384,-172,ls),
(365,-228,o),
(341,-271,o),
(313,-300,c),
(285,-327,o),
(243,-342,o),
(186,-342,cs),
(153,-342,o),
(103,-329,o),
(62,-300,c),
(33,-402,l),
(93,-438,o),
(139,-450,o),
(188,-450,cs)
);
}
);
width = 964;
}
);
leftKerningGroup = y;
rightKerningGroup = v;
unicode = 121;
},
{
glyphname = z;
layers = (
{
layerId = "B22D72D3-F565-4B82-99AC-51F8C8594089";
shapes = (
{
closed = 1;
nodes = (
(80,0,l),
(990,0,l),
(990,350,l),
(606,350,l),
(982,780,l),
(982,1040,l),
(98,1040,l),
(98,690,l),
(486,690,l),
(80,260,l)
);
}
);
width = 1070;
},
{
layerId = "91BCDD27-8050-4636-87E6-61A3BEBF18FE";
shapes = (
{
closed = 1;
nodes = (
(90,0,l),
(906,0,l),
(906,227,l),
(421,227,l),
(898,822,l),
(898,1000,l),
(102,1000,l),
(102,773,l),
(582,773,l),
(90,178,l)
);
}
);
width = 996;
},
{
layerId = "37360C82-51D7-4766-8A64-F85284F8610E";
shapes = (
{
closed = 1;
nodes = (
(100,0,l),
(822,0,l),
(822,104,l),
(236,104,l),
(814,864,l),
(814,960,l),
(106,960,l),
(106,856,l),
(678,856,l),
(100,96,l)
);
}
);
width = 922;
}
);
leftKerningGroup = z2;
rightKerningGroup = z;
unicode = 122;
},
{
glyphname = braceleft;
layers = (
{
layerId = "B22D72D3-F565-4B82-99AC-51F8C8594089";
shapes = (
{
closed = 1;
nodes = (
(666,40,l),
(602,39,o),
(562,46,o),
(537,67,cs),
(512,88,o),
(503,120,o),
(512,164,cs),
(566,442,ls),
(578,506,o),
(570,561,o),
(541,606,cs),
(512,649,o),
(463,677,o),
(394,690,c),
(394,692,l),
(526,715,o),
(586,810,o),
(562,938,cs),
(512,1216,l),
(497,1312,o),
(543,1349,o),
(666,1340,c),
(666,1606,l),
(478,1622,o),
(351,1594,o),
(271,1526,cs),
(191,1458,o),
(167,1349,o),
(196,1188,cs),
(240,948,ls),
(252,888,o),
(238,853,o),
(182,837,c),
(155,828,o),
(117,824,o),
(66,824,c),
(66,558,l),
(167,558,o),
(219,544,o),
(236,507,cs),
(245,488,o),
(247,465,o),
(240,434,c),
(196,190,ls),
(169,33,o),
(193,-77,o),
(273,-145,c),
(350,-213,o),
(478,-239,o),
(666,-226,c)
);
}
);
width = 732;
},
{
layerId = "91BCDD27-8050-4636-87E6-61A3BEBF18FE";
shapes = (
{
closed = 1;
nodes = (
(599,-44,l),
(531,-48,o),
(486,-41,o),
(461,-20,cs),
(436,1,o),
(426,36,o),
(434,85,cs),
(488,452,ls),
(499,520,o),
(493,574,o),
(469,614,cs),
(445,653,o),
(404,678,o),
(340,690,c),
(340,692,l),
(460,713,o),
(507,793,o),
(486,929,cs),
(434,1295,ls),
(421,1396,o),
(466,1436,o),
(599,1424,c),
(599,1605,l),
(454,1621,o),
(353,1602,o),
(288,1546,cs),
(223,1490,o),
(200,1405,o),
(220,1284,c),
(272,926,ls),
(284,850,o),
(272,811,o),
(219,795,c),
(192,786,o),
(153,782,o),
(100,782,c),
(100,601,l),
(205,601,o),
(255,588,o),
(270,545,cs),
(278,524,o),
(279,495,o),
(272,456,c),
(219,93,ls),
(200,-27,o),
(223,-110,o),
(288,-166,cs),
(352,-222,o),
(454,-240,o),
(599,-225,c)
);
}
);
width = 699;
},
{
layerId = "37360C82-51D7-4766-8A64-F85284F8610E";
shapes = (
{
closed = 1;
nodes = (
(532,-128,l),
(459,-133,o),
(411,-128,o),
(386,-107,c),
(361,-84,o),
(349,-47,o),
(356,6,cs),
(410,462,ls),
(419,534,o),
(417,588,o),
(398,623,cs),
(379,656,o),
(343,679,o),
(286,690,c),
(286,692,l),
(395,712,o),
(429,777,o),
(410,920,cs),
(356,1374,ls),
(345,1482,o),
(389,1524,o),
(532,1508,c),
(532,1604,l),
(431,1621,o),
(356,1607,o),
(305,1566,cs),
(254,1525,o),
(233,1464,o),
(244,1380,cs),
(304,904,ls),
(317,812,o),
(308,770,o),
(256,754,c),
(229,743,o),
(190,740,o),
(134,740,c),
(134,644,l),
(246,644,o),
(293,632,o),
(305,583,c),
(312,559,o),
(312,525,o),
(304,478,c),
(242,-4,ls),
(233,-84,o),
(253,-145,o),
(304,-186,cs),
(353,-227,o),
(428,-239,o),
(532,-224,c)
);
}
);
width = 666;
}
);
rightKerningGroup = parenleft;
unicode = 123;
},
{
glyphname = bar;
layers = (
{
layerId = "B22D72D3-F565-4B82-99AC-51F8C8594089";
shapes = (
{
closed = 1;
nodes = (
(200,-220,l),
(520,-220,l),
(520,1600,l),
(200,1600,l)
);
}
);
width = 720;
},
{
layerId = "91BCDD27-8050-4636-87E6-61A3BEBF18FE";
shapes = (
{
closed = 1;
nodes = (
(200,-220,l),
(410,-220,l),
(410,1600,l),
(200,1600,l)
);
}
);
width = 610;
},
{
layerId = "37360C82-51D7-4766-8A64-F85284F8610E";
shapes = (
{
closed = 1;
nodes = (
(200,-220,l),
(300,-220,l),
(300,1600,l),
(200,1600,l)
);
}
);
width = 500;
}
);
leftKerningGroup = bar2;
rightKerningGroup = bar;
unicode = 124;
},
{
glyphname = braceright;
layers = (
{
layerId = "B22D72D3-F565-4B82-99AC-51F8C8594089";
shapes = (
{
closed = 1;
nodes = (
(66,-226,l),
(254,-239,o),
(382,-213,o),
(462,-145,c),
(539,-77,o),
(565,33,o),
(536,190,cs),
(492,434,l),
(483,498,o),
(498,531,o),
(551,546,cs),
(578,554,o),
(615,558,o),
(666,558,c),
(666,824,l),
(566,824,o),
(515,840,o),
(498,875,cs),
(489,895,o),
(488,919,o),
(492,948,c),
(536,1188,ls),
(565,1349,o),
(542,1458,o),
(462,1526,cs),
(382,1594,o),
(254,1622,o),
(66,1606,c),
(66,1340,l),
(191,1349,o),
(237,1312,o),
(220,1216,cs),
(170,938,ls),
(147,810,o),
(209,715,o),
(338,692,c),
(338,690,l),
(270,677,o),
(222,649,o),
(193,606,cs),
(164,561,o),
(154,506,o),
(166,442,cs),
(220,164,ls),
(229,120,o),
(223,88,o),
(198,67,cs),
(173,46,o),
(130,39,o),
(66,40,c)
);
}
);
width = 732;
},
{
layerId = "91BCDD27-8050-4636-87E6-61A3BEBF18FE";
shapes = (
{
closed = 1;
nodes = (
(100,-225,l),
(245,-240,o),
(348,-222,o),
(413,-166,cs),
(477,-110,o),
(500,-27,o),
(480,93,c),
(427,456,ls),
(416,533,o),
(428,573,o),
(481,589,cs),
(508,597,o),
(546,601,o),
(599,601,c),
(599,782,l),
(495,782,o),
(445,797,o),
(430,838,cs),
(422,859,o),
(422,889,o),
(427,926,cs),
(479,1284,l),
(499,1405,o),
(477,1490,o),
(412,1546,cs),
(347,1602,o),
(245,1621,o),
(100,1605,c),
(100,1424,l),
(235,1436,o),
(280,1396,o),
(265,1295,cs),
(213,929,ls),
(193,793,o),
(240,713,o),
(359,692,c),
(359,690,l),
(298,678,o),
(256,653,o),
(232,614,cs),
(208,574,o),
(200,520,o),
(211,452,cs),
(265,85,ls),
(273,36,o),
(265,1,o),
(240,-20,cs),
(215,-41,o),
(168,-48,o),
(100,-44,c)
);
}
);
width = 699;
},
{
layerId = "37360C82-51D7-4766-8A64-F85284F8610E";
shapes = (
{
closed = 1;
nodes = (
(134,-224,l),
(238,-239,o),
(313,-227,o),
(365,-186,c),
(414,-145,o),
(436,-84,o),
(424,-4,c),
(362,478,ls),
(351,571,o),
(359,616,o),
(411,632,cs),
(438,640,o),
(476,644,o),
(532,644,c),
(532,740,l),
(424,740,o),
(375,754,o),
(363,801,c),
(356,825,o),
(357,860,o),
(362,904,cs),
(422,1380,ls),
(433,1464,o),
(413,1525,o),
(362,1566,cs),
(311,1607,o),
(235,1621,o),
(134,1604,c),
(134,1508,l),
(279,1524,o),
(323,1482,o),
(310,1374,cs),
(256,920,ls),
(240,777,o),
(272,712,o),
(380,692,c),
(380,690,l),
(324,679,o),
(291,656,o),
(272,623,cs),
(253,588,o),
(247,534,o),
(256,462,cs),
(310,6,ls),
(317,-47,o),
(308,-84,o),
(283,-107,c),
(258,-128,o),
(207,-133,o),
(134,-128,c)
);
}
);
width = 666;
}
);
leftKerningGroup = parenright;
unicode = 125;
},
{
glyphname = asciitilde;
layers = (
{
layerId = "B22D72D3-F565-4B82-99AC-51F8C8594089";
shapes = (
{
closed = 1;
nodes = (
(1022,460,o),
(1144,527,o),
(1236,656,c),
(1100,874,l),
(1036,778,o),
(959,732,o),
(874,732,cs),
(818,732,o),
(748,767,o),
(664,806,cs),
(580,845,o),
(494,880,o),
(410,880,cs),
(277,880,o),
(156,817,o),
(60,684,c),
(196,466,l),
(260,562,o),
(338,608,o),
(422,608,cs),
(479,608,o),
(549,573,o),
(633,534,cs),
(718,495,o),
(802,460,o),
(886,460,cs)
);
}
);
width = 1296;
},
{
layerId = "91BCDD27-8050-4636-87E6-61A3BEBF18FE";
shapes = (
{
closed = 1;
nodes = (
(991,500,o),
(1098,555,o),
(1182,675,c),
(1086,823,l),
(1026,731,o),
(952,684,o),
(872,684,cs),
(815,684,o),
(744,719,o),
(664,758,cs),
(584,797,o),
(502,832,o),
(418,832,cs),
(302,832,o),
(197,777,o),
(113,656,c),
(210,513,l),
(270,601,o),
(347,648,o),
(424,648,cs),
(484,648,o),
(553,613,o),
(633,574,cs),
(714,535,o),
(797,500,o),
(878,500,cs)
);
}
);
width = 1296;
},
{
layerId = "37360C82-51D7-4766-8A64-F85284F8610E";
shapes = (
{
closed = 1;
nodes = (
(963,540,o),
(1056,586,o),
(1128,694,c),
(1072,772,l),
(1020,684,o),
(943,636,o),
(870,636,cs),
(810,636,o),
(741,671,o),
(665,710,cs),
(589,749,o),
(507,784,o),
(426,784,cs),
(330,784,o),
(238,736,o),
(166,628,c),
(224,560,l),
(280,640,o),
(354,688,o),
(426,688,cs),
(487,688,o),
(557,653,o),
(633,614,c),
(713,575,o),
(790,540,o),
(870,540,cs)
);
}
);
width = 1296;
}
);
leftKerningGroup = plus2;
rightKerningGroup = plus;
unicode = 126;
},
{
glyphname = exclamdown;
layers = (
{
layerId = "B22D72D3-F565-4B82-99AC-51F8C8594089";
shapes = (
{
closed = 1;
nodes = (
(114,-420,l),
(606,-420,l),
(542,504,l),
(178,504,l)
);
},
{
closed = 1;
nodes = (
(444,624,o),
(521,660,o),
(562,729,c),
(585,761,o),
(594,801,o),
(594,848,cs),
(594,917,o),
(573,972,o),
(525,1011,c),
(480,1051,o),
(424,1070,o),
(360,1070,cs),
(276,1070,o),
(202,1033,o),
(159,968,c),
(138,933,o),
(126,895,o),
(126,848,cs),
(126,776,o),
(151,724,o),
(196,684,c),
(244,645,o),
(296,624,o),
(360,624,cs)
);
}
);
width = 720;
},
{
layerId = "91BCDD27-8050-4636-87E6-61A3BEBF18FE";
shapes = (
{
closed = 1;
nodes = (
(181,-420,l),
(489,-420,l),
(448,517,l),
(222,517,l)
);
},
{
closed = 1;
nodes = (
(399,708,o),
(453,735,o),
(484,786,c),
(500,810,o),
(507,839,o),
(507,872,cs),
(507,923,o),
(492,962,o),
(457,991,cs),
(424,1020,o),
(383,1035,o),
(335,1035,cs),
(271,1035,o),
(218,1007,o),
(187,959,cs),
(171,934,o),
(163,905,o),
(163,872,cs),
(163,821,o),
(181,782,o),
(214,753,cs),
(249,724,o),
(288,708,o),
(335,708,cs)
);
}
);
width = 680;
},
{
layerId = "37360C82-51D7-4766-8A64-F85284F8610E";
shapes = (
{
closed = 1;
nodes = (
(241,-420,l),
(379,-420,l),
(359,530,l),
(261,530,l)
);
},
{
closed = 1;
nodes = (
(351,792,o),
(387,811,o),
(406,844,c),
(417,859,o),
(420,876,o),
(420,896,cs),
(420,928,o),
(412,951,o),
(389,971,c),
(369,991,o),
(342,1000,o),
(310,1000,cs),
(269,1000,o),
(235,980,o),
(216,951,cs),
(205,934,o),
(200,916,o),
(200,896,cs),
(200,865,o),
(212,842,o),
(232,822,c),
(255,803,o),
(281,792,o),
(310,792,cs)
);
}
);
width = 640;
}
);
leftKerningGroup = colon2;
rightKerningGroup = colon;
unicode = 161;
},
{
glyphname = cent;
layers = (
{
layerId = "B22D72D3-F565-4B82-99AC-51F8C8594089";
shapes = (
{
closed = 1;
nodes = (
(531,-160,l),
(783,-160,l),
(783,10,l),
(778,10,l),
(870,26,o),
(947,51,o),
(1010,99,c),
(925,387,l),
(872,355,o),
(826,339,o),
(778,331,c),
(778,711,l),
(815,707,o),
(859,691,o),
(898,666,c),
(1022,923,l),
(958,981,o),
(860,1019,o),
(778,1030,c),
(783,1030,l),
(783,1200,l),
(531,1200,l),
(531,1028,l),
(537,1028,l),
(302,983,o),
(145,775,o),
(145,520,cs),
(145,262,o),
(304,54,o),
(537,12,c),
(531,12,l)
);
},
{
closed = 1;
nodes = (
(537,342,l),
(465,363,o),
(434,446,o),
(434,520,cs),
(434,588,o),
(462,692,o),
(537,701,c)
);
}
);
width = 1200;
},
{
layerId = "91BCDD27-8050-4636-87E6-61A3BEBF18FE";
shapes = (
{
closed = 1;
nodes = (
(562,-160,l),
(741,-160,l),
(741,6,l),
(735,6,l),
(835,18,o),
(918,52,o),
(988,112,c),
(908,293,l),
(861,253,o),
(803,225,o),
(738,216,c),
(738,786,l),
(792,781,o),
(844,760,o),
(889,727,c),
(986,893,l),
(914,954,o),
(826,987,o),
(735,995,c),
(741,995,l),
(741,1160,l),
(562,1160,l),
(562,991,l),
(568,991,l),
(335,951,o),
(174,755,o),
(174,500,cs),
(174,241,o),
(336,43,o),
(568,8,c),
(562,8,l)
);
},
{
closed = 1;
nodes = (
(565,222,l),
(433,250,o),
(373,361,o),
(373,501,cs),
(373,642,o),
(432,758,o),
(565,780,c)
);
}
);
width = 1200;
},
{
layerId = "37360C82-51D7-4766-8A64-F85284F8610E";
shapes = (
{
closed = 1;
nodes = (
(594,-160,l),
(699,-160,l),
(699,2,l),
(693,2,l),
(802,12,o),
(885,52,o),
(966,124,c),
(890,196,l),
(850,150,o),
(778,112,o),
(699,101,c),
(699,862,l),
(767,857,o),
(830,829,o),
(879,788,c),
(948,864,l),
(871,929,o),
(790,958,o),
(692,960,c),
(699,960,l),
(699,1120,l),
(594,1120,l),
(594,954,l),
(599,954,l),
(366,920,o),
(204,735,o),
(204,480,cs),
(204,219,o),
(367,34,o),
(599,4,c),
(594,4,l)
);
},
{
closed = 1;
nodes = (
(594,103,l),
(403,139,o),
(312,276,o),
(312,482,cs),
(312,694,o),
(405,825,o),
(594,859,c)
);
}
);
width = 1200;
}
);
unicode = 162;
},
{
glyphname = sterling;
layers = (
{
layerId = "B22D72D3-F565-4B82-99AC-51F8C8594089";
shapes = (
{
closed = 1;
nodes = (
(108,0,l),
(1140,0,l),
(1140,298,l),
(585,298,l),
(626,362,o),
(647,428,o),
(647,506,cs),
(647,569,o),
(624,651,o),
(608,738,cs),
(595,809,o),
(572,879,o),
(572,954,cs),
(572,1010,o),
(586,1056,o),
(615,1087,cs),
(639,1113,o),
(674,1128,o),
(720,1128,cs),
(801,1128,o),
(885,1100,o),
(983,1002,c),
(1116,1256,l),
(1039,1364,o),
(844,1430,o),
(712,1430,cs),
(516,1430,o),
(364,1353,o),
(281,1217,cs),
(239,1148,o),
(217,1075,o),
(217,992,cs),
(217,941,o),
(231,889,o),
(244,840,cs),
(256,791,o),
(271,743,o),
(286,695,cs),
(303,638,o),
(332,561,o),
(332,502,cs),
(332,399,o),
(304,347,o),
(240,319,c),
(207,306,o),
(162,292,o),
(108,285,c)
);
},
{
closed = 1;
nodes = (
(90,560,l),
(945,560,l),
(945,810,l),
(90,810,l)
);
}
);
width = 1200;
},
{
layerId = "91BCDD27-8050-4636-87E6-61A3BEBF18FE";
shapes = (
{
closed = 1;
nodes = (
(146,0,l),
(1106,0,l),
(1106,201,l),
(481,201,l),
(560,270,o),
(600,350,o),
(600,461,cs),
(600,541,o),
(575,637,o),
(547,735,cs),
(520,831,o),
(495,924,o),
(495,1001,cs),
(495,1081,o),
(519,1141,o),
(563,1179,cs),
(599,1210,o),
(648,1226,o),
(707,1226,cs),
(802,1226,o),
(890,1195,o),
(981,1108,c),
(1076,1281,l),
(985,1380,o),
(833,1430,o),
(705,1430,cs),
(527,1430,o),
(391,1361,o),
(316,1237,c),
(277,1175,o),
(258,1106,o),
(258,1027,cs),
(258,938,o),
(294,816,o),
(325,733,c),
(342,682,o),
(357,633,o),
(371,588,c),
(384,542,o),
(389,501,o),
(389,464,cs),
(389,372,o),
(362,312,o),
(316,272,cs),
(273,234,o),
(214,212,o),
(146,194,c)
);
},
{
closed = 1;
nodes = (
(126,599,l),
(946,599,l),
(946,774,l),
(126,774,l)
);
}
);
width = 1200;
},
{
layerId = "37360C82-51D7-4766-8A64-F85284F8610E";
shapes = (
{
closed = 1;
nodes = (
(183,0,l),
(1072,0,l),
(1072,104,l),
(378,104,l),
(491,180,o),
(553,268,o),
(553,416,cs),
(553,516,o),
(522,623,o),
(485,733,cs),
(451,840,o),
(419,947,o),
(419,1048,cs),
(419,1129,o),
(440,1191,o),
(487,1246,cs),
(532,1299,o),
(601,1324,o),
(694,1324,cs),
(802,1324,o),
(895,1292,o),
(979,1215,c),
(1035,1307,l),
(943,1391,o),
(821,1430,o),
(698,1430,cs),
(541,1430,o),
(418,1370,o),
(352,1257,c),
(317,1200,o),
(299,1137,o),
(299,1062,cs),
(299,959,o),
(336,833,o),
(375,739,c),
(393,687,o),
(412,633,o),
(426,584,cs),
(441,533,o),
(447,480,o),
(447,426,cs),
(447,327,o),
(416,259,o),
(366,209,cs),
(319,162,o),
(255,129,o),
(183,102,c)
);
},
{
closed = 1;
nodes = (
(163,638,l),
(947,638,l),
(947,738,l),
(163,738,l)
);
}
);
width = 1200;
}
);
unicode = 163;
},
{
glyphname = currency;
layers = (
{
layerId = "B22D72D3-F565-4B82-99AC-51F8C8594089";
shapes = (
{
closed = 1;
nodes = (
(271,61,l),
(412,217,l),
(470,188,o),
(535,170,o),
(600,170,cs),
(669,170,o),
(731,186,o),
(788,217,c),
(930,61,l),
(1118,264,l),
(976,414,l),
(1009,480,o),
(1026,553,o),
(1026,620,cs),
(1026,691,o),
(1009,764,o),
(976,826,c),
(1118,980,l),
(930,1183,l),
(788,1027,l),
(731,1059,o),
(665,1074,o),
(600,1074,cs),
(535,1074,o),
(470,1060,o),
(412,1027,c),
(271,1183,l),
(82,980,l),
(223,826,l),
(194,764,o),
(174,691,o),
(174,620,cs),
(174,553,o),
(194,479,o),
(223,414,c),
(82,264,l)
);
},
{
closed = 1;
nodes = (
(509,456,o),
(454,536,o),
(454,620,cs),
(454,717,o),
(512,786,o),
(600,786,cs),
(693,786,o),
(746,715,o),
(746,620,cs),
(746,530,o),
(693,456,o),
(600,456,cs)
);
}
);
width = 1200;
},
{
layerId = "91BCDD27-8050-4636-87E6-61A3BEBF18FE";
shapes = (
{
closed = 1;
nodes = (
(256,106,l),
(397,261,l),
(459,218,o),
(526,198,o),
(600,198,cs),
(675,198,o),
(741,217,o),
(803,261,c),
(944,106,l),
(1076,247,l),
(935,399,l),
(978,468,o),
(999,545,o),
(999,620,cs),
(999,699,o),
(978,777,o),
(935,843,c),
(1076,995,l),
(944,1137,l),
(803,982,l),
(745,1024,o),
(673,1045,o),
(600,1045,cs),
(527,1045,o),
(459,1029,o),
(397,982,c),
(256,1137,l),
(125,995,l),
(264,843,l),
(225,777,o),
(203,699,o),
(203,620,cs),
(203,545,o),
(224,468,o),
(264,399,c),
(125,247,l)
);
},
{
closed = 1;
nodes = (
(480,391,o),
(394,493,o),
(394,620,cs),
(394,754,o),
(478,851,o),
(600,851,cs),
(727,851,o),
(806,752,o),
(806,620,cs),
(806,487,o),
(722,391,o),
(600,391,cs)
);
}
);
width = 1200;
},
{
layerId = "37360C82-51D7-4766-8A64-F85284F8610E";
shapes = (
{
closed = 1;
nodes = (
(241,151,l),
(382,304,l),
(447,250,o),
(517,226,o),
(600,226,cs),
(678,226,o),
(753,248,o),
(818,304,c),
(959,151,l),
(1033,230,l),
(894,384,l),
(946,455,o),
(971,537,o),
(971,620,cs),
(971,707,o),
(946,789,o),
(894,860,c),
(1033,1010,l),
(959,1091,l),
(818,938,l),
(757,993,o),
(683,1016,o),
(600,1016,cs),
(522,1016,o),
(447,998,o),
(382,938,c),
(241,1091,l),
(167,1010,l),
(307,860,l),
(258,790,o),
(231,707,o),
(231,620,cs),
(231,537,o),
(254,457,o),
(307,384,c),
(167,230,l)
);
},
{
closed = 1;
nodes = (
(499,326,o),
(415,382,o),
(370,471,c),
(344,514,o),
(334,563,o),
(334,620,cs),
(334,791,o),
(444,916,o),
(600,916,cs),
(957,916,o),
(953,326,o),
(600,326,cs)
);
}
);
width = 1200;
}
);
unicode = 164;
},
{
glyphname = yen;
layers = (
{
layerId = "B22D72D3-F565-4B82-99AC-51F8C8594089";
shapes = (
{
closed = 1;
nodes = (
(417,0,l),
(769,0,l),
(769,246,l),
(1098,246,l),
(1098,472,l),
(769,472,l),
(769,584,l),
(1098,584,l),
(1098,810,l),
(858,810,l),
(1215,1400,l),
(845,1400,l),
(598,942,l),
(368,1400,l),
(-14,1400,l),
(330,810,l),
(90,810,l),
(90,584,l),
(417,584,l),
(417,472,l),
(90,472,l),
(90,246,l),
(417,246,l)
);
}
);
width = 1200;
},
{
layerId = "91BCDD27-8050-4636-87E6-61A3BEBF18FE";
shapes = (
{
closed = 1;
nodes = (
(480,0,l),
(713,0,l),
(713,282,l),
(1059,282,l),
(1059,445,l),
(713,445,l),
(713,605,l),
(1059,605,l),
(1059,768,l),
(791,768,l),
(1161,1400,l),
(915,1400,l),
(598,839,l),
(295,1400,l),
(39,1400,l),
(404,768,l),
(135,768,l),
(135,605,l),
(480,605,l),
(480,445,l),
(135,445,l),
(135,282,l),
(480,282,l)
);
}
);
width = 1200;
},
{
layerId = "37360C82-51D7-4766-8A64-F85284F8610E";
shapes = (
{
closed = 1;
nodes = (
(542,0,l),
(658,0,l),
(658,318,l),
(1021,318,l),
(1021,418,l),
(658,418,l),
(658,626,l),
(1021,626,l),
(1021,726,l),
(723,726,l),
(1108,1400,l),
(985,1400,l),
(598,737,l),
(221,1400,l),
(92,1400,l),
(479,726,l),
(180,726,l),
(180,626,l),
(542,626,l),
(542,418,l),
(180,418,l),
(180,318,l),
(542,318,l)
);
}
);
width = 1200;
}
);
unicode = 165;
},
{
glyphname = brokenbar;
layers = (
{
layerId = "B22D72D3-F565-4B82-99AC-51F8C8594089";
shapes = (
{
closed = 1;
nodes = (
(200,810,l),
(520,810,l),
(520,1480,l),
(200,1480,l)
);
},
{
closed = 1;
nodes = (
(200,-100,l),
(520,-100,l),
(520,570,l),
(200,570,l)
);
}
);
width = 720;
},
{
layerId = "91BCDD27-8050-4636-87E6-61A3BEBF18FE";
shapes = (
{
closed = 1;
nodes = (
(200,810,l),
(410,810,l),
(410,1480,l),
(200,1480,l)
);
},
{
closed = 1;
nodes = (
(200,-100,l),
(410,-100,l),
(410,570,l),
(200,570,l)
);
}
);
width = 610;
},
{
layerId = "37360C82-51D7-4766-8A64-F85284F8610E";
shapes = (
{
closed = 1;
nodes = (
(200,810,l),
(300,810,l),
(300,1480,l),
(200,1480,l)
);
},
{
closed = 1;
nodes = (
(200,-100,l),
(300,-100,l),
(300,570,l),
(200,570,l)
);
}
);
width = 500;
}
);
leftKerningGroup = bar2;
rightKerningGroup = bar;
unicode = 166;
},
{
glyphname = section;
layers = (
{
layerId = "B22D72D3-F565-4B82-99AC-51F8C8594089";
shapes = (
{
closed = 1;
nodes = (
(849,-450,o),
(1009,-383,o),
(1102,-262,c),
(1146,-201,o),
(1170,-130,o),
(1170,-50,cs),
(1170,66,o),
(1136,150,o),
(1063,211,c),
(991,275,o),
(879,319,o),
(718,350,cs),
(622,369,o),
(556,390,o),
(508,415,cs),
(463,438,o),
(438,471,o),
(438,514,cs),
(438,583,o),
(482,628,o),
(554,651,c),
(589,660,o),
(625,667,o),
(666,666,c),
(664,874,l),
(500,877,o),
(362,836,o),
(258,768,c),
(154,696,o),
(94,601,o),
(94,488,cs),
(94,335,o),
(169,241,o),
(333,176,cs),
(414,144,o),
(515,117,o),
(640,90,c),
(748,70,o),
(805,47,o),
(826,16,c),
(838,0,o),
(844,-19,o),
(844,-40,cs),
(844,-69,o),
(826,-96,o),
(791,-113,c),
(756,-133,o),
(710,-142,o),
(654,-142,cs),
(585,-142,o),
(513,-130,o),
(441,-106,cs),
(365,-81,o),
(304,-49,o),
(248,-8,c),
(126,-292,l),
(187,-337,o),
(263,-377,o),
(355,-405,c),
(447,-436,o),
(538,-450,o),
(642,-450,cs)
);
},
{
closed = 1;
nodes = (
(676,112,l),
(784,112,o),
(879,128,o),
(967,161,cs),
(1055,194,o),
(1120,237,o),
(1171,297,cs),
(1223,357,o),
(1248,424,o),
(1248,504,cs),
(1248,613,o),
(1203,694,o),
(1115,755,c),
(1027,812,o),
(893,860,o),
(708,896,cs),
(592,920,o),
(536,941,o),
(515,969,cs),
(504,985,o),
(498,1003,o),
(498,1024,cs),
(498,1053,o),
(515,1076,o),
(547,1096,c),
(582,1113,o),
(622,1122,o),
(678,1122,cs),
(759,1122,o),
(855,1100,o),
(944,1059,c),
(989,1040,o),
(1029,1016,o),
(1064,988,c),
(1186,1272,l),
(1118,1324,o),
(1045,1365,o),
(957,1390,cs),
(868,1417,o),
(778,1430,o),
(686,1430,cs),
(482,1430,o),
(328,1364,o),
(240,1244,cs),
(195,1183,o),
(174,1117,o),
(174,1036,cs),
(174,923,o),
(207,839,o),
(279,775,c),
(348,711,o),
(461,665,o),
(618,636,cs),
(750,612,o),
(833,588,o),
(873,549,cs),
(893,530,o),
(904,505,o),
(904,478,cs),
(904,402,o),
(857,356,o),
(785,333,c),
(750,324,o),
(711,316,o),
(672,316,c)
);
}
);
width = 1320;
},
{
layerId = "91BCDD27-8050-4636-87E6-61A3BEBF18FE";
shapes = (
{
closed = 1;
nodes = (
(809,-450,o),
(953,-386,o),
(1037,-273,c),
(1077,-216,o),
(1098,-150,o),
(1098,-74,cs),
(1098,31,o),
(1066,110,o),
(998,166,cs),
(930,223,o),
(828,266,o),
(683,298,cs),
(579,322,o),
(504,349,o),
(448,381,cs),
(395,412,o),
(367,457,o),
(367,518,cs),
(367,602,o),
(420,661,o),
(504,693,cs),
(545,708,o),
(590,716,o),
(641,715,c),
(645,863,l),
(504,866,o),
(381,829,o),
(289,765,cs),
(197,700,o),
(143,612,o),
(143,504,cs),
(143,363,o),
(207,273,o),
(348,205,cs),
(417,172,o),
(504,144,o),
(612,117,cs),
(751,82,o),
(825,51,o),
(856,7,cs),
(872,-16,o),
(880,-43,o),
(880,-76,cs),
(880,-128,o),
(857,-170,o),
(810,-199,c),
(763,-230,o),
(702,-244,o),
(626,-244,cs),
(558,-244,o),
(492,-232,o),
(424,-208,cs),
(355,-183,o),
(296,-149,o),
(245,-104,c),
(149,-294,l),
(201,-338,o),
(269,-376,o),
(353,-405,cs),
(437,-436,o),
(522,-450,o),
(618,-450,cs)
);
},
{
closed = 1;
nodes = (
(651,123,l),
(748,123,o),
(833,139,o),
(913,171,cs),
(990,203,o),
(1051,245,o),
(1096,305,cs),
(1141,365,o),
(1164,431,o),
(1164,508,cs),
(1164,609,o),
(1126,686,o),
(1046,743,cs),
(966,799,o),
(854,842,o),
(698,877,cs),
(565,909,o),
(486,936,o),
(450,980,cs),
(431,1003,o),
(422,1032,o),
(422,1068,cs),
(422,1116,o),
(443,1154,o),
(486,1183,c),
(530,1211,o),
(585,1225,o),
(654,1225,cs),
(739,1225,o),
(830,1203,o),
(911,1162,cs),
(952,1142,o),
(988,1117,o),
(1020,1088,c),
(1112,1280,l),
(1052,1329,o),
(987,1367,o),
(910,1392,cs),
(830,1417,o),
(750,1430,o),
(665,1430,cs),
(484,1430,o),
(345,1365,o),
(268,1256,cs),
(228,1200,o),
(209,1140,o),
(209,1068,cs),
(209,968,o),
(240,890,o),
(305,833,cs),
(369,776,o),
(472,730,o),
(617,697,cs),
(769,661,o),
(860,630,o),
(903,582,cs),
(924,558,o),
(935,527,o),
(935,491,cs),
(935,395,o),
(882,330,o),
(794,295,cs),
(751,279,o),
(702,269,o),
(650,269,c)
);
}
);
width = 1272;
},
{
layerId = "37360C82-51D7-4766-8A64-F85284F8610E";
shapes = (
{
closed = 1;
nodes = (
(768,-450,o),
(900,-389,o),
(973,-284,c),
(1008,-228,o),
(1027,-170,o),
(1027,-98,cs),
(1027,-1,o),
(997,72,o),
(933,121,c),
(869,173,o),
(778,213,o),
(649,246,cs),
(533,275,o),
(452,309,o),
(388,348,cs),
(328,385,o),
(297,442,o),
(297,522,cs),
(297,618,o),
(355,695,o),
(455,736,cs),
(503,755,o),
(556,767,o),
(617,764,c),
(627,852,l),
(506,856,o),
(400,823,o),
(320,763,cs),
(240,702,o),
(193,620,o),
(193,520,cs),
(193,391,o),
(244,302,o),
(364,234,cs),
(421,201,o),
(493,172,o),
(585,144,c),
(754,96,o),
(847,56,o),
(886,-1,cs),
(907,-32,o),
(917,-67,o),
(917,-112,cs),
(917,-185,o),
(889,-244,o),
(829,-284,c),
(769,-327,o),
(695,-346,o),
(599,-346,cs),
(535,-346,o),
(472,-334,o),
(408,-310,cs),
(343,-285,o),
(288,-249,o),
(243,-200,c),
(173,-296,l),
(216,-337,o),
(276,-375,o),
(352,-404,c),
(428,-436,o),
(507,-450,o),
(595,-450,cs)
);
},
{
closed = 1;
nodes = (
(627,134,l),
(715,134,o),
(791,150,o),
(860,181,c),
(928,213,o),
(981,256,o),
(1021,313,cs),
(1061,370,o),
(1081,436,o),
(1081,512,cs),
(1081,608,o),
(1046,676,o),
(977,732,c),
(908,783,o),
(814,826,o),
(689,858,cs),
(536,899,o),
(435,931,o),
(386,991,c),
(359,1022,o),
(347,1063,o),
(347,1112,cs),
(347,1180,o),
(373,1231,o),
(425,1271,c),
(481,1308,o),
(547,1328,o),
(631,1328,cs),
(720,1328,o),
(805,1308,o),
(878,1265,c),
(915,1245,o),
(948,1220,o),
(977,1188,c),
(1039,1288,l),
(987,1336,o),
(932,1370,o),
(864,1394,cs),
(796,1418,o),
(725,1430,o),
(645,1430,cs),
(485,1430,o),
(365,1369,o),
(297,1269,cs),
(261,1217,o),
(245,1164,o),
(245,1100,cs),
(245,1012,o),
(272,943,o),
(332,892,c),
(389,841,o),
(484,795,o),
(617,758,cs),
(789,710,o),
(888,673,o),
(933,616,cs),
(956,587,o),
(967,549,o),
(967,504,cs),
(967,387,o),
(905,304,o),
(804,257,c),
(753,236,o),
(693,222,o),
(629,222,c)
);
}
);
width = 1225;
}
);
unicode = 167;
},
{
glyphname = copyright;
layers = (
{
layerId = "B22D72D3-F565-4B82-99AC-51F8C8594089";
shapes = (
{
closed = 1;
nodes = (
(1048,-48,o),
(1226,29,o),
(1363,162,cs),
(1499,295,o),
(1576,473,o),
(1576,682,cs),
(1576,889,o),
(1499,1067,o),
(1363,1200,cs),
(1226,1333,o),
(1049,1412,o),
(838,1412,cs),
(627,1412,o),
(450,1336,o),
(313,1203,cs),
(176,1070,o),
(100,893,o),
(100,682,cs),
(100,474,o),
(177,296,o),
(314,163,cs),
(451,30,o),
(628,-48,o),
(839,-48,cs)
);
},
{
closed = 1;
nodes = (
(681,112,o),
(546,168,o),
(442,269,cs),
(337,369,o),
(278,507,o),
(278,682,cs),
(278,858,o),
(338,995,o),
(442,1096,cs),
(547,1196,o),
(682,1250,o),
(839,1250,cs),
(996,1250,o),
(1130,1196,o),
(1235,1096,cs),
(1339,995,o),
(1398,858,o),
(1398,682,cs),
(1398,507,o),
(1340,369,o),
(1235,269,cs),
(1131,168,o),
(995,112,o),
(838,112,cs)
);
},
{
closed = 1;
nodes = (
(1007,274,o),
(1108,314,o),
(1180,366,c),
(1088,536,l),
(1024,492,o),
(952,470,o),
(880,470,cs),
(807,470,o),
(751,488,o),
(710,528,c),
(666,565,o),
(646,617,o),
(646,682,cs),
(646,750,o),
(666,798,o),
(709,838,cs),
(749,875,o),
(806,894,o),
(878,894,cs),
(959,894,o),
(1019,872,o),
(1062,828,c),
(1162,994,l),
(1087,1057,o),
(1000,1090,o),
(864,1090,cs),
(696,1090,o),
(566,1019,o),
(490,894,c),
(454,830,o),
(434,760,o),
(434,680,cs),
(434,511,o),
(511,390,o),
(640,325,c),
(704,290,o),
(778,274,o),
(862,274,cs)
);
}
);
width = 1676;
},
{
layerId = "91BCDD27-8050-4636-87E6-61A3BEBF18FE";
shapes = (
{
closed = 1;
nodes = (
(1050,-39,o),
(1227,38,o),
(1364,171,cs),
(1500,304,o),
(1576,482,o),
(1576,691,cs),
(1576,898,o),
(1500,1076,o),
(1364,1209,cs),
(1227,1342,o),
(1050,1421,o),
(838,1421,cs),
(626,1421,o),
(448,1345,o),
(312,1212,cs),
(176,1079,o),
(100,902,o),
(100,691,cs),
(100,483,o),
(176,305,o),
(312,172,cs),
(448,39,o),
(626,-39,o),
(838,-39,cs)
);
},
{
closed = 1;
nodes = (
(673,84,o),
(529,143,o),
(416,251,cs),
(303,359,o),
(236,506,o),
(236,691,cs),
(236,878,o),
(303,1024,o),
(416,1132,cs),
(529,1240,o),
(674,1297,o),
(838,1297,cs),
(1003,1297,o),
(1148,1240,o),
(1261,1132,cs),
(1374,1024,o),
(1440,878,o),
(1440,691,cs),
(1440,506,o),
(1374,359,o),
(1261,251,cs),
(1148,143,o),
(1003,84,o),
(838,84,cs)
);
},
{
closed = 1;
nodes = (
(995,283,o),
(1093,318,o),
(1169,374,c),
(1099,503,l),
(1031,452,o),
(955,431,o),
(879,431,cs),
(791,431,o),
(726,453,o),
(675,501,c),
(623,546,o),
(599,610,o),
(599,691,cs),
(599,772,o),
(623,834,o),
(674,882,cs),
(723,929,o),
(790,951,o),
(874,951,cs),
(958,951,o),
(1022,929,o),
(1070,884,c),
(1148,1010,l),
(1079,1067,o),
(991,1099,o),
(863,1099,cs),
(696,1099,o),
(567,1027,o),
(494,902,cs),
(458,838,o),
(439,770,o),
(439,690,cs),
(439,522,o),
(513,402,o),
(641,334,cs),
(705,299,o),
(778,283,o),
(862,283,cs)
);
}
);
width = 1676;
},
{
layerId = "37360C82-51D7-4766-8A64-F85284F8610E";
shapes = (
{
closed = 1;
nodes = (
(1053,-30,o),
(1229,47,o),
(1366,180,cs),
(1499,313,o),
(1576,491,o),
(1576,700,cs),
(1576,908,o),
(1499,1086,o),
(1366,1219,cs),
(1229,1352,o),
(1053,1430,o),
(838,1430,cs),
(625,1430,o),
(444,1355,o),
(311,1222,cs),
(178,1089,o),
(100,912,o),
(100,700,cs),
(100,493,o),
(178,315,o),
(311,182,cs),
(444,49,o),
(625,-30,o),
(838,-30,cs)
);
},
{
closed = 1;
nodes = (
(666,56,o),
(512,117,o),
(391,234,c),
(267,347,o),
(194,504,o),
(194,700,cs),
(194,899,o),
(269,1052,o),
(390,1169,c),
(514,1282,o),
(667,1344,o),
(838,1344,cs),
(1011,1344,o),
(1164,1282,o),
(1288,1169,c),
(1409,1052,o),
(1482,899,o),
(1482,700,cs),
(1482,504,o),
(1411,347,o),
(1287,234,c),
(1166,117,o),
(1010,56,o),
(838,56,cs)
);
},
{
closed = 1;
nodes = (
(986,292,o),
(1078,322,o),
(1158,382,c),
(1110,470,l),
(1038,414,o),
(958,392,o),
(878,392,cs),
(778,392,o),
(701,418,o),
(641,475,c),
(580,528,o),
(552,604,o),
(552,700,cs),
(552,797,o),
(580,870,o),
(640,927,cs),
(697,983,o),
(774,1008,o),
(870,1008,cs),
(955,1008,o),
(1026,988,o),
(1078,940,c),
(1134,1026,l),
(1071,1078,o),
(983,1108,o),
(862,1108,cs),
(698,1108,o),
(570,1036,o),
(498,911,c),
(463,847,o),
(444,780,o),
(444,700,cs),
(444,533,o),
(517,412,o),
(642,344,cs),
(706,308,o),
(778,292,o),
(862,292,cs)
);
}
);
width = 1676;
}
);
rightKerningGroup = at;
unicode = 169;
},
{
glyphname = ordfeminine;
layers = (
{
layerId = "B22D72D3-F565-4B82-99AC-51F8C8594089";
shapes = (
{
closed = 1;
nodes = (
(412,702,o),
(494,736,o),
(534,788,c),
(534,722,l),
(756,722,l),
(756,1126,ls),
(756,1234,o),
(728,1308,o),
(664,1355,cs),
(600,1402,o),
(520,1426,o),
(412,1426,cs),
(347,1426,o),
(290,1418,o),
(238,1398,c),
(182,1379,o),
(142,1361,o),
(107,1337,c),
(168,1170,l),
(225,1210,o),
(300,1230,o),
(360,1230,cs),
(425,1230,o),
(463,1219,o),
(483,1198,c),
(500,1174,o),
(508,1150,o),
(508,1122,cs),
(508,984,ls),
(508,951,o),
(497,926,o),
(474,909,cs),
(451,892,o),
(424,884,o),
(392,884,cs),
(340,884,o),
(306,904,o),
(306,936,cs),
(306,983,o),
(355,1001,o),
(428,1002,c),
(464,1001,o),
(504,997,o),
(544,988,c),
(544,1144,l),
(339,1160,o),
(197,1128,o),
(126,1056,cs),
(91,1020,o),
(72,978,o),
(72,922,cs),
(72,853,o),
(97,800,o),
(144,761,c),
(193,724,o),
(248,702,o),
(316,702,cs)
);
}
);
width = 858;
},
{
layerId = "91BCDD27-8050-4636-87E6-61A3BEBF18FE";
shapes = (
{
closed = 1;
nodes = (
(413,702,o),
(497,735,o),
(541,795,c),
(541,722,l),
(701,722,l),
(701,1132,ls),
(701,1225,o),
(676,1293,o),
(620,1337,cs),
(564,1381,o),
(491,1403,o),
(391,1403,cs),
(335,1403,o),
(287,1396,o),
(240,1380,cs),
(192,1364,o),
(153,1346,o),
(118,1322,c),
(165,1198,l),
(225,1239,o),
(292,1260,o),
(360,1260,cs),
(424,1260,o),
(465,1248,o),
(490,1224,c),
(514,1199,o),
(526,1167,o),
(526,1130,cs),
(526,969,ls),
(526,929,o),
(511,897,o),
(480,873,cs),
(449,849,o),
(411,837,o),
(366,837,cs),
(294,837,o),
(248,868,o),
(248,920,cs),
(248,973,o),
(295,1004,o),
(391,1012,c),
(438,1015,o),
(494,1012,o),
(562,1001,c),
(560,1119,l),
(340,1139,o),
(200,1106,o),
(133,1037,cs),
(100,1002,o),
(82,961,o),
(82,912,cs),
(82,847,o),
(105,796,o),
(149,759,cs),
(194,722,o),
(249,702,o),
(317,702,cs)
);
}
);
width = 814;
},
{
layerId = "37360C82-51D7-4766-8A64-F85284F8610E";
shapes = (
{
closed = 1;
nodes = (
(414,702,o),
(501,734,o),
(548,802,c),
(548,722,l),
(646,722,l),
(646,1138,ls),
(646,1219,o),
(624,1278,o),
(576,1319,cs),
(529,1360,o),
(462,1380,o),
(370,1380,cs),
(326,1380,o),
(284,1375,o),
(243,1362,cs),
(200,1349,o),
(164,1332,o),
(129,1307,c),
(162,1226,l),
(223,1270,o),
(288,1290,o),
(360,1290,cs),
(421,1290,o),
(466,1276,o),
(498,1251,c),
(529,1223,o),
(544,1185,o),
(544,1138,cs),
(544,954,ls),
(544,909,o),
(525,869,o),
(486,837,cs),
(447,806,o),
(400,790,o),
(340,790,cs),
(248,790,o),
(190,832,o),
(190,904,cs),
(190,965,o),
(237,1007,o),
(354,1023,c),
(411,1028,o),
(488,1026,o),
(580,1014,c),
(576,1094,l),
(343,1118,o),
(203,1085,o),
(140,1018,cs),
(109,985,o),
(92,947,o),
(92,902,cs),
(92,841,o),
(114,793,o),
(154,757,c),
(197,721,o),
(250,702,o),
(318,702,cs)
);
}
);
width = 770;
}
);
leftKerningGroup = degree2;
rightKerningGroup = degree;
unicode = 170;
},
{
glyphname = guillemotleft;
layers = (
{
layerId = "B22D72D3-F565-4B82-99AC-51F8C8594089";
shapes = (
{
closed = 1;
nodes = (
(843,60,l),
(1112,221,l),
(928,528,l),
(1112,837,l),
(843,998,l),
(560,528,l)
);
},
{
closed = 1;
nodes = (
(323,60,l),
(592,221,l),
(408,528,l),
(592,837,l),
(323,998,l),
(40,528,l)
);
}
);
width = 1230;
},
{
layerId = "91BCDD27-8050-4636-87E6-61A3BEBF18FE";
shapes = (
{
closed = 1;
nodes = (
(812,85,l),
(980,195,l),
(746,513,l),
(980,832,l),
(812,942,l),
(500,513,l)
);
},
{
closed = 1;
nodes = (
(362,85,l),
(530,195,l),
(296,513,l),
(530,832,l),
(362,942,l),
(50,513,l)
);
}
);
width = 1093;
},
{
layerId = "37360C82-51D7-4766-8A64-F85284F8610E";
shapes = (
{
closed = 1;
nodes = (
(781,111,l),
(849,169,l),
(564,498,l),
(848,827,l),
(781,886,l),
(440,498,l)
);
},
{
closed = 1;
nodes = (
(401,111,l),
(469,169,l),
(184,498,l),
(468,827,l),
(401,886,l),
(60,498,l)
);
}
);
width = 956;
}
);
unicode = 171;
},
{
glyphname = logicalnot;
layers = (
{
layerId = "B22D72D3-F565-4B82-99AC-51F8C8594089";
shapes = (
{
closed = 1;
nodes = (
(944,290,l),
(1228,290,l),
(1228,1050,l),
(68,1050,l),
(68,782,l),
(944,782,l)
);
}
);
width = 1296;
},
{
layerId = "91BCDD27-8050-4636-87E6-61A3BEBF18FE";
shapes = (
{
closed = 1;
nodes = (
(980,374,l),
(1172,374,l),
(1172,960,l),
(124,960,l),
(124,778,l),
(980,778,l)
);
}
);
width = 1296;
},
{
layerId = "37360C82-51D7-4766-8A64-F85284F8610E";
shapes = (
{
closed = 1;
nodes = (
(1016,458,l),
(1116,458,l),
(1116,870,l),
(180,870,l),
(180,774,l),
(1016,774,l)
);
}
);
width = 1296;
}
);
leftKerningGroup = plus2;
rightKerningGroup = plus;
unicode = 172;
},
{
glyphname = registered;
layers = (
{
layerId = "B22D72D3-F565-4B82-99AC-51F8C8594089";
shapes = (
{
closed = 1;
nodes = (
(706,470,o),
(792,493,o),
(872,538,cs),
(952,583,o),
(1014,644,o),
(1061,721,cs),
(1108,798,o),
(1130,885,o),
(1130,982,cs),
(1130,1078,o),
(1108,1163,o),
(1061,1240,cs),
(1014,1317,o),
(952,1377,o),
(872,1424,cs),
(792,1469,o),
(706,1492,o),
(606,1492,cs),
(506,1492,o),
(421,1470,o),
(341,1425,cs),
(261,1380,o),
(200,1320,o),
(153,1244,cs),
(106,1167,o),
(82,1079,o),
(82,982,cs),
(82,885,o),
(107,798,o),
(152,721,cs),
(199,644,o),
(260,583,o),
(340,538,cs),
(420,493,o),
(506,470,o),
(606,470,cs)
);
},
{
closed = 1;
nodes = (
(530,566,o),
(462,583,o),
(398,618,cs),
(334,653,o),
(284,700,o),
(247,765,cs),
(210,829,o),
(190,898,o),
(190,982,cs),
(190,1066,o),
(208,1135,o),
(248,1199,cs),
(287,1263,o),
(335,1308,o),
(399,1343,cs),
(463,1378,o),
(531,1394,o),
(607,1394,cs),
(683,1394,o),
(750,1378,o),
(815,1343,cs),
(879,1308,o),
(928,1263,o),
(965,1199,cs),
(1004,1135,o),
(1022,1066,o),
(1022,982,cs),
(1022,898,o),
(1004,829,o),
(967,765,c),
(927,700,o),
(879,653,o),
(815,618,cs),
(751,583,o),
(682,566,o),
(606,566,cs)
);
},
{
closed = 1;
nodes = (
(410,706,l),
(532,706,l),
(532,912,l),
(592,912,l),
(730,706,l),
(876,706,l),
(716,936,l),
(792,956,o),
(846,1008,o),
(846,1088,cs),
(846,1141,o),
(827,1184,o),
(790,1213,c),
(750,1242,o),
(702,1256,o),
(638,1256,cs),
(410,1256,l)
);
},
{
closed = 1;
nodes = (
(532,1010,l),
(532,1156,l),
(628,1156,ls),
(689,1156,o),
(722,1131,o),
(722,1082,cs),
(722,1035,o),
(686,1010,o),
(622,1010,cs)
);
}
);
width = 1212;
},
{
layerId = "91BCDD27-8050-4636-87E6-61A3BEBF18FE";
shapes = (
{
closed = 1;
nodes = (
(710,474,o),
(797,497,o),
(877,542,cs),
(957,587,o),
(1018,648,o),
(1065,725,cs),
(1112,802,o),
(1134,888,o),
(1134,985,cs),
(1134,1081,o),
(1112,1164,o),
(1065,1244,cs),
(1018,1321,o),
(956,1381,o),
(876,1428,cs),
(796,1473,o),
(710,1496,o),
(610,1496,cs),
(510,1496,o),
(424,1474,o),
(344,1429,cs),
(264,1384,o),
(203,1324,o),
(156,1247,cs),
(109,1170,o),
(86,1082,o),
(86,985,cs),
(86,888,o),
(110,802,o),
(155,725,cs),
(202,648,o),
(263,587,o),
(343,542,cs),
(423,497,o),
(510,474,o),
(610,474,cs)
);
},
{
closed = 1;
nodes = (
(533,555,o),
(463,573,o),
(395,609,cs),
(330,645,o),
(277,692,o),
(237,760,cs),
(197,825,o),
(177,897,o),
(177,985,cs),
(177,1073,o),
(196,1146,o),
(237,1211,cs),
(278,1276,o),
(328,1325,o),
(396,1361,cs),
(464,1397,o),
(533,1414,o),
(610,1414,cs),
(690,1414,o),
(757,1397,o),
(825,1361,cs),
(893,1325,o),
(943,1276,o),
(983,1211,cs),
(1024,1146,o),
(1043,1073,o),
(1043,985,cs),
(1043,897,o),
(1024,825,o),
(984,760,cs),
(943,692,o),
(893,645,o),
(825,609,cs),
(760,573,o),
(690,555,o),
(610,555,cs)
);
},
{
closed = 1;
nodes = (
(421,710,l),
(522,710,l),
(522,925,l),
(595,925,l),
(748,710,l),
(870,710,l),
(701,943,l),
(785,960,o),
(842,1014,o),
(842,1094,cs),
(842,1146,o),
(824,1187,o),
(788,1216,cs),
(751,1245,o),
(702,1259,o),
(642,1259,cs),
(421,1259,l)
);
},
{
closed = 1;
nodes = (
(522,1008,l),
(522,1175,l),
(633,1175,ls),
(705,1175,o),
(738,1146,o),
(738,1090,cs),
(738,1038,o),
(698,1008,o),
(626,1008,cs)
);
}
);
width = 1220;
},
{
layerId = "37360C82-51D7-4766-8A64-F85284F8610E";
shapes = (
{
closed = 1;
nodes = (
(714,478,o),
(802,501,o),
(882,546,cs),
(962,591,o),
(1022,652,o),
(1069,729,cs),
(1116,806,o),
(1138,891,o),
(1138,988,cs),
(1138,1084,o),
(1116,1168,o),
(1069,1248,cs),
(1022,1325,o),
(960,1385,o),
(880,1432,cs),
(803,1477,o),
(715,1500,o),
(614,1500,cs),
(514,1500,o),
(428,1478,o),
(348,1433,cs),
(268,1388,o),
(207,1328,o),
(160,1251,cs),
(113,1174,o),
(90,1085,o),
(90,988,cs),
(90,891,o),
(114,806,o),
(158,729,c),
(205,652,o),
(266,591,o),
(346,546,cs),
(426,501,o),
(514,478,o),
(614,478,cs)
);
},
{
closed = 1;
nodes = (
(534,544,o),
(461,563,o),
(392,600,cs),
(324,637,o),
(270,687,o),
(227,756,cs),
(186,824,o),
(164,899,o),
(164,988,cs),
(164,1077,o),
(183,1155,o),
(227,1224,cs),
(271,1292,o),
(324,1342,o),
(393,1379,cs),
(462,1416,o),
(534,1434,o),
(614,1434,cs),
(695,1434,o),
(767,1416,o),
(836,1379,cs),
(905,1342,o),
(960,1292,o),
(1001,1223,c),
(1045,1155,o),
(1064,1077,o),
(1064,988,cs),
(1064,899,o),
(1045,824,o),
(1002,756,cs),
(958,687,o),
(904,637,o),
(835,600,cs),
(767,563,o),
(695,544,o),
(614,544,cs)
);
},
{
closed = 1;
nodes = (
(432,714,l),
(512,714,l),
(512,938,l),
(598,938,l),
(766,714,l),
(864,714,l),
(686,950,l),
(778,965,o),
(838,1020,o),
(838,1100,cs),
(838,1151,o),
(821,1191,o),
(786,1220,cs),
(751,1249,o),
(703,1262,o),
(646,1262,cs),
(432,1262,l)
);
},
{
closed = 1;
nodes = (
(512,1006,l),
(512,1194,l),
(638,1194,ls),
(719,1194,o),
(754,1159,o),
(754,1098,cs),
(754,1042,o),
(710,1006,o),
(630,1006,cs)
);
}
);
width = 1228;
}
);
leftKerningGroup = degree2;
rightKerningGroup = degree;
unicode = 174;
},
{
glyphname = degree;
layers = (
{
layerId = "B22D72D3-F565-4B82-99AC-51F8C8594089";
shapes = (
{
closed = 1;
nodes = (
(603,606,o),
(732,681,o),
(805,809,c),
(844,869,o),
(860,938,o),
(860,1014,cs),
(860,1090,o),
(844,1160,o),
(805,1220,c),
(769,1281,o),
(721,1330,o),
(657,1366,cs),
(593,1403,o),
(526,1420,o),
(446,1420,cs),
(366,1420,o),
(300,1403,o),
(236,1366,c),
(172,1331,o),
(125,1281,o),
(86,1220,c),
(50,1160,o),
(30,1090,o),
(30,1014,cs),
(30,938,o),
(50,871,o),
(86,807,cs),
(123,743,o),
(172,697,o),
(236,660,c),
(300,625,o),
(366,606,o),
(446,606,cs)
);
},
{
closed = 1;
nodes = (
(399,852,o),
(363,866,o),
(334,897,c),
(303,928,o),
(288,967,o),
(288,1014,cs),
(288,1078,o),
(317,1127,o),
(365,1155,cs),
(388,1168,o),
(415,1174,o),
(446,1174,cs),
(493,1174,o),
(529,1161,o),
(560,1130,c),
(589,1099,o),
(604,1061,o),
(604,1014,cs),
(604,953,o),
(576,902,o),
(528,875,cs),
(503,860,o),
(477,852,o),
(446,852,cs)
);
}
);
width = 890;
},
{
layerId = "91BCDD27-8050-4636-87E6-61A3BEBF18FE";
shapes = (
{
closed = 1;
nodes = (
(600,658,o),
(722,731,o),
(791,848,c),
(827,905,o),
(843,968,o),
(843,1040,cs),
(843,1112,o),
(827,1175,o),
(791,1232,cs),
(756,1289,o),
(712,1336,o),
(652,1369,cs),
(592,1404,o),
(528,1420,o),
(455,1420,cs),
(382,1420,o),
(319,1404,o),
(259,1369,cs),
(199,1336,o),
(154,1289,o),
(118,1232,cs),
(83,1175,o),
(65,1112,o),
(65,1040,cs),
(65,968,o),
(83,907,o),
(118,847,cs),
(153,787,o),
(199,744,o),
(259,709,cs),
(319,676,o),
(382,658,o),
(455,658,cs)
);
},
{
closed = 1;
nodes = (
(391,829,o),
(343,848,o),
(304,888,cs),
(264,928,o),
(244,979,o),
(244,1040,cs),
(244,1124,o),
(282,1187,o),
(346,1223,cs),
(377,1240,o),
(414,1249,o),
(455,1249,cs),
(519,1249,o),
(568,1231,o),
(608,1192,c),
(645,1153,o),
(665,1104,o),
(665,1040,cs),
(665,956,o),
(629,892,o),
(565,857,c),
(533,838,o),
(496,829,o),
(455,829,cs)
);
}
);
width = 908;
},
{
layerId = "37360C82-51D7-4766-8A64-F85284F8610E";
shapes = (
{
closed = 1;
nodes = (
(597,710,o),
(712,779,o),
(777,888,c),
(812,941,o),
(826,1001,o),
(826,1066,cs),
(826,1131,o),
(812,1191,o),
(777,1244,c),
(745,1297,o),
(703,1341,o),
(647,1372,c),
(591,1405,o),
(532,1420,o),
(464,1420,cs),
(396,1420,o),
(339,1405,o),
(283,1372,c),
(227,1341,o),
(185,1297,o),
(150,1244,c),
(118,1191,o),
(100,1131,o),
(100,1067,cs),
(100,1002,o),
(118,944,o),
(150,888,cs),
(182,832,o),
(227,791,o),
(283,759,cs),
(339,727,o),
(396,710,o),
(464,710,cs)
);
},
{
closed = 1;
nodes = (
(384,806,o),
(323,830,o),
(275,879,cs),
(226,928,o),
(200,990,o),
(200,1066,cs),
(200,1167,o),
(248,1248,o),
(328,1292,cs),
(367,1313,o),
(412,1324,o),
(464,1324,cs),
(544,1324,o),
(607,1302,o),
(656,1255,c),
(701,1208,o),
(726,1146,o),
(726,1066,cs),
(726,962,o),
(683,881,o),
(603,840,c),
(563,817,o),
(516,806,o),
(464,806,cs)
);
}
);
width = 926;
}
);
leftKerningGroup = degree2;
rightKerningGroup = degree;
unicode = 176;
},
{
glyphname = twosuperior;
layers = (
{
layerId = "B22D72D3-F565-4B82-99AC-51F8C8594089";
shapes = (
{
closed = 1;
nodes = (
(474,1443,o),
(509,1415,o),
(509,1347,cs),
(509,1229,o),
(167,987,o),
(66,921,c),
(66,721,l),
(756,721,l),
(756,940,l),
(456,940,l),
(593,1018,o),
(764,1176,o),
(764,1344,cs),
(764,1551,o),
(603,1656,o),
(409,1656,cs),
(235,1656,o),
(74,1538,o),
(26,1369,c),
(234,1267,l),
(260,1335,o),
(327,1443,o),
(409,1443,cs)
);
}
);
width = 854;
},
{
layerId = "91BCDD27-8050-4636-87E6-61A3BEBF18FE";
shapes = (
{
closed = 1;
nodes = (
(509,1495,o),
(554,1458,o),
(554,1369,cs),
(554,1202,o),
(223,952,o),
(90,858,c),
(90,714,l),
(731,714,l),
(731,875,l),
(375,875,l),
(523,972,o),
(738,1176,o),
(738,1363,cs),
(738,1550,o),
(605,1649,o),
(414,1649,cs),
(258,1649,o),
(112,1545,o),
(68,1393,c),
(222,1321,l),
(249,1401,o),
(323,1495,o),
(414,1495,cs)
);
}
);
width = 855;
},
{
layerId = "37360C82-51D7-4766-8A64-F85284F8610E";
shapes = (
{
closed = 1;
nodes = (
(544,1547,o),
(599,1500,o),
(599,1391,cs),
(599,1174,o),
(278,916,o),
(113,795,c),
(113,707,l),
(705,707,l),
(705,809,l),
(294,809,l),
(452,926,o),
(711,1176,o),
(711,1382,cs),
(711,1549,o),
(606,1642,o),
(418,1642,cs),
(280,1642,o),
(150,1551,o),
(109,1417,c),
(209,1374,l),
(237,1466,o),
(318,1547,o),
(418,1547,cs)
);
}
);
width = 856;
}
);
unicode = 178;
},
{
glyphname = threesuperior;
layers = (
{
layerId = "B22D72D3-F565-4B82-99AC-51F8C8594089";
shapes = (
{
closed = 1;
nodes = (
(520,702,o),
(629,756,o),
(693,844,c),
(722,889,o),
(738,938,o),
(738,994,cs),
(738,1103,o),
(687,1176,o),
(614,1221,cs),
(578,1242,o),
(542,1255,o),
(502,1260,c),
(698,1440,l),
(698,1632,l),
(74,1632,l),
(74,1422,l),
(408,1422,l),
(190,1258,l),
(258,1096,l),
(302,1109,o),
(338,1112,o),
(366,1112,cs),
(405,1112,o),
(436,1104,o),
(463,1087,c),
(487,1070,o),
(498,1045,o),
(498,1014,cs),
(498,986,o),
(485,963,o),
(458,947,c),
(431,928,o),
(398,920,o),
(358,920,cs),
(315,920,o),
(275,929,o),
(234,946,cs),
(191,963,o),
(159,986,o),
(136,1014,c),
(61,810,l),
(88,779,o),
(130,757,o),
(190,734,c),
(250,714,o),
(311,702,o),
(376,702,cs)
);
}
);
width = 826;
},
{
layerId = "91BCDD27-8050-4636-87E6-61A3BEBF18FE";
shapes = (
{
closed = 1;
nodes = (
(511,702,o),
(619,753,o),
(679,841,cs),
(708,885,o),
(723,935,o),
(723,991,cs),
(723,1108,o),
(663,1185,o),
(571,1226,cs),
(526,1246,o),
(479,1256,o),
(427,1257,c),
(682,1494,l),
(682,1632,l),
(81,1632,l),
(81,1481,l),
(470,1481,l),
(199,1249,l),
(250,1132,l),
(291,1143,o),
(329,1146,o),
(360,1146,cs),
(417,1146,o),
(463,1134,o),
(499,1109,cs),
(534,1084,o),
(550,1048,o),
(550,1003,cs),
(550,959,o),
(533,924,o),
(498,899,c),
(463,872,o),
(418,859,o),
(362,859,cs),
(319,859,o),
(278,867,o),
(235,883,cs),
(191,899,o),
(156,919,o),
(129,946,c),
(72,800,l),
(100,772,o),
(142,751,o),
(198,731,cs),
(254,712,o),
(310,702,o),
(374,702,cs)
);
}
);
width = 821;
},
{
layerId = "37360C82-51D7-4766-8A64-F85284F8610E";
shapes = (
{
closed = 1;
nodes = (
(505,702,o),
(609,753,o),
(666,838,c),
(694,882,o),
(708,932,o),
(708,988,cs),
(708,1116,o),
(637,1193,o),
(528,1232,cs),
(472,1251,o),
(417,1257,o),
(352,1254,c),
(666,1548,l),
(666,1632,l),
(88,1632,l),
(88,1540,l),
(532,1540,l),
(208,1240,l),
(242,1168,l),
(282,1177,o),
(321,1180,o),
(354,1180,cs),
(430,1180,o),
(489,1164,o),
(536,1131,cs),
(581,1098,o),
(602,1052,o),
(602,992,cs),
(602,932,o),
(581,885,o),
(538,852,c),
(495,816,o),
(438,798,o),
(366,798,cs),
(323,798,o),
(281,805,o),
(237,820,cs),
(190,835,o),
(153,854,o),
(122,878,c),
(84,790,l),
(113,765,o),
(154,747,o),
(206,728,c),
(258,712,o),
(312,702,o),
(372,702,cs)
);
}
);
width = 816;
}
);
leftKerningGroup = degree2;
rightKerningGroup = degree;
unicode = 179;
},
{
glyphname = paragraph;
layers = (
{
layerId = "B22D72D3-F565-4B82-99AC-51F8C8594089";
shapes = (
{
closed = 1;
nodes = (
(558,-420,l),
(818,-420,l),
(818,1186,l),
(950,1186,l),
(950,-420,l),
(1210,-420,l),
(1210,1186,l),
(1414,1186,l),
(1414,1400,l),
(610,1400,ls),
(383,1400,o),
(208,1324,o),
(112,1180,cs),
(65,1111,o),
(40,1029,o),
(40,932,cs),
(40,740,o),
(138,599,o),
(314,522,c),
(398,483,o),
(497,464,o),
(610,464,c),
(558,510,l)
);
}
);
width = 1444;
},
{
layerId = "91BCDD27-8050-4636-87E6-61A3BEBF18FE";
shapes = (
{
closed = 1;
nodes = (
(524,-420,l),
(706,-420,l),
(706,1243,l),
(875,1243,l),
(875,-420,l),
(1057,-420,l),
(1057,1243,l),
(1270,1243,l),
(1270,1400,l),
(561,1400,ls),
(358,1400,o),
(210,1329,o),
(126,1204,cs),
(86,1143,o),
(65,1073,o),
(65,989,cs),
(65,824,o),
(148,699,o),
(300,630,cs),
(376,595,o),
(461,578,o),
(561,578,c),
(524,620,l)
);
}
);
width = 1320;
},
{
layerId = "37360C82-51D7-4766-8A64-F85284F8610E";
shapes = (
{
closed = 1;
nodes = (
(490,-420,l),
(594,-420,l),
(594,1300,l),
(800,1300,l),
(800,-420,l),
(904,-420,l),
(904,1300,l),
(1126,1300,l),
(1126,1400,l),
(512,1400,ls),
(335,1400,o),
(209,1337,o),
(140,1228,cs),
(107,1176,o),
(90,1115,o),
(90,1046,cs),
(90,909,o),
(158,802,o),
(287,738,cs),
(351,707,o),
(424,692,o),
(512,692,c),
(490,730,l)
);
}
);
width = 1196;
}
);
unicode = 182;
},
{
glyphname = onesuperior;
layers = (
{
layerId = "B22D72D3-F565-4B82-99AC-51F8C8594089";
shapes = (
{
closed = 1;
nodes = (
(300,722,l),
(540,722,l),
(540,1632,l),
(456,1632,l),
(36,1486,l),
(104,1282,l),
(300,1344,l)
);
}
);
width = 666;
},
{
layerId = "91BCDD27-8050-4636-87E6-61A3BEBF18FE";
shapes = (
{
closed = 1;
nodes = (
(319,722,l),
(488,722,l),
(488,1632,l),
(416,1632,l),
(42,1499,l),
(90,1357,l),
(319,1435,l)
);
}
);
width = 641;
},
{
layerId = "37360C82-51D7-4766-8A64-F85284F8610E";
shapes = (
{
closed = 1;
nodes = (
(338,722,l),
(436,722,l),
(436,1632,l),
(377,1632,l),
(48,1512,l),
(76,1432,l),
(338,1526,l)
);
}
);
width = 616;
}
);
leftKerningGroup = degree2;
rightKerningGroup = degree;
unicode = 185;
},
{
glyphname = ordmasculine;
layers = (
{
layerId = "B22D72D3-F565-4B82-99AC-51F8C8594089";
shapes = (
{
closed = 1;
nodes = (
(603,702,o),
(722,777,o),
(789,885,c),
(822,941,o),
(838,999,o),
(838,1060,cs),
(838,1189,o),
(772,1302,o),
(651,1370,cs),
(591,1403,o),
(526,1418,o),
(446,1418,cs),
(290,1418,o),
(172,1344,o),
(104,1236,c),
(71,1180,o),
(54,1124,o),
(54,1060,cs),
(54,931,o),
(122,816,o),
(243,752,cs),
(303,719,o),
(369,702,o),
(446,702,cs)
);
},
{
closed = 1;
nodes = (
(407,924,o),
(375,937,o),
(348,962,cs),
(321,986,o),
(306,1017,o),
(306,1060,cs),
(306,1116,o),
(333,1157,o),
(376,1181,cs),
(396,1192,o),
(421,1196,o),
(446,1196,cs),
(485,1196,o),
(518,1185,o),
(546,1161,c),
(573,1136,o),
(584,1103,o),
(584,1060,cs),
(584,1004,o),
(560,965,o),
(517,942,cs),
(496,930,o),
(474,924,o),
(446,924,cs)
);
}
);
width = 892;
},
{
layerId = "91BCDD27-8050-4636-87E6-61A3BEBF18FE";
shapes = (
{
closed = 1;
nodes = (
(576,702,o),
(690,773,o),
(754,878,cs),
(786,931,o),
(801,988,o),
(801,1049,cs),
(801,1174,o),
(736,1285,o),
(623,1349,cs),
(567,1381,o),
(504,1396,o),
(431,1396,cs),
(286,1396,o),
(174,1326,o),
(110,1221,cs),
(78,1168,o),
(62,1113,o),
(62,1049,cs),
(62,924,o),
(128,814,o),
(241,750,cs),
(297,718,o),
(359,702,o),
(431,702,cs)
);
},
{
closed = 1;
nodes = (
(375,860,o),
(332,877,o),
(296,912,c),
(260,945,o),
(241,989,o),
(241,1049,cs),
(241,1129,o),
(277,1184,o),
(334,1216,cs),
(362,1231,o),
(395,1238,o),
(431,1238,cs),
(487,1238,o),
(531,1221,o),
(568,1188,c),
(604,1153,o),
(621,1109,o),
(621,1049,cs),
(621,972,o),
(586,915,o),
(529,884,cs),
(500,868,o),
(468,860,o),
(431,860,cs)
);
}
);
width = 863;
},
{
layerId = "37360C82-51D7-4766-8A64-F85284F8610E";
shapes = (
{
closed = 1;
nodes = (
(551,702,o),
(658,770,o),
(719,871,cs),
(750,922,o),
(764,978,o),
(764,1038,cs),
(764,1159,o),
(700,1265,o),
(595,1329,cs),
(543,1360,o),
(485,1374,o),
(416,1374,cs),
(283,1374,o),
(177,1308,o),
(116,1207,cs),
(85,1156,o),
(70,1102,o),
(70,1038,cs),
(70,917,o),
(135,809,o),
(240,749,cs),
(292,718,o),
(348,702,o),
(416,702,cs)
);
},
{
closed = 1;
nodes = (
(344,796,o),
(290,819,o),
(245,863,cs),
(200,906,o),
(176,962,o),
(176,1038,cs),
(176,1139,o),
(221,1211,o),
(293,1252,cs),
(328,1271,o),
(371,1280,o),
(416,1280,cs),
(488,1280,o),
(543,1259,o),
(591,1216,c),
(636,1172,o),
(658,1114,o),
(658,1038,cs),
(658,938,o),
(613,866,o),
(541,827,cs),
(504,806,o),
(464,796,o),
(416,796,cs)
);
}
);
width = 834;
}
);
leftKerningGroup = degree2;
rightKerningGroup = degree;
unicode = 186;
},
{
glyphname = guillemotright;
layers = (
{
layerId = "B22D72D3-F565-4B82-99AC-51F8C8594089";
shapes = (
{
closed = 1;
nodes = (
(907,1000,l),
(640,837,l),
(822,530,l),
(638,221,l),
(907,60,l),
(1190,530,l)
);
},
{
closed = 1;
nodes = (
(387,1000,l),
(120,837,l),
(302,530,l),
(118,221,l),
(387,60,l),
(670,530,l)
);
}
);
width = 1230;
},
{
layerId = "91BCDD27-8050-4636-87E6-61A3BEBF18FE";
shapes = (
{
closed = 1;
nodes = (
(731,943,l),
(564,832,l),
(797,514,l),
(563,195,l),
(731,85,l),
(1043,514,l)
);
},
{
closed = 1;
nodes = (
(281,943,l),
(114,832,l),
(347,514,l),
(113,195,l),
(281,85,l),
(593,514,l)
);
}
);
width = 1093;
},
{
layerId = "37360C82-51D7-4766-8A64-F85284F8610E";
shapes = (
{
closed = 1;
nodes = (
(555,887,l),
(489,827,l),
(772,498,l),
(488,169,l),
(555,110,l),
(896,498,l)
);
},
{
closed = 1;
nodes = (
(175,887,l),
(109,827,l),
(392,498,l),
(108,169,l),
(175,110,l),
(516,498,l)
);
}
);
width = 956;
}
);
unicode = 187;
},
{
glyphname = onequarter;
layers = (
{
layerId = "B22D72D3-F565-4B82-99AC-51F8C8594089";
shapes = (
{
closed = 1;
nodes = (
(300,490,l),
(540,490,l),
(540,1400,l),
(457,1399,l),
(36,1254,l),
(104,1050,l),
(300,1112,l)
);
},
{
closed = 1;
nodes = (
(1510,0,l),
(1724,0,l),
(1724,160,l),
(1842,160,l),
(1842,366,l),
(1724,366,l),
(1724,528,l),
(1510,528,l),
(1510,366,l),
(1342,366,l),
(1606,910,l),
(1352,910,l),
(1076,344,l),
(1076,160,l),
(1510,160,l)
);
},
{
closed = 1;
nodes = (
(582,-40,l),
(1346,1326,l),
(1146,1440,l),
(382,78,l)
);
}
);
width = 1890;
},
{
layerId = "91BCDD27-8050-4636-87E6-61A3BEBF18FE";
shapes = (
{
closed = 1;
nodes = (
(319,490,l),
(488,490,l),
(488,1400,l),
(417,1400,l),
(42,1267,l),
(90,1125,l),
(319,1203,l)
);
},
{
closed = 1;
nodes = (
(1494,0,l),
(1649,0,l),
(1649,178,l),
(1785,178,l),
(1785,327,l),
(1649,327,l),
(1649,516,l),
(1494,516,l),
(1494,327,l),
(1227,327,l),
(1538,910,l),
(1355,910,l),
(1037,312,l),
(1037,178,l),
(1494,178,l)
);
},
{
closed = 1;
nodes = (
(519,-35,l),
(1296,1358,l),
(1158,1435,l),
(381,47,l)
);
}
);
width = 1842;
},
{
layerId = "37360C82-51D7-4766-8A64-F85284F8610E";
shapes = (
{
closed = 1;
nodes = (
(338,490,l),
(436,490,l),
(436,1400,l),
(378,1402,l),
(48,1280,l),
(76,1200,l),
(338,1294,l)
);
},
{
closed = 1;
nodes = (
(1478,0,l),
(1574,0,l),
(1574,196,l),
(1728,196,l),
(1728,288,l),
(1574,288,l),
(1574,504,l),
(1478,504,l),
(1478,288,l),
(1112,288,l),
(1470,910,l),
(1358,910,l),
(998,280,l),
(998,196,l),
(1478,196,l)
);
},
{
closed = 1;
nodes = (
(456,-30,l),
(1246,1390,l),
(1170,1430,l),
(380,16,l)
);
}
);
width = 1794;
}
);
leftKerningGroup = onehalf;
unicode = 188;
},
{
glyphname = onehalf;
layers = (
{
layerId = "B22D72D3-F565-4B82-99AC-51F8C8594089";
shapes = (
{
closed = 1;
nodes = (
(300,490,l),
(540,490,l),
(540,1400,l),
(457,1399,l),
(36,1254,l),
(104,1050,l),
(300,1112,l)
);
},
{
closed = 1;
nodes = (
(582,-40,l),
(1346,1326,l),
(1146,1440,l),
(382,78,l)
);
},
{
alignment = -1;
pos = (1060,-720);
ref = twosuperior;
}
);
width = 1906;
},
{
layerId = "91BCDD27-8050-4636-87E6-61A3BEBF18FE";
shapes = (
{
closed = 1;
nodes = (
(319,490,l),
(488,490,l),
(488,1400,l),
(418,1401,l),
(42,1267,l),
(90,1125,l),
(319,1203,l)
);
},
{
closed = 1;
nodes = (
(519,-35,l),
(1296,1358,l),
(1158,1435,l),
(381,47,l)
);
},
{
alignment = -1;
pos = (1039,-713);
ref = twosuperior;
}
);
width = 1870;
},
{
layerId = "37360C82-51D7-4766-8A64-F85284F8610E";
shapes = (
{
closed = 1;
nodes = (
(338,490,l),
(436,490,l),
(436,1400,l),
(378,1402,l),
(48,1280,l),
(76,1200,l),
(338,1294,l)
);
},
{
closed = 1;
nodes = (
(456,-30,l),
(1246,1390,l),
(1170,1430,l),
(380,16,l)
);
},
{
alignment = -1;
pos = (1009,-706);
ref = twosuperior;
}
);
width = 1834;
}
);
leftKerningGroup = onehalf;
unicode = 189;
},
{
glyphname = threequarters;
layers = (
{
layerId = "B22D72D3-F565-4B82-99AC-51F8C8594089";
shapes = (
{
closed = 1;
nodes = (
(520,470,o),
(629,524,o),
(693,612,c),
(722,657,o),
(738,706,o),
(738,762,cs),
(738,871,o),
(687,944,o),
(614,989,cs),
(578,1010,o),
(542,1023,o),
(502,1028,c),
(698,1208,l),
(698,1400,l),
(74,1400,l),
(74,1190,l),
(408,1190,l),
(190,1026,l),
(258,864,l),
(302,877,o),
(338,880,o),
(366,880,cs),
(405,880,o),
(436,872,o),
(463,855,c),
(487,838,o),
(498,813,o),
(498,782,cs),
(498,754,o),
(485,731,o),
(458,715,c),
(431,696,o),
(398,688,o),
(358,688,cs),
(315,688,o),
(275,697,o),
(234,714,cs),
(191,731,o),
(159,754,o),
(136,782,c),
(61,578,l),
(88,547,o),
(130,525,o),
(190,502,c),
(250,482,o),
(311,470,o),
(376,470,cs)
);
},
{
closed = 1;
nodes = (
(1670,0,l),
(1884,0,l),
(1884,160,l),
(2002,160,l),
(2002,366,l),
(1884,366,l),
(1884,528,l),
(1670,528,l),
(1670,366,l),
(1502,366,l),
(1766,910,l),
(1512,910,l),
(1236,344,l),
(1236,160,l),
(1670,160,l)
);
},
{
closed = 1;
nodes = (
(742,-40,l),
(1506,1326,l),
(1306,1440,l),
(542,78,l)
);
}
);
width = 2050;
},
{
layerId = "91BCDD27-8050-4636-87E6-61A3BEBF18FE";
shapes = (
{
closed = 1;
nodes = (
(511,470,o),
(619,521,o),
(679,609,cs),
(708,653,o),
(723,703,o),
(723,759,cs),
(723,876,o),
(663,953,o),
(571,994,cs),
(526,1014,o),
(479,1024,o),
(427,1025,c),
(682,1262,l),
(682,1400,l),
(81,1400,l),
(81,1249,l),
(470,1249,l),
(199,1017,l),
(250,900,l),
(291,911,o),
(329,914,o),
(360,914,cs),
(417,914,o),
(463,902,o),
(499,877,cs),
(534,852,o),
(550,816,o),
(550,771,cs),
(550,727,o),
(533,692,o),
(498,667,c),
(463,640,o),
(418,627,o),
(362,627,cs),
(319,627,o),
(278,635,o),
(235,651,cs),
(191,667,o),
(156,687,o),
(129,714,c),
(72,568,l),
(100,540,o),
(142,519,o),
(198,499,cs),
(254,480,o),
(310,470,o),
(374,470,cs)
);
},
{
closed = 1;
nodes = (
(1674,0,l),
(1829,0,l),
(1829,178,l),
(1965,178,l),
(1965,327,l),
(1829,327,l),
(1829,516,l),
(1674,516,l),
(1674,327,l),
(1407,327,l),
(1718,910,l),
(1535,910,l),
(1217,312,l),
(1217,178,l),
(1674,178,l)
);
},
{
closed = 1;
nodes = (
(699,-35,l),
(1476,1358,l),
(1338,1435,l),
(561,47,l)
);
}
);
width = 2022;
},
{
layerId = "37360C82-51D7-4766-8A64-F85284F8610E";
shapes = (
{
closed = 1;
nodes = (
(505,470,o),
(609,521,o),
(666,606,c),
(694,650,o),
(708,700,o),
(708,756,cs),
(708,884,o),
(637,961,o),
(528,1000,cs),
(472,1019,o),
(417,1025,o),
(352,1022,c),
(666,1316,l),
(666,1400,l),
(88,1400,l),
(88,1308,l),
(532,1308,l),
(208,1008,l),
(242,936,l),
(282,945,o),
(321,948,o),
(354,948,cs),
(430,948,o),
(489,932,o),
(536,899,cs),
(581,866,o),
(602,820,o),
(602,760,cs),
(602,700,o),
(581,653,o),
(538,620,c),
(495,584,o),
(438,566,o),
(366,566,cs),
(323,566,o),
(281,573,o),
(237,588,cs),
(190,603,o),
(153,622,o),
(122,646,c),
(84,558,l),
(113,533,o),
(154,515,o),
(206,496,c),
(258,480,o),
(312,470,o),
(372,470,cs)
);
},
{
closed = 1;
nodes = (
(1678,0,l),
(1774,0,l),
(1774,196,l),
(1928,196,l),
(1928,288,l),
(1774,288,l),
(1774,504,l),
(1678,504,l),
(1678,288,l),
(1312,288,l),
(1670,910,l),
(1558,910,l),
(1198,280,l),
(1198,196,l),
(1678,196,l)
);
},
{
closed = 1;
nodes = (
(656,-30,l),
(1446,1390,l),
(1370,1430,l),
(580,16,l)
);
}
);
width = 1994;
}
);
unicode = 190;
},
{
glyphname = questiondown;
layers = (
{
guides = (
{
position = "{0, 1400}";
}
);
layerId = "B22D72D3-F565-4B82-99AC-51F8C8594089";
shapes = (
{
closed = 1;
nodes = (
(637,559,l),
(788,480,o),
(817,429,o),
(817,360,cs),
(817,248,o),
(734,204,o),
(665,156,cs),
(589,103,ls),
(568,89,o),
(559,65,o),
(559,35,cs),
(559,-24,o),
(609,-34,o),
(663,-34,cs),
(760,-34,o),
(826,-4,o),
(908,38,c),
(980,-277,l),
(909,-352,o),
(669,-390,o),
(551,-390,cs),
(353,-390,o),
(86,-283,o),
(86,-43,cs),
(86,137,o),
(239,191,o),
(345,261,cs),
(454,333,ls),
(469,343,o),
(472,363,o),
(472,386,cs),
(472,419,o),
(456,445,o),
(379,503,c)
);
},
{
closed = 1;
nodes = (
(458,1070,o),
(357,981,o),
(357,851,cs),
(357,722,o),
(456,636,o),
(586,636,cs),
(712,636,o),
(812,719,o),
(812,851,cs),
(812,984,o),
(712,1070,o),
(587,1070,cs)
);
}
);
width = 1052;
},
{
guides = (
{
position = "{0, 1400}";
}
);
layerId = "91BCDD27-8050-4636-87E6-61A3BEBF18FE";
shapes = (
{
closed = 1;
nodes = (
(585,581,l),
(684,526,o),
(752,465,o),
(752,361,cs),
(752,285,o),
(720,208,o),
(637,164,cs),
(492,87,ls),
(424,51,o),
(390,-6,o),
(390,-64,cs),
(390,-159,o),
(492,-190,o),
(598,-190,cs),
(694,-190,o),
(781,-164,o),
(861,-107,c),
(922,-314,l),
(838,-391,o),
(658,-425,o),
(539,-425,cs),
(334,-425,o),
(93,-322,o),
(93,-71,cs),
(93,108,o),
(214,195,o),
(309,238,cs),
(456,305,ls),
(509,329,o),
(531,367,o),
(531,400,cs),
(531,447,o),
(480,489,o),
(416,537,c)
);
},
{
closed = 1;
nodes = (
(465,1035,o),
(391,971,o),
(391,874,cs),
(391,779,o),
(464,717,o),
(559,717,cs),
(652,717,o),
(726,778,o),
(726,874,cs),
(726,971,o),
(651,1035,o),
(558,1035,cs)
);
}
);
width = 1001;
},
{
layerId = "37360C82-51D7-4766-8A64-F85284F8610E";
shapes = (
{
closed = 1;
nodes = (
(533,604,l),
(581,572,o),
(688,502,o),
(688,383,cs),
(688,307,o),
(637,242,o),
(489,154,cs),
(398,100,ls),
(275,27,o),
(221,-43,o),
(221,-128,cs),
(221,-295,o),
(376,-347,o),
(529,-347,cs),
(629,-347,o),
(738,-325,o),
(815,-252,c),
(864,-351,l),
(767,-430,o),
(646,-460,o),
(529,-460,cs),
(315,-460,o),
(100,-361,o),
(100,-138,cs),
(100,-18,o),
(182,83,o),
(377,205,cs),
(475,266,ls),
(558,318,o),
(589,352,o),
(589,395,cs),
(589,476,o),
(504,534,o),
(455,572,c)
);
},
{
closed = 1;
nodes = (
(473,1000,o),
(426,960,o),
(426,899,cs),
(426,837,o),
(473,798,o),
(533,798,cs),
(592,798,o),
(640,837,o),
(640,897,cs),
(640,957,o),
(590,1000,o),
(531,1000,cs)
);
}
);
width = 950;
}
);
unicode = 191;
},
{
glyphname = AE;
layers = (
{
layerId = "B22D72D3-F565-4B82-99AC-51F8C8594089";
shapes = (
{
closed = 1;
nodes = (
(-100,0,l),
(328,0,l),
(430,250,l),
(780,250,l),
(780,0,l),
(1742,0,l),
(1742,352,l),
(1184,352,l),
(1184,550,l),
(1652,550,l),
(1652,870,l),
(1184,870,l),
(1184,1052,l),
(1734,1052,l),
(1734,1400,l),
(506,1400,l)
);
},
{
closed = 1;
nodes = (
(558,566,l),
(780,1114,l),
(780,566,l)
);
}
);
width = 1846;
},
{
layerId = "91BCDD27-8050-4636-87E6-61A3BEBF18FE";
shapes = (
{
closed = 1;
nodes = (
(-55,0,l),
(222,0,l),
(366,315,l),
(776,315,l),
(776,0,l),
(1667,0,l),
(1667,230,l),
(1036,230,l),
(1036,619,l),
(1584,619,l),
(1584,833,l),
(1036,833,l),
(1036,1172,l),
(1659,1172,l),
(1659,1400,l),
(604,1400,l)
);
},
{
closed = 1;
nodes = (
(453,525,l),
(776,1213,l),
(776,525,l)
);
}
);
width = 1794;
},
{
layerId = "37360C82-51D7-4766-8A64-F85284F8610E";
shapes = (
{
closed = 1;
nodes = (
(-10,0,l),
(116,0,l),
(302,380,l),
(772,380,l),
(772,0,l),
(1592,0,l),
(1592,108,l),
(888,108,l),
(888,688,l),
(1516,688,l),
(1516,796,l),
(888,796,l),
(888,1292,l),
(1584,1292,l),
(1584,1400,l),
(702,1400,l)
);
},
{
closed = 1;
nodes = (
(348,484,l),
(772,1312,l),
(772,484,l)
);
}
);
width = 1742;
}
);
leftKerningGroup = AE;
rightKerningGroup = E;
unicode = 198;
},
